{
.appVersion = "3306";
.formatVersion = 3;
axes = (
{
name = Weight;
tag = wght;
}
);
customParameters = (
{
name = fsType;
value = (
);
},
{
name = panose;
value = (
2,
11,
0,
9,
4,
0,
0,
2,
0,
4
);
}
);
date = "2025-09-06 10:49:23 +0000";
familyName = Caesium;
features = (
{
code = "sub [zero one two three four five six seven eight nine] x' by x.digit;
sub zero b' [zero one] by b.digit;";
tag = calt;
},
{
code = "#ifdef VARIABLE
condition 480 < wght;
sub dollar by dollar.alt;
#endif
";
tag = rvrn;
},
{
automatic = 1;
code = "";
labels = (
{
language = dflt;
value = "";
}
);
tag = ss01;
},
{
automatic = 1;
code = "sub A by A.ss02;
sub E by E.ss02;
sub F by F.ss02;
sub G by G.ss02;
sub H by H.ss02;
sub I by I.ss02;
sub J by J.ss02;
sub L by L.ss02;
sub N by N.ss02;
sub Q by Q.ss02;
sub T by T.ss02;
sub Y by Y.ss02;
sub Z by Z.ss02;
sub a by a.ss02;
sub b by b.ss02;
sub g by g.ss02;
sub p by p.ss02;
sub y by y.ss02;
sub z by z.ss02;
";
labels = (
{
language = dflt;
value = "";
}
);
tag = ss02;
},
{
automatic = 1;
code = "sub J by J.ss03;
";
labels = (
{
language = dflt;
value = "";
}
);
tag = ss03;
}
);
fontMaster = (
{
axesValues = (
400
);
customParameters = (
{
name = underlineThickness;
value = 63;
},
{
name = underlinePosition;
value = -83;
},
{
name = typoAscender;
value = 952;
},
{
name = typoDescender;
value = -328;
},
{
name = typoLineGap;
value = 0;
},
{
name = hheaAscender;
value = 952;
},
{
name = hheaDescender;
value = -328;
},
{
name = hheaLineGap;
value = 0;
}
);
id = "D03DF296-8133-4A96-B1BA-CFDB09DF42C8";
metricValues = (
{
pos = 824;
},
{
pos = 710;
},
{
pos = -200;
},
{
},
{
pos = 530;
},
{
pos = 8;
}
);
name = _Regular;
stemValues = (
92,
84
);
},
{
axesValues = (
150
);
customParameters = (
{
name = underlineThickness;
value = 34;
},
{
name = underlinePosition;
value = -83;
},
{
name = typoAscender;
value = 952;
},
{
name = typoDescender;
value = -328;
},
{
name = typoLineGap;
value = 0;
},
{
name = hheaAscender;
value = 952;
},
{

glyphs = (
{
glyphname = A;
layers = (
{
anchors = (
{
name = top;
pos = (371.784,710);
}
);
layerId = "1A7FA7F6-774C-4A69-BC02-C84AF7C361B9";
shapes = (
{
closed = 1;
nodes = (
(-28,0,l),
(115,0,l),
(338.47,537,l),
(347.47,537,l),
(402,0,l),
(545,0,l),
(451.784,710,l),
(288.784,710,l)
);
},
{
closed = 1;
nodes = (
(127.793,154.665,l),
(279.945,212.665,o),
(388.384,146.468,o),
(401.519,26.468,c),
(469.232,23,l),
(444.654,211,l),
(368.324,207.545,l),
(357.989,290.545,o),
(257.591,317.428,o),
(133.423,266.428,c)
);
}
);
width = 600;
},
{
anchors = (
{
name = top;
pos = (371.784,710);
}
);
layerId = "772FC93F-B3B8-447D-A30A-419E2FCA5167";
shapes = (
{
closed = 1;
nodes = (
(-20,0,l),
(86,0,l),
(352.697,624,l),
(361.697,624,l),
(431,0,l),
(535,0,l),
(442.784,710,l),
(298.784,710,l)
);
},
{
closed = 1;
nodes = (
(122.791,187.926,l),
(276.083,246.926,o),
(410.926,179.752,o),
(429.407,33.752,c),
(482.357,31,l),
(454.795,212,l),
(394.635,209.285,l),
(379.581,294.285,o),
(258.733,328.083,o),
(127.566,277.083,c)
);
}
);
width = 600;
},
{
anchors = (
{
name = top;
pos = (371.784,710);
}
);
layerId = "ADDB71F6-EC09-4DA0-80DB-A822AEA2EE7D";
shapes = (
{
closed = 1;
nodes = (
(-7,0,l),
(43,0,l),
(360.741,667,l),
(365.741,667,l),
(474,0,l),
(524,0,l),
(404.784,710,l),
(335.784,710,l)
);
},
{
closed = 1;
nodes = (
(123.44,215.541,l),
(280.451,272.541,o),
(442.06,204.229,o),
(467.854,46.229,c),
(495.324,45,l),
(470.314,173,l),
(438.54,171.889,l),
(397.611,264.889,o),
(268.188,308.428,o),
(125.442,260.428,c)
);
}
);
width = 600;
},
{
anchors = (
{
name = top;
pos = (371.784,710);
}
);
layerId = "D03DF296-8133-4A96-B1BA-CFDB09DF42C8";
shapes = (
{
closed = 1;
nodes = (
(-17.621,0,l),
(78.131,0,l),
(354.169,631.869,l),
(362.437,631.869,l),
(438.869,0,l),
(532.987,0,l),
(435.83,710,l),
(305.555,710,l)
);
},
{
closed = 1;
nodes = (
(122.91,192.98,l),
(276.882,251.614,o),
(416.623,184.231,o),
(436.443,36.035,c),
(484.73,33.562,l),
(457.635,204.863,l),
(402.67,202.442,l),
(382.881,288.906,o),
(260.463,324.486,o),
(127.177,274.035,c)
);
}
);
width = 600;
}
);
unicode = 65;
},
{
glyphname = AE;
layers = (
{
anchors = (
{
name = bottom;
pos = (284,0);
},
{
name = ogonek;
pos = (490.703,5);
},
{
name = top;
pos = (383.784,710);
}
);
layerId = "1A7FA7F6-774C-4A69-BC02-C84AF7C361B9";
shapes = (
{
closed = 1;
nodes = (
(-23,0,l),
(109,0,l),
(312.341,593,l),
(408.341,593,l),
(424.784,710,l),
(241.784,710,l)
);
},
{
closed = 1;
nodes = (
(94.881,113,l),
(333.881,113,l),
(350.605,232,l),
(111.605,232,l)
);
},
{
closed = 1;
nodes = (
(251,0,l),
(521,0,l),
(538.005,121,l),
(268.005,121,l)
);
},
{
closed = 1;
nodes = (
(251,0,l),
(370,0,l),
(469.784,710,l),
(350.784,710,l)
);
},
{
closed = 1;
nodes = (
(292.46,295,l),
(532.46,295,l),
(549.465,416,l),
(309.465,416,l)
);
},
{
closed = 1;
nodes = (
(333.779,589,l),
(603.779,589,l),
(620.784,710,l),
(350.784,710,l)
);
}
);
width = 600;
},
{
anchors = (
{
name = bottom;
pos = (284,0);
},
{
name = ogonek;
pos = (490.703,5);
},
{
name = top;
pos = (383.784,710);
}
);
layerId = "772FC93F-B3B8-447D-A30A-419E2FCA5167";
shapes = (
{
closed = 1;
nodes = (
(-15,0,l),
(79,0,l),
(337.697,624,l),
(403.697,624,l),
(415.784,710,l),
(278.784,710,l)
);
},
{
closed = 1;
nodes = (
(100.222,151,l),
(335.222,151,l),
(347.589,239,l),
(112.589,239,l)
);
},
{
closed = 1;
nodes = (
(258,0,l),
(513,0,l),
(526.351,95,l),
(271.351,95,l)
);
},
{
closed = 1;
nodes = (
(258,0,l),
(353,0,l),
(452.784,710,l),
(357.784,710,l)
);
},
{
closed = 1;
nodes = (
(306.287,308,l),
(526.287,308,l),
(539.638,403,l),
(319.638,403,l)
);
},
{
closed = 1;
nodes = (
(344.433,615,l),
(599.433,615,l),
(612.784,710,l),
(357.784,710,l)
);
}
);
width = 600;
},
{
anchors = (
{
name = bottom;
pos = (284,0);
},
{
name = ogonek;
pos = (490.703,5);
},
{
name = top;
pos = (383.784,710);
}
);
layerId = "ADDB71F6-EC09-4DA0-80DB-A822AEA2EE7D";
shapes = (
{
closed = 1;
nodes = (
(-3,0,l),
(40,0,l),
(366.46,665,l),
(403.46,665,l),
(409.784,710,l),
(345.784,710,l)
);
},
{
closed = 1;
nodes = (
(103.173,172,l),
(337.173,172,l),
(343.497,217,l),
(109.497,217,l)
);
},
{
closed = 1;
nodes = (
(282,0,l),
(500,0,l),
(506.324,45,l),
(288.324,45,l)
);
},
{
closed = 1;
nodes = (
(282,0,l),
(329,0,l),
(428.784,710,l),
(381.784,710,l)
);
},
{
closed = 1;
nodes = (
(328.8,333,l),
(516.8,333,l),
(523.124,378,l),
(335.124,378,l)
);
},
{
closed = 1;
nodes = (
(375.46,665,l),
(593.46,665,l),
(599.784,710,l),
(381.784,710,l)
);
}
);
width = 600;
},
{
anchors = (
{
name = bottom;
pos = (284,0);
},
{
name = ogonek;
pos = (490.703,5);
},
{
name = top;
pos = (383.784,710);
}
);
layerId = "D03DF296-8133-4A96-B1BA-CFDB09DF42C8";
shapes = (
{
closed = 1;
nodes = (
(-12.804,0,l),
(71.863,0,l),
(342.961,631.503,l),
(403.654,631.503,l),
(414.686,710,l),
(291.045,710,l)
);
},
{
closed = 1;
nodes = (
(100.762,154.843,l),
(335.579,154.843,l),
(346.84,234.974,l),
(112.023,234.974,l)
);
},
{
closed = 1;
nodes = (
(262.392,0,l),
(510.621,0,l),
(522.686,85.85,l),
(274.458,85.85,l)
);
},
{
closed = 1;
nodes = (
(262.392,0,l),
(348.608,0,l),
(448.392,710,l),
(362.176,710,l)
);
},
{
closed = 1;
nodes = (
(310.407,312.575,l),
(524.55,312.575,l),
(536.616,398.425,l),
(322.472,398.425,l)
);
},
{
closed = 1;
nodes = (
(350.111,624.15,l),
(598.34,624.15,l),
(610.405,710,l),
(362.176,710,l)
);
}
);
width = 600;
}
);
unicode = 198;
},
{
glyphname = B;
layers = (
{
anchors = (
{
name = bottom;
pos = (238,0);
},
{
name = top;
pos = (350.784,710);
}
);
layerId = "1A7FA7F6-774C-4A69-BC02-C84AF7C361B9";
shapes = (
{
closed = 1;
nodes = (
(343.281,372,l),
(371.643,339,l),
(381.762,411,l),
(345.249,386,l),
(375.544,386,ls),
(477.544,386,o),
(563.93,426.426,o),
(579.53,537.426,cs),
(594.709,645.426,o),
(516.489,710,o),
(368.489,710,cs),
(217.784,710,l),
(200.779,589,l),
(351.074,589,ls),
(418.074,589,o),
(443.908,568.574,o),
(437.303,521.574,cs),
(428.652,467.574,o),
(389.981,436,o),
(326.981,436,cs),
(173.276,436,l),
(156.13,314,l),
(316.425,314,ls),
(392.425,314,o),
(428.854,283.574,o),
(420.421,223.574,cs),
(410.724,154.574,o),
(351.851,122,o),
(286.851,122,cs),
(123.146,122,l),
(106,0,l),
(303.295,0,ls),
(432.295,0,o),
(534.93,56.426,o),
(555.027,199.426,cs),
(569.925,305.426,o),
(506.986,372,o),
(365.986,372,cs)
);
},
{
closed = 1;
nodes = (
(30,0,l),
(162,0,l),
(273.784,710,l),
(141.784,710,l)
);
}
);
width = 600;
},
{
anchors = (
{
name = bottom;
pos = (238,0);
},
{
name = top;
pos = (350.784,710);
}
);
layerId = "772FC93F-B3B8-447D-A30A-419E2FCA5167";
shapes = (
{
closed = 1;
nodes = (
(311.984,377,l),
(366.206,343,l),
(374.778,404,l),
(312.546,381,l),
(344.115,381,ls),
(437.115,381,o),
(551.362,408.152,o),
(568.789,532.152,cs),
(584.53,644.152,o),
(512.215,710,o),
(369.215,710,cs),
(208.784,710,l),
(195.433,615,l),
(354.002,615,ls),
(434.002,615,o),
(472.195,584.848,o),
(463.763,524.848,cs),
(453.644,452.848,o),
(391.88,423,o),
(325.88,423,cs),
(162.449,423,l),
(149.097,328,l),
(318.667,328,ls),
(410.667,328,o),
(454.595,288.848,o),
(444.336,215.848,cs),
(432.53,131.848,o),
(360.782,95,o),
(283.782,95,cs),
(110.351,95,l),
(97,0,l),
(302.569,0,ls),
(430.569,0,o),
(527.454,60.152,o),
(546.567,196.152,cs),
(562.308,308.152,o),
(490.415,377,o),
(338.415,377,cs)
);
},
{
closed = 1;
nodes = (
(39,0,l),
(143,0,l),
(254.784,710,l),
(150.784,710,l)
);
}
);
width = 600;
},
{
anchors = (
{
name = bottom;
pos = (238,0);
},
{
name = top;
pos = (350.784,710);
}
);
layerId = "ADDB71F6-EC09-4DA0-80DB-A822AEA2EE7D";
shapes = (
{
closed = 1;
nodes = (
(343.843,376,l),
(368.016,363,l),
(371.951,391,l),
(344.406,380,l),
(359.634,380,ls),
(472.634,380,o),
(543.533,430.715,o),
(558.571,537.715,cs),
(573.749,645.715,o),
(504.555,710,o),
(370.555,710,cs),
(187.784,710,l),
(181.46,665,l),
(370.688,665,ls),
(471.688,665,o),
(522.035,619.285,o),
(510.792,539.285,cs),
(496.597,438.285,o),
(413.566,397,o),
(322.566,397,cs),
(137.795,397,l),
(131.47,352,l),
(341.699,352,ls),
(447.699,352,o),
(500.64,296.285,o),
(486.586,196.285,cs),
(471.548,89.285,o),
(384.096,45,o),
(286.096,45,cs),
(82.324,45,l),
(76,0,l),
(281.229,0,ls),
(408.229,0,o),
(514.83,55.715,o),
(534.225,193.715,cs),
(550.247,307.715,o),
(483.615,376,o),
(356.615,376,cs)
);
},
{
closed = 1;
nodes = (
(50,0,l),
(97,0,l),
(208.784,710,l),
(161.784,710,l)
);
}
);
width = 600;
},
{
anchors = (
{
name = bottom;
pos = (238,0);
},
{
name = top;
pos = (350.784,710);
}
);
layerId = "D03DF296-8133-4A96-B1BA-CFDB09DF42C8";
shapes = (
{
closed = 1;
nodes = (
(317.814,376.817,l),
(366.537,346.66,l),
(374.261,401.621,l),
(318.377,380.817,l),
(346.955,380.817,ls),
(443.615,380.817,o),
(549.929,412.281,o),
(566.919,533.17,cs),
(582.557,644.438,o),
(510.813,710,o),
(369.46,710,cs),
(204.941,710,l),
(192.875,624.15,l),
(357.056,624.15,ls),
(440.899,624.15,o),
(481.316,591.15,o),
(472.369,527.49,cs),
(461.504,450.183,o),
(395.848,418.242,o),
(325.273,418.242,cs),
(157.937,418.242,l),
(145.872,332.392,l),
(322.882,332.392,ls),
(417.444,332.392,o),
(463.022,290.209,o),
(452.068,212.268,cs),
(439.671,124.059,o),
(365.049,85.85,o),
(284.206,85.85,cs),
(105.222,85.85,l),
(93.157,0,l),
(298.664,0,ls),
(426.481,0,o),
(525.144,59.34,o),
(544.309,195.706,cs),
(560.101,308.072,o),
(489.17,376.817,o),
(341.745,376.817,cs)
);
},
{
closed = 1;
nodes = (
(41.013,0,l),
(134.582,0,l),
(246.366,710,l),
(152.797,710,l)
);
}
);
width = 600;
}
);
unicode = 66;
},
{
glyphname = C;
layers = (
{
anchors = (
{
name = bottom;
pos = (310,0);
}
);
layerId = "1A7FA7F6-774C-4A69-BC02-C84AF7C361B9";
shapes = (
{
closed = 1;
nodes = (
(404.89,-10,o),
(466.018,-0.318,o),
(527.251,22.682,c),
(517.684,147.4,l),
(467.873,127.4,o),
(421.008,116,o),
(373.008,116,cs),
(236.008,116,o),
(179.763,190.426,o),
(201.827,347.426,cs),
(219.255,471.426,o),
(291.776,594,o),
(427.776,594,cs),
(479.776,594,o),
(522.848,574.784,o),
(546.788,538.784,c),
(630.758,629.993,l),
(602.628,685.993,o),
(531.894,720,o),
(439.894,720,cs),
(211.894,720,o),
(93.065,562.574,o),
(62.708,346.574,cs),
(29.681,111.574,o),
(126.89,-10,o),
(343.89,-10,cs)
);
}
);
width = 600;
},
{
anchors = (
{
name = bottom;
pos = (310,0);
}
);
layerId = "772FC93F-B3B8-447D-A30A-419E2FCA5167";
shapes = (
{
closed = 1;
nodes = (
(402.164,-10,o),
(461.373,-0.066,o),
(521.606,22.934,c),
(507.582,113.205,l),
(459.63,92.205,o),
(413.955,82,o),
(367.955,82,cs),
(219.955,82,o),
(158.632,168.152,o),
(183.789,347.152,cs),
(203.324,486.152,o),
(280.829,628,o),
(431.829,628,cs),
(481.829,628,o),
(522.303,604.418,o),
(543.978,559.418,c),
(625.102,628.498,l),
(602.113,685.498,o),
(533.62,720,o),
(439.62,720,cs),
(217.62,720,o),
(106.26,556.848,o),
(76.465,344.848,cs),
(43.579,110.848,o),
(134.164,-10,o),
(341.164,-10,cs)
);
}
);
width = 600;
},
{
anchors = (
{
name = bottom;
pos = (310,0);
}
);
layerId = "ADDB71F6-EC09-4DA0-80DB-A822AEA2EE7D";
shapes = (
{
closed = 1;
nodes = (
(404.823,-10,o),
(456.186,0.471,o),
(522.121,28.471,c),
(514.226,73.549,l),
(455.572,47.549,o),
(403.69,35,o),
(348.69,35,cs),
(175.69,35,o),
(104.355,137.715,o),
(133.728,346.715,cs),
(157.62,516.715,o),
(253.094,675,o),
(435.094,675,cs),
(496.094,675,o),
(548.625,647.065,o),
(574.739,598.065,c),
(611.834,629.943,l),
(581.564,684.943,o),
(520.961,720,o),
(437.961,720,cs),
(224.961,720,o),
(112.37,536.285,o),
(85.245,343.285,cs),
(52.781,112.285,o),
(143.823,-10,o),
(343.823,-10,cs)
);
}
);
width = 600;
},
{
anchors = (
{
name = bottom;
pos = (310,0);
}
);
layerId = "D03DF296-8133-4A96-B1BA-CFDB09DF42C8";
shapes = (
{
closed = 1;
nodes = (
(402.65,-10,o),
(460.424,0.032,o),
(521.7,23.947,c),
(508.798,105.947,l),
(458.888,84.032,o),
(412.077,73.399,o),
(364.43,73.399,cs),
(211.854,73.399,o),
(148.699,162.582,o),
(174.627,347.072,cs),
(194.96,491.745,o),
(275.753,636.601,o),
(432.426,636.601,cs),
(484.439,636.601,o),
(527.12,612.223,o),
(549.608,566.491,c),
(622.674,628.762,l),
(598.352,685.396,o),
(531.303,720,o),
(439.317,720,cs),
(218.964,720,o),
(107.378,553.085,o),
(78.072,344.562,cs),
(45.263,111.111,o),
(135.931,-10,o),
(341.65,-10,cs)
);
}
);
width = 600;
}
);
unicode = 67;
},
{
glyphname = D;
layers = (
{
layerId = "1A7FA7F6-774C-4A69-BC02-C84AF7C361B9";
shapes = (
{
closed = 1;
nodes = (
(106,0,l),
(214.295,0,ls),
(450.295,0,o),
(567.627,125.426,o),
(599.811,354.426,cs),
(632.979,590.426,o),
(537.489,710,o),
(319.489,710,cs),
(217.784,710,l),
(200.076,584,l),
(306.371,584,ls),
(433.371,584,o),
(483.475,508.574,o),
(462.254,357.574,cs),
(443.421,223.574,o),
(372.413,126,o),
(227.413,126,cs),
(123.708,126,l)
);
},
{
closed = 1;
nodes = (
(31,0,l),
(163,0,l),
(274.784,710,l),
(142.784,710,l)
);
}
);
width = 600;
},
{
layerId = "772FC93F-B3B8-447D-A30A-419E2FCA5167";
shapes = (
{
closed = 1;
nodes = (
(96,0,l),
(213.569,0,ls),
(448.569,0,o),
(560.573,132.152,o),
(592.054,356.152,cs),
(625.081,591.152,o),
(533.215,710,o),
(320.215,710,cs),
(207.784,710,l),
(194.433,615,l),
(310.002,615,ls),
(453.002,615,o),
(511.746,531.848,o),
(487.433,358.848,cs),
(466.071,206.848,o),
(389.782,95,o),
(222.782,95,cs),
(109.351,95,l)
);
},
{
closed = 1;
nodes = (
(39,0,l),
(143,0,l),
(254.784,710,l),
(150.784,710,l)
);
}
);
width = 600;
},
{
layerId = "ADDB71F6-EC09-4DA0-80DB-A822AEA2EE7D";
shapes = (
{
closed = 1;
nodes = (
(74,0,l),
(207.229,0,ls),
(440.229,0,o),
(544.636,139.715,o),
(575.274,357.715,cs),
(608.301,592.715,o),
(521.555,710,o),
(316.555,710,cs),
(182.784,710,l),
(176.46,665,l),
(311.688,665,ls),
(484.688,665,o),
(556.305,564.285,o),
(527.494,359.285,cs),
(501.635,175.285,o),
(412.096,45,o),
(212.096,45,cs),
(80.324,45,l)
);
},
{
closed = 1;
nodes = (
(46,0,l),
(93,0,l),
(204.784,710,l),
(157.784,710,l)
);
}
);
width = 600;
},
{
layerId = "D03DF296-8133-4A96-B1BA-CFDB09DF42C8";
shapes = (
{
closed = 1;
nodes = (
(91.974,0,l),
(212.409,0,ls),
(447.043,0,o),
(557.656,133.536,o),
(588.983,356.438,cs),
(622.01,591.438,o),
(531.081,710,o),
(319.545,710,cs),
(203.209,710,l),
(191.143,624.15,l),
(310.31,624.15,ls),
(458.801,624.15,o),
(519.901,537.784,o),
(494.764,358.928,cs),
(472.579,201.072,o),
(393.866,85.85,o),
(220.827,85.85,cs),
(104.039,85.85,l)
);
},
{
closed = 1;
nodes = (
(40.281,0,l),
(133.85,0,l),
(245.634,710,l),
(152.065,710,l)
);
}
);
width = 600;
}
);
unicode = 68;
},
{
glyphname = Eth;
layers = (
{
layerId = "1A7FA7F6-774C-4A69-BC02-C84AF7C361B9";
shapes = (
{
closed = 1;
nodes = (
(10.178,293,l),
(330.178,293,l),
(347.324,415,l),
(27.324,415,l)
);
},
{
ref = D;
}
);
width = 600;
},
{
layerId = "772FC93F-B3B8-447D-A30A-419E2FCA5167";
shapes = (
{
closed = 1;
nodes = (
(12.005,306,l),
(332.005,306,l),
(345.357,401,l),
(25.357,401,l)
);
},
{
ref = D;
}
);
width = 600;
},
{
layerId = "ADDB71F6-EC09-4DA0-80DB-A822AEA2EE7D";
shapes = (
{
closed = 1;
nodes = (
(15.519,331,l),
(335.519,331,l),
(341.843,376,l),
(21.843,376,l)
);
},
{
ref = D;
}
);
width = 600;
},
{
layerId = "D03DF296-8133-4A96-B1BA-CFDB09DF42C8";
shapes = (
{
closed = 1;
nodes = (
(12.648,310.575,l),
(332.648,310.575,l),
(344.714,396.425,l),
(24.714,396.425,l)
);
},
{
alignment = -1;
ref = D;
}
);
width = 600;
}
);
unicode = 208;
},
{
glyphname = Eopen;
layers = (
{
anchors = (
{
name = top;
pos = (416.784,710);
}
);
layerId = "1A7FA7F6-774C-4A69-BC02-C84AF7C361B9";
shapes = (
{
closed = 1;
nodes = (
(239.894,720,o),
(158.854,653.574,o),
(144.378,550.574,cs),
(132.432,465.574,o),
(174.409,399.493,o),
(294.02,382.493,c),
(286.622,410,l),
(278.33,351,l),
(286.84,378.069,l),
(183.559,376.069,o),
(83.632,317.574,o),
(67.189,200.574,cs),
(48.778,69.574,o),
(140.89,-10,o),
(315.89,-10,cs),
(416.89,-10,o),
(468.592,-3.328,o),
(537.246,22.672,c),
(526.381,146.061,l),
(449.148,123.061,o),
(409.008,116,o),
(327.008,116,cs),
(241.008,116,o),
(197.719,147.426,o),
(205.73,204.426,cs),
(214.865,269.426,o),
(276.863,310,o),
(355.863,310,cs),
(444.568,310,l),
(469.969,435.908,l),
(315.531,439.908,o),
(268.411,465.426,o),
(276.844,525.426,cs),
(282.044,562.426,o),
(324.917,595,o),
(409.917,595,cs),
(470.917,595,o),
(516.262,577.791,o),
(539.343,542.791,c),
(630.689,632.317,l),
(593.716,682.317,o),
(526.894,720,o),
(420.894,720,cs)
);
}
);
width = 600;
},
{
anchors = (
{
name = top;
pos = (414.784,710);
}
);
layerId = "772FC93F-B3B8-447D-A30A-419E2FCA5167";
shapes = (
{
closed = 1;
nodes = (
(246.62,720,o),
(166.752,652.848,o),
(152.276,549.848,cs),
(140.33,464.848,o),
(183.676,399.396,o),
(302.286,382.396,c),
(294.622,410,l),
(286.33,351,l),
(296.563,378.055,l),
(192.282,376.055,o),
(92.53,316.848,o),
(76.087,199.848,cs),
(58.519,74.848,o),
(151.164,-10,o),
(315.164,-10,cs),
(412.164,-10,o),
(461.941,-3.087,o),
(528.595,22.913,c),
(513.706,114.889,l),
(440.473,91.889,o),
(401.377,85,o),
(322.377,85,cs),
(221.377,85,o),
(168.729,126.152,o),
(179.832,205.152,cs),
(190.513,281.152,o),
(263.385,326,o),
(357.385,326,cs),
(440.816,326,l),
(462.447,419.916,l),
(294.15,424.916,o),
(240.967,455.152,o),
(250.946,526.152,cs),
(258.816,582.152,o),
(310.829,628,o),
(413.829,628,cs),
(474.829,628,o),
(519.424,605.433,o),
(540.959,559.433,c),
(622.006,628.565,l),
(595.876,684.565,o),
(527.62,720,o),
(421.62,720,cs)
);
}
);
width = 600;
},
{
anchors = (
{
name = top;
pos = (413.784,710);
}
);
layerId = "ADDB71F6-EC09-4DA0-80DB-A822AEA2EE7D";
shapes = (
{
closed = 1;
nodes = (
(272.961,720,o),
(180.235,656.285,o),
(165.056,548.285,cs),
(152.829,461.285,o),
(189.333,392.147,o),
(300.506,379.147,c),
(294.622,410,l),
(286.33,351,l),
(297.619,376.026,l),
(200.338,374.026,o),
(102.045,306.285,o),
(84.056,178.285,cs),
(67.472,60.285,o),
(153.823,-10,o),
(313.823,-10,cs),
(404.823,-10,o),
(451.775,-2.511,o),
(515.429,23.489,c),
(507.616,69.462,l),
(433.821,42.462,o),
(395.69,35,o),
(316.69,35,cs),
(186.69,35,o),
(119.468,88.715,o),
(132.398,180.715,cs),
(147.717,289.715,o),
(238.559,351,o),
(359.559,351,cs),
(430.33,351,l),
(446.28,394.958,l),
(262.123,400.958,o),
(197.36,443.715,o),
(210.571,537.715,cs),
(222.657,623.715,o),
(299.094,675,o),
(415.094,675,cs),
(487.094,675,o),
(546.664,645.885,o),
(581.323,607.885,c),
(615.418,642.039,l),
(582.601,686.039,o),
(511.961,720,o),
(417.961,720,cs)
);
}
);
width = 600;
},
{
anchors = (
{
name = top;
pos = (414.601,710);
}
);
layerId = "D03DF296-8133-4A96-B1BA-CFDB09DF42C8";
shapes = (
{
closed = 1;
nodes = (
(251.441,720,o),
(169.219,653.477,o),
(154.615,549.562,cs),
(142.618,464.196,o),
(184.711,398.07,o),
(301.961,381.802,c),
(294.622,410,l),
(286.33,351,l),
(296.757,377.684,l),
(193.757,375.684,o),
(94.272,314.915,o),
(77.545,195.902,cs),
(60.158,72.183,o),
(151.65,-10,o),
(314.918,-10,cs),
(410.82,-10,o),
(460.081,-2.981,o),
(526.186,23.019,c),
(512.591,106.576,l),
(439.256,82.844,o),
(400.336,75.85,o),
(321.336,75.85,cs),
(215.029,75.85,o),
(159.714,119.301,o),
(171.151,200.68,cs),
(182.681,282.719,o),
(258.842,330.575,o),
(357.783,330.575,cs),
(438.897,330.575,l),
(459.489,415.348,l),
(288.289,420.531,o),
(232.987,453.059,o),
(243.557,528.268,cs),
(252.199,589.758,o),
(308.681,636.601,o),
(414.06,636.601,cs),
(477.073,636.601,o),
(524.409,612.836,o),
(548.346,568.3,c),
(620.8,631.031,l),
(593.447,684.835,o),
(524.754,720,o),
(420.951,720,cs)
);
}
);
width = 600;
}
);
unicode = 400;
},
{
glyphname = Schwa;
layers = (
{
layerId = "1A7FA7F6-774C-4A69-BC02-C84AF7C361B9";
shapes = (
{
closed = 1;
nodes = (
(436.89,-10,o),
(549.503,117.426,o),
(584.919,369.426,cs),
(616.822,596.426,o),
(528.894,720,o),
(323.894,720,cs),
(261.894,720,o),
(202.182,713.998,o),
(144.933,697.998,c),
(143.867,574.083,l),
(194.694,587.083,o),
(251.917,595,o),
(307.917,595,cs),
(424.917,595,o),
(467.881,518.574,o),
(447.081,370.574,cs),
(424.454,209.574,o),
(356.008,116,o),
(268.008,116,cs),
(185.008,116,o),
(155.076,178.426,o),
(173.768,311.426,cs),
(177.422,337.426,o),
(182.789,366.439,o),
(190.568,400.439,c),
(55.157,416.55,l),
(46.379,382.55,o),
(40.989,348.574,o),
(36.07,313.574,cs),
(5.994,99.574,o),
(79.89,-10,o),
(252.89,-10,cs)
);
},
{
closed = 1;
nodes = (
(63.897,291,l),
(511.897,291,l),
(529.043,413,l),
(55.043,413,l)
);
}
);
width = 600;
},
{
layerId = "772FC93F-B3B8-447D-A30A-419E2FCA5167";
shapes = (
{
closed = 1;
nodes = (
(430.164,-10,o),
(541.746,119.152,o),
(577.162,371.152,cs),
(609.065,598.152,o),
(523.62,720,o),
(324.62,720,cs),
(266.62,720,o),
(208.868,713.838,o),
(154.619,697.838,c),
(156.803,607.202,l),
(206.771,621.202,o),
(259.829,628,o),
(312.829,628,cs),
(444.829,628,o),
(497.152,541.848,o),
(473.4,372.848,cs),
(447.26,186.848,o),
(367.955,82,o),
(262.955,82,cs),
(162.955,82,o),
(126.946,156.152,o),
(148.448,309.152,cs),
(152.243,336.152,o),
(157.095,362.16,o),
(162.749,388.16,c),
(61.179,401.83,l),
(54.525,375.83,o),
(48.606,345.848,o),
(43.827,311.848,cs),
(13.892,98.848,o),
(84.164,-10,o),
(252.164,-10,cs)
);
},
{
closed = 1;
nodes = (
(74.724,304,l),
(514.724,304,l),
(528.076,399,l),
(61.076,399,l)
);
}
);
width = 600;
},
{
layerId = "ADDB71F6-EC09-4DA0-80DB-A822AEA2EE7D";
shapes = (
{
closed = 1;
nodes = (
(419.823,-10,o),
(528.403,116.715,o),
(563.82,368.715,cs),
(595.582,594.715,o),
(516.961,720,o),
(325.961,720,cs),
(271.961,720,o),
(220.094,713.399,o),
(168.845,697.399,c),
(172.882,652.594,l),
(219.99,667.594,o),
(270.094,675,o),
(320.094,675,cs),
(481.094,675,o),
(544.727,567.285,o),
(516.9,369.285,cs),
(485.981,149.285,o),
(391.69,35,o),
(255.69,35,cs),
(127.69,35,o),
(76.684,118.715,o),
(100.576,288.715,cs),
(103.949,312.715,o),
(108.745,338.724,o),
(115.399,364.724,c),
(68.601,375.276,l),
(61.947,349.276,o),
(57.013,320.285,o),
(52.656,289.285,cs),
(24.689,90.285,o),
(90.823,-10,o),
(250.823,-10,cs)
);
},
{
closed = 1;
nodes = (
(91.957,327,l),
(519.957,327,l),
(526.562,374,l),
(68.562,374,l)
);
}
);
width = 600;
},
{
layerId = "D03DF296-8133-4A96-B1BA-CFDB09DF42C8";
shapes = (
{
closed = 1;
nodes = (
(428.271,-10,o),
(539.304,118.706,o),
(574.72,370.706,cs),
(606.597,597.523,o),
(522.402,720,o),
(324.866,720,cs),
(267.598,720,o),
(210.922,713.757,o),
(157.223,697.757,c),
(159.746,615.509,l),
(209.19,629.692,o),
(261.707,636.601,o),
(314.158,636.601,cs),
(451.466,636.601,o),
(505.858,546.503,o),
(481.361,372.196,cs),
(454.346,179.974,o),
(372.299,73.399,o),
(261.626,73.399,cs),
(156.501,73.399,o),
(117.748,149.301,o),
(139.688,305.412,cs),
(143.405,331.863,o),
(148.247,357.871,o),
(154.084,383.871,c),
(62.537,396.97,l),
(55.883,370.97,o),
(50.144,341.17,o),
(45.443,307.719,cs),
(15.868,97.281,o),
(85.382,-10,o),
(251.918,-10,cs)
);
},
{
closed = 1;
nodes = (
(77.878,308.209,l),
(515.682,308.209,l),
(527.799,394.425,l),
(62.446,394.425,l)
);
}
);
width = 600;
}
);
unicode = 399;
},
{
glyphname = Ezh;
layers = (
{
layerId = "1A7FA7F6-774C-4A69-BC02-C84AF7C361B9";
shapes = (
{
closed = 1;
nodes = (
(409.89,-10,o),
(523.038,71.426,o),
(541.309,201.426,cs),
(561.125,342.426,o),
(470.989,428.938,o),
(298.41,431.938,c),
(351.762,411,l),
(560.654,581,l),
(578.784,710,l),
(135.784,710,l),
(118.779,589,l),
(465.779,589,l),
(428.854,618,l),
(181.606,417,l),
(176.989,313,l),
(247.284,313,ls),
(358.284,313,o),
(413.292,279.574,o),
(404.156,214.574,cs),
(395.865,155.574,o),
(338.008,116,o),
(257.008,116,cs),
(190.008,116,o),
(154.979,131.712,o),
(107.304,176.712,c),
(5.46,78.4,l),
(61.309,20.4,o),
(138.89,-10,o),
(242.89,-10,cs)
);
}
);
width = 600;
},
{
layerId = "772FC93F-B3B8-447D-A30A-419E2FCA5167";
shapes = (
{
closed = 1;
nodes = (
(404.164,-10,o),
(514.14,72.152,o),
(532.411,202.152,cs),
(550.681,332.152,o),
(463.189,410.966,o),
(296.47,412.966,c),
(295.951,391,l),
(556.589,609,l),
(570.784,710,l),
(144.784,710,l),
(131.714,617,l),
(469.714,617,l),
(474.93,647,l),
(178.935,398,l),
(180.222,336,l),
(249.791,336,ls),
(376.791,336,o),
(440.876,290.848,o),
(428.93,205.848,cs),
(418.249,129.848,o),
(350.955,82,o),
(252.955,82,cs),
(181.955,82,o),
(142.782,98.249,o),
(90.247,144.249,c),
(12.831,77.946,l),
(66.679,19.946,o),
(142.164,-10,o),
(242.164,-10,cs)
);
}
);
width = 600;
},
{
layerId = "ADDB71F6-EC09-4DA0-80DB-A822AEA2EE7D";
shapes = (
{
closed = 1;
nodes = (
(401.823,-10,o),
(500.674,61.715,o),
(518.944,191.715,cs),
(537.636,324.715,o),
(443.001,392.982,o),
(234.423,395.982,c),
(232.843,376,l),
(551.476,658,l),
(558.784,710,l),
(155.784,710,l),
(149.46,665,l),
(516.46,665,l),
(530.676,695,l),
(178.827,383,l),
(181.33,351,l),
(230.559,351,ls),
(406.559,351,o),
(486.202,300.285,o),
(471.305,194.285,cs),
(457.11,93.285,o),
(376.69,35,o),
(252.69,35,cs),
(168.69,35,o),
(122.782,55.225,o),
(60.23,108.225,c),
(23.696,76.885,l),
(76.545,18.885,o),
(148.823,-10,o),
(245.823,-10,cs)
);
}
);
width = 600;
},
{
layerId = "D03DF296-8133-4A96-B1BA-CFDB09DF42C8";
shapes = (
{
closed = 1;
nodes = (
(403.735,-10,o),
(511.676,70.242,o),
(529.946,200.242,cs),
(548.294,330.791,o),
(459.494,407.675,o),
(285.115,409.858,c),
(284.402,388.255,l),
(555.654,617.967,l),
(568.588,710,l),
(146.797,710,l),
(134.961,625.784,l),
(478.269,625.784,l),
(485.132,655.784,l),
(178.915,395.255,l),
(180.425,338.745,l),
(246.271,338.745,ls),
(382.239,338.745,o),
(449.171,292.575,o),
(436.685,203.732,cs),
(425.361,123.157,o),
(355.665,73.399,o),
(252.907,73.399,cs),
(179.528,73.399,o),
(139.122,90.375,o),
(84.754,137.656,c),
(14.819,77.752,l),
(68.485,19.752,o),
(143.382,-10,o),
(242.833,-10,cs)
);
}
);
width = 600;
}
);
unicode = 439;
},
{
glyphname = F;
layers = (
{
layerId = "1A7FA7F6-774C-4A69-BC02-C84AF7C361B9";
shapes = (
{
closed = 1;
nodes = (
(624.784,710,l),
(442.784,710,l),
(420.626,575.528,l),
(331.799,562.528,o),
(275.986,505.574,o),
(260.353,408.574,cs),
(234.873,248.574,ls),
(220.854,160.567,o),
(173.008,116,o),
(101.008,116,cs),
(47.303,116,l),
(30.297,-5,l),
(120.592,-5,ls),
(261.592,-5,o),
(335.659,75.426,o),
(362.27,243.426,cs),
(388.863,411.426,ls),
(401.107,491.426,o),
(493.286,569.447,o),
(610.816,587.447,c)
);
},
{
closed = 1;
nodes = (
(132.638,588,l),
(607.638,588,l),
(624.784,710,l),
(149.784,710,l)
);
},
{
closed = 1;
nodes = (
(101.508,274,l),
(543.508,274,l),
(560.373,394,l),
(118.373,394,l)
);
}
);
width = 600;
},
{
layerId = "772FC93F-B3B8-447D-A30A-419E2FCA5167";
shapes = (
{
closed = 1;
nodes = (
(624.784,710,l),
(472.784,710,l),
(455.686,606.42,l),
(359.718,592.42,o),
(287.145,513.847,o),
(269.107,406.847,cs),
(241.744,247.847,ls),
(221.441,131.847,o),
(184.08,90,o),
(101.08,90,cs),
(47.649,90,l),
(34.297,-5,l),
(110.866,-5,ls),
(249.866,-5,o),
(317.427,70.139,o),
(347.501,252.152,cs),
(374.269,414.152,ls),
(389.8,508.145,o),
(485.065,587.399,o),
(613.859,614.399,c)
);
},
{
closed = 1;
nodes = (
(143.433,615,l),
(611.433,615,l),
(624.784,710,l),
(156.784,710,l)
);
},
{
closed = 1;
nodes = (
(108.616,289,l),
(542.616,289,l),
(555.687,382,l),
(121.687,382,l)
);
}
);
width = 600;
},
{
layerId = "ADDB71F6-EC09-4DA0-80DB-A822AEA2EE7D";
shapes = (
{
closed = 1;
nodes = (
(624.784,710,l),
(519.784,710,l),
(511.436,659.217,l),
(397.765,640.217,o),
(321.442,558.284,o),
(302.296,436.284,cs),
(275.541,267.284,ls),
(250.476,110.284,o),
(197.393,40,o),
(103.393,40,cs),
(50.622,40,l),
(44.297,-5,l),
(99.526,-5,ls),
(224.526,-5,o),
(293.259,81.72,o),
(322.225,264.716,cs),
(348.974,433.716,ls),
(368.682,559.716,o),
(450.848,630.739,o),
(619.626,664.739,c)
);
},
{
closed = 1;
nodes = (
(165.46,665,l),
(618.46,665,l),
(624.784,710,l),
(171.784,710,l)
);
},
{
closed = 1;
nodes = (
(122.411,316,l),
(539.411,316,l),
(545.735,361,l),
(128.735,361,l)
);
}
);
width = 600;
},
{
layerId = "D03DF296-8133-4A96-B1BA-CFDB09DF42C8";
shapes = (
{
closed = 1;
nodes = (
(624.784,710,l),
(481.385,710,l),
(465.888,616.082,l),
(366.681,601.167,o),
(293.421,521.98,o),
(275.18,412.234,cs),
(247.929,251.404,ls),
(226.755,127.901,o),
(186.516,80.85,o),
(101.503,80.85,cs),
(48.193,80.85,l),
(36.127,-5,l),
(108.791,-5,ls),
(245.229,-5,o),
(313.004,72.259,o),
(342.875,254.452,cs),
(369.64,417.733,ls),
(385.935,517.583,o),
(478.803,595.33,o),
(614.915,623.611,c)
);
},
{
closed = 1;
nodes = (
(147.464,624.15,l),
(612.719,624.15,l),
(624.784,710,l),
(159.529,710,l)
);
},
{
closed = 1;
nodes = (
(111.141,293.941,l),
(542.03,293.941,l),
(553.865,378.157,l),
(122.977,378.157,l)
);
}
);
width = 600;
}
);
unicode = 70;
},
{
glyphname = Fhook;
layers = (
{
anchors = (
{
name = bottom;
pos = (265.735,-194);
}
);
layerId = "1A7FA7F6-774C-4A69-BC02-C84AF7C361B9";
shapes = (
{
closed = 1;
nodes = (
(-53.73,-240,l),
(-7.316,-239.14,ls),
(121.387,-234.14,o),
(185.673,-180.574,o),
(205.803,-51.574,cs),
(226.93,92,l),
(95.93,92,l),
(74.251,-40.426,ls),
(66.365,-89.426,o),
(38.132,-117.924,o),
(-9.008,-118.924,c),
(-36.865,-120,l)
);
},
{
closed = 1;
nodes = (
(81,0,l),
(213,0,l),
(324.784,710,l),
(192.784,710,l)
);
},
{
closed = 1;
nodes = (
(154.103,264,l),
(512.103,264,l),
(529.389,387,l),
(173.389,387,l)
);
},
{
closed = 1;
nodes = (
(204.779,589,l),
(620.779,589,l),
(637.784,710,l),
(223.784,710,l)
);
}
);
width = 600;
},
{
anchors = (
{
name = bottom;
pos = (265.735,-194);
}
);
layerId = "772FC93F-B3B8-447D-A30A-419E2FCA5167";
shapes = (
{
closed = 1;
nodes = (
(-56.449,-238,l),
(-17.353,-234.207,ls),
(93.771,-226.207,o),
(170.254,-161.848,o),
(185.854,-50.848,cs),
(206.93,92,l),
(103.93,92,l),
(82.687,-37.153,ls),
(72.816,-93.153,o),
(37.492,-127.727,o),
(-15.211,-132.727,c),
(-46.254,-137,l)
);
},
{
closed = 1;
nodes = (
(89,0,l),
(193,0,l),
(305.784,710,l),
(201.784,710,l)
);
},
{
closed = 1;
nodes = (
(164.07,278,l),
(514.07,278,l),
(527.422,373,l),
(179.422,373,l)
);
},
{
closed = 1;
nodes = (
(217.433,615,l),
(616.433,615,l),
(629.784,710,l),
(232.784,710,l)
);
}
);
width = 600;
},
{
anchors = (
{
name = bottom;
pos = (265.735,-194);
}
);
layerId = "ADDB71F6-EC09-4DA0-80DB-A822AEA2EE7D";
shapes = (
{
closed = 1;
nodes = (
(-53.887,-234,l),
(-33.269,-231.164,l),
(77.698,-217.164,o),
(124.342,-161.285,o),
(143.894,-29.285,cs),
(161.93,92,l),
(115.93,92,l),
(96.222,-26.716,ls),
(79.605,-130.716,o),
(45.21,-174.835,o),
(-33.195,-184.835,c),
(-51.422,-188,l)
);
},
{
closed = 1;
nodes = (
(101,0,l),
(148,0,l),
(260.784,710,l),
(213.784,710,l)
);
},
{
closed = 1;
nodes = (
(179.584,303,l),
(516.584,303,l),
(522.908,348,l),
(186.908,348,l)
);
},
{
closed = 1;
nodes = (
(236.46,665,l),
(611.46,665,l),
(617.784,710,l),
(243.784,710,l)
);
}
);
width = 600;
},
{
anchors = (
{
name = bottom;
pos = (265.735,-194);
}
);
layerId = "D03DF296-8133-4A96-B1BA-CFDB09DF42C8";
shapes = (
{
closed = 1;
nodes = (
(-55.98,-237.268,l),
(-20.266,-233.65,l),
(90.83,-224.552,o),
(161.852,-161.745,o),
(178.175,-46.902,cs),
(198.694,92,l),
(106.126,92,l),
(85.164,-35.243,ls),
(74.059,-100.028,o),
(38.904,-136.348,o),
(-18.502,-142.263,c),
(-47.2,-146.333,l)
);
},
{
closed = 1;
nodes = (
(91.196,0,l),
(184.765,0,l),
(297.549,710,l),
(203.98,710,l)
);
},
{
closed = 1;
nodes = (
(166.909,282.575,l),
(514.53,282.575,l),
(526.596,368.425,l),
(180.792,368.425,l)
);
},
{
closed = 1;
nodes = (
(220.915,624.15,l),
(615.523,624.15,l),
(627.588,710,l),
(234.797,710,l)
);
}
);
width = 600;
}
);
unicode = 401;
},
{
glyphname = G;
layers = (
{
layerId = "1A7FA7F6-774C-4A69-BC02-C84AF7C361B9";
shapes = (
{
closed = 1;
nodes = (
(240.894,720,o),
(106.703,595.574,o),
(77.189,385.574,cs),
(48.94,184.574,o),
(136.009,62,o),
(302.009,62,cs),
(358.009,62,o),
(406.088,73.945,o),
(446.742,99.945,c),
(464.185,219.171,l),
(426.531,193.171,o),
(376.424,183,o),
(343.424,183,cs),
(241.424,183,o),
(196.054,249.426,o),
(215.168,385.426,cs),
(233.157,513.426,o),
(313.917,595,o),
(418.917,595,cs),
(467.917,595,o),
(507.397,579.925,o),
(533.791,532.925,c),
(626.902,624.003,l),
(596.335,684.003,o),
(523.894,720,o),
(428.894,720,cs)
);
},
{
closed = 1;
nodes = (
(552.497,217,l),
(466.497,217,l),
(407.287,123,l),
(395.453,53.573,ls),
(381.366,-32.427,o),
(322.462,-80,o),
(233.462,-80,cs),
(195.462,-80,o),
(143.732,-73.667,o),
(92.808,-44.667,c),
(41.461,-167.538,l),
(95.807,-193.538,o),
(160.484,-205,o),
(217.484,-205,cs),
(395.484,-205,o),
(498.83,-115.574,o),
(528.268,65.426,cs)
);
}
);
width = 600;
},
{
layerId = "772FC93F-B3B8-447D-A30A-419E2FCA5167";
shapes = (
{
closed = 1;
nodes = (
(247.62,720,o),
(120.319,592.848,o),
(90.525,380.848,cs),
(63.541,188.848,o),
(145.704,65,o),
(307.704,65,cs),
(358.704,65,o),
(408.787,76.303,o),
(443.019,99.303,c),
(470.048,199.753,l),
(424.551,167.753,o),
(380.496,157,o),
(333.496,157,cs),
(222.496,157,o),
(177.751,240.152,o),
(197.567,381.152,cs),
(218.789,532.152,o),
(303.829,628,o),
(419.829,628,cs),
(478.829,628,o),
(518.117,603.452,o),
(537.933,559.452,c),
(621.163,630.664,l),
(591.612,683.664,o),
(526.62,720,o),
(430.62,720,cs)
);
},
{
closed = 1;
nodes = (
(539.827,198,l),
(471.827,198,l),
(430.908,163,l),
(410.543,39.848,ls),
(396.034,-49.152,o),
(338.971,-110,o),
(244.971,-110,cs),
(193.971,-110,o),
(143.469,-101.274,o),
(96.983,-76.274,c),
(60.012,-165.744,l),
(113.077,-193.744,o),
(168.758,-205,o),
(232.758,-205,cs),
(393.758,-205,o),
(490.048,-113.848,o),
(515.254,44.152,cs)
);
}
);
width = 600;
},
{
layerId = "ADDB71F6-EC09-4DA0-80DB-A822AEA2EE7D";
shapes = (
{
closed = 1;
nodes = (
(262.961,720,o),
(130.381,593.285,o),
(101.148,385.285,cs),
(72.9,184.285,o),
(155.785,68,o),
(314.785,68,cs),
(387.785,68,o),
(448.557,90.117,o),
(491.617,126.117,c),
(505.937,176.853,l),
(455.315,136.853,o),
(397.652,113,o),
(319.652,113,cs),
(187.652,113,o),
(123.911,205.715,o),
(148.928,383.715,cs),
(174.647,566.715,o),
(286.094,675,o),
(428.094,675,cs),
(501.094,675,o),
(546.508,653.033,o),
(574.043,607.033,c),
(610.762,636.992,l),
(573.773,693.992,o),
(513.961,720,o),
(432.961,720,cs)
);
},
{
closed = 1;
nodes = (
(529.735,176,l),
(506.735,176,l),
(477.254,137,l),
(461.915,42.284,ls),
(439.942,-92.716,o),
(367.285,-160,o),
(238.285,-160,cs),
(185.285,-160,o),
(135.599,-151.574,o),
(89.112,-126.574,c),
(70.428,-168.426,l),
(122.493,-196.426,o),
(182.418,-205,o),
(234.418,-205,cs),
(390.418,-205,o),
(480.844,-122.284,o),
(507.612,39.716,cs)
);
}
);
width = 600;
},
{
layerId = "D03DF296-8133-4A96-B1BA-CFDB09DF42C8";
shapes = (
{
closed = 1;
nodes = (
(250.428,720,o),
(122.161,592.928,o),
(92.469,381.66,cs),
(65.254,188.013,o),
(147.549,65.549,o),
(309,65.549,cs),
(364.026,65.549,o),
(416.065,78.831,o),
(451.913,104.21,c),
(476.616,195.562,l),
(430.181,162.098,o),
(383.636,148.948,o),
(330.962,148.948,cs),
(216.119,148.948,o),
(167.898,233.85,o),
(188.666,381.621,cs),
(210.711,538.477,o),
(300.583,636.601,o),
(421.341,636.601,cs),
(482.903,636.601,o),
(523.312,612.526,o),
(544.541,568.16,c),
(619.26,631.822,l),
(588.347,685.554,o),
(524.303,720,o),
(431.049,720,cs)
);
},
{
closed = 1;
nodes = (
(537.98,193.974,l),
(478.215,193.974,l),
(439.39,158.242,l),
(419.944,40.294,ls),
(404.07,-57.125,o),
(344.153,-119.15,o),
(243.748,-119.15,cs),
(192.382,-119.15,o),
(142.029,-110.479,o),
(95.542,-85.479,c),
(61.918,-166.235,l),
(114.8,-194.235,o),
(171.258,-205,o),
(233.062,-205,cs),
(393.147,-205,o),
(488.364,-115.392,o),
(513.855,43.34,cs)
);
}
);
width = 600;
}
);
unicode = 71;
},
{
glyphname = H;
layers = (
{
layerId = "1A7FA7F6-774C-4A69-BC02-C84AF7C361B9";
shapes = (
{
closed = 1;
nodes = (
(364,0,l),
(496,0,l),
(607.784,710,l),
(475.784,710,l)
);
},
{
closed = 1;
nodes = (
(18,0,l),
(150,0,l),
(261.784,710,l),
(129.784,710,l)
);
},
{
closed = 1;
nodes = (
(164.86,318.012,l),
(316.763,360.012,o),
(407.256,265.574,o),
(376.131,72.574,c),
(439.697,69,l),
(476.097,328,l),
(403.194,324.453,l),
(404.827,421.453,o),
(288.298,472.965,o),
(177.082,442.965,c)
);
}
);
width = 600;
},
{
layerId = "772FC93F-B3B8-447D-A30A-419E2FCA5167";
shapes = (
{
closed = 1;
nodes = (
(383,0,l),
(487,0,l),
(598.784,710,l),
(494.784,710,l)
);
},
{
closed = 1;
nodes = (
(27,0,l),
(131,0,l),
(242.784,710,l),
(138.784,710,l)
);
},
{
closed = 1;
nodes = (
(153.59,335.238,l),
(321.914,380.238,o),
(424.898,269.848,o),
(395.633,75.848,c),
(449.259,73,l),
(480.6,296,l),
(417.583,293.238,l),
(405.621,400.238,o),
(293.687,463.722,o),
(163.049,430.722,c)
);
}
);
width = 600;
},
{
layerId = "ADDB71F6-EC09-4DA0-80DB-A822AEA2EE7D";
shapes = (
{
closed = 1;
nodes = (
(428,0,l),
(475,0,l),
(586.784,710,l),
(539.784,710,l)
);
},
{
closed = 1;
nodes = (
(39,0,l),
(86,0,l),
(197.784,710,l),
(150.784,710,l)
);
},
{
closed = 1;
nodes = (
(132.582,365.676,l),
(331.609,415.676,o),
(472.935,284.284,o),
(442.389,88.284,c),
(472.227,87,l),
(493.449,238,l),
(458.959,236.758,l),
(442.948,364.758,o),
(310.228,451.29,o),
(136.747,412.29,c)
);
}
);
width = 600;
},
{
layerId = "D03DF296-8133-4A96-B1BA-CFDB09DF42C8";
shapes = (
{
closed = 1;
nodes = (
(391.235,0,l),
(484.804,0,l),
(596.588,710,l),
(503.019,710,l)
);
},
{
closed = 1;
nodes = (
(29.196,0,l),
(122.765,0,l),
(234.549,710,l),
(140.98,710,l)
);
},
{
closed = 1;
nodes = (
(149.745,340.808,l),
(323.688,386.723,o),
(433.689,272.49,o),
(404.19,78.124,c),
(453.463,75.562,l),
(482.951,285.386,l),
(425.155,282.902,l),
(412.452,393.745,o),
(296.714,461.447,o),
(158.235,427.349,c)
);
}
);
width = 600;
}
);
unicode = 72;
},
{
glyphname = I;
layers = (
{
anchors = (
{
name = top;
pos = (378.784,710);
}
);
layerId = "1A7FA7F6-774C-4A69-BC02-C84AF7C361B9";
shapes = (
{
closed = 1;
nodes = (
(357.71,298.066,l),
(275.942,321.066,o),
(228.2,371.426,o),
(241.411,465.426,cs),
(252.233,542.426,o),
(303.198,597,o),
(364.198,597,cs),
(434.198,597,o),
(457.584,523.574,o),
(439.032,391.574,cs),
(413.032,206.574,o),
(336.867,115,o),
(199.867,115,cs),
(128.633,113.62,o),
(61.145,143.62,q),
(18.815,19.13,l),
(102.181,-8.82,o),
(183.896,-9.951,qs),
(406.89,-10,o),
(535.908,127.426,o),
(572.168,385.426,cs),
(602.384,600.426,o),
(531.894,720,o),
(376.894,720,cs),
(230.894,720,o),
(129.957,618.574,o),
(109.594,466.574,cs),
(89.514,316.574,o),
(183.397,214.84,o),
(299.321,185.84,c)
);
}
);
width = 600;
},
{
anchors = (
{
name = top;
pos = (376.784,710);
}
);
layerId = "772FC93F-B3B8-447D-A30A-419E2FCA5167";
shapes = (
{
closed = 1;
nodes = (
(347.947,273.084,l),
(249.866,308.084,o),
(211.021,370.152,o),
(225.076,470.152,cs),
(238.427,565.152,o),
(293.548,626,o),
(363.548,626,cs),
(442.548,626,o),
(473.119,555.848,o),
(451.617,402.848,cs),
(421.119,185.848,o),
(336.377,85,o),
(189.377,85,cs),
(117.884,83.78,o),
(56.81,114.78,q),
(22.752,24.122,l),
(97.688,-8.84,o),
(181.169,-9.962,qs),
(392.164,-10,o),
(517.589,125.152,o),
(556.378,401.152,cs),
(585.47,608.152,o),
(518.62,720,o),
(375.62,720,cs),
(243.62,720,o),
(143.817,624.848,o),
(122.736,474.848,cs),
(102.779,332.848,o),
(175.03,231.895,o),
(301.846,187.895,c)
);
}
);
width = 600;
},
{
anchors = (
{
name = top;
pos = (371.784,710);
}
);
layerId = "ADDB71F6-EC09-4DA0-80DB-A822AEA2EE7D";
shapes = (
{
closed = 1;
nodes = (
(338.359,238.638,l),
(217.559,275.638,o),
(164.571,352.715,o),
(182.42,479.715,cs),
(199.285,599.715,o),
(270.953,674,o),
(367.953,674,cs),
(474.953,674,o),
(515.116,584.285,o),
(488.835,397.285,cs),
(457.775,176.285,o),
(361.831,36,o),
(183.831,36,cs),
(101.673,35.367,o),
(44.82,70.367,q),
(23.968,27.594,l),
(90.998,-9.398,o),
(178.824,-9.991,qs),
(385.823,-10,o),
(501.041,149.715,o),
(535.474,394.715,cs),
(566.112,612.715,o),
(504.961,720,o),
(371.961,720,cs),
(246.961,720,o),
(157.019,626.285,o),
(136.5,480.285,cs),
(116.683,339.285,o),
(180.818,239.368,o),
(318.775,196.368,c)
);
}
);
width = 600;
},
{
anchors = (
{
name = top;
pos = (375.869,710);
}
);
layerId = "D03DF296-8133-4A96-B1BA-CFDB09DF42C8";
shapes = (
{
closed = 1;
nodes = (
(346.192,266.78,l),
(243.954,302.146,o),
(202.521,366.961,o),
(217.269,471.902,cs),
(231.264,571.477,o),
(289.413,634.784,o),
(364.354,634.784,cs),
(448.478,634.784,o),
(480.805,561.052,o),
(458.428,401.83,cs),
(427.828,184.098,o),
(341.035,76.033,o),
(188.362,76.033,cs),
(114.917,74.92,o),
(54.616,106.652,q),
(22.974,24.757,l),
(96.464,-8.942,o),
(180.74,-9.967,qs),
(391.003,-10,o),
(514.561,129.647,o),
(552.553,399.974,cs),
(581.927,608.987,o),
(516.12,720,o),
(374.951,720,cs),
(244.232,720,o),
(146.233,625.111,o),
(125.254,475.843,cs),
(105.323,334.026,o),
(176.089,233.262,o),
(304.944,189.445,c)
);
}
);
width = 600;
}
);
unicode = 73;
},
{
glyphname = IJ;
layers = (
{
layerId = "D03DF296-8133-4A96-B1BA-CFDB09DF42C8";
shapes = (
{
closed = 1;
nodes = (
(592.588,710,l),
(499.019,710,l),
(392.848,40.294,ls),
(377.156,-57.125,o),
(314.238,-119.15,o),
(206.833,-119.15,cs),
(151.467,-119.15,o),
(99.093,-110.41,o),
(48.607,-85.41,c),
(15.017,-166.283,l),
(71.082,-194.283,o),
(131.343,-205,o),
(196.147,-205,cs),
(362.415,-205,o),
(461.631,-115.392,o),
(486.939,43.34,cs)
);
},
{
closed = 1;
nodes = (
(139.98,710,l),
(69.843,268.124,ls),
(48.289,130.294,o),
(98.258,56.268,o),
(215.258,56.268,cs),
(265.624,56.268,o),
(309.595,68.284,o),
(350.799,92.382,c),
(329.277,173.204,l),
(303.988,157.008,o),
(271.258,143.752,o),
(238.428,143.752,cs),
(172.572,143.752,o),
(151.078,188.203,o),
(167.749,292.595,cs),
(233.549,710,l)
);
}
);
width = 600;
},
{
layerId = "ADDB71F6-EC09-4DA0-80DB-A822AEA2EE7D";
shapes = (
{
closed = 1;
nodes = (
(582.784,710,l),
(535.784,710,l),
(429.924,42.284,ls),
(408.951,-92.716,o),
(333.285,-160,o),
(197.285,-160,cs),
(140.285,-160,o),
(88.587,-151.54,o),
(38.101,-126.54,c),
(19.438,-168.457,l),
(75.503,-196.457,o),
(138.418,-205,o),
(193.418,-205,cs),
(356.418,-205,o),
(450.837,-122.284,o),
(476.604,39.716,cs)
);
},
{
closed = 1;
nodes = (
(149.784,710,l),
(81.085,278.284,ls),
(57.566,132.284,o),
(114.677,53,o),
(231.677,53,cs),
(283.677,53,o),
(326.412,67.208,o),
(367.488,96.208,c),
(351.133,135.81,l),
(315.479,109.81,o),
(276.544,98,o),
(235.544,98,cs),
(143.544,98,o),
(108.483,152.716,o),
(127.91,276.716,cs),
(196.784,710,l)
);
}
);
width = 600;
},
{
layerId = "772FC93F-B3B8-447D-A30A-419E2FCA5167";
shapes = (
{
closed = 1;
nodes = (
(594.784,710,l),
(490.784,710,l),
(384.543,39.848,ls),
(370.034,-49.152,o),
(309.971,-110,o),
(208.971,-110,cs),
(153.971,-110,o),
(101.446,-101.197,o),
(50.96,-76.197,c),
(14.027,-165.795,l),
(70.092,-193.795,o),
(129.758,-205,o),
(196.758,-205,cs),
(363.758,-205,o),
(464.048,-113.848,o),
(489.254,44.152,cs)
);
},
{
closed = 1;
nodes = (
(137.784,710,l),
(67.325,265.848,ls),
(46.211,129.848,o),
(94.58,57,o),
(211.58,57,cs),
(261.58,57,o),
(305.828,68.525,o),
(347.061,91.525,c),
(324.382,181.58,l),
(301.414,167.58,o),
(270.074,154,o),
(239.074,154,cs),
(179.074,154,o),
(160.619,196.152,o),
(176.673,296.152,cs),
(241.784,710,l)
);
}
);
width = 600;
},
{
layerId = "1A7FA7F6-774C-4A69-BC02-C84AF7C361B9";
shapes = (
{
closed = 1;
nodes = (
(603.784,710,l),
(471.784,710,l),
(368.491,53.574,ls),
(355.405,-32.426,o),
(294.462,-80,o),
(202.462,-80,cs),
(164.462,-80,o),
(108.724,-73.644,o),
(56.8,-44.644,c),
(5.472,-167.579,l),
(61.818,-193.579,o),
(127.484,-205,o),
(186.484,-205,cs),
(367.484,-205,o),
(473.812,-115.574,o),
(502.25,65.426,cs)
);
},
{
closed = 1;
nodes = (
(129.784,710,l),
(57.447,252.574,ls),
(37.036,121.574,o),
(102.744,53,o),
(213.744,53,cs),
(261.744,53,o),
(305.599,63.842,o),
(342.112,88.842,c),
(323.352,199.145,l),
(296.822,181.145,o),
(269.159,174,o),
(250.159,174,cs),
(199.159,174,o),
(182.648,210.426,o),
(197.156,299.426,cs),
(261.784,710,l)
);
}
);
width = 600;
}
);
unicode = 306;
},
{
glyphname = J;
layers = (
{
anchors = (
{
name = top;
pos = (400.784,710);
}
);
layerId = "1A7FA7F6-774C-4A69-BC02-C84AF7C361B9";
shapes = (
{
closed = 1;
nodes = (
(336.254,208.736,l),
(223.578,253.736,o),
(179.422,337.426,o),
(194.038,441.426,cs),
(206.406,529.426,o),
(267.058,596,o),
(338.058,596,cs),
(404.058,596,o),
(438.415,544.572,o),
(418.955,434.572,cs),
(358.905,92.573,ls),
(337.337,-32.427,o),
(297.462,-80,o),
(219.462,-80,cs),
(166.3,-81.631,o),
(119.249,-55.631,q),
(71.354,-175.604,l),
(136.723,-203.534,o),
(207.494,-204.93,qs),
(363.484,-205,o),
(453.74,-116.572,o),
(487.021,70.428,cs),
(550.621,430.428,ls),
(582.918,610.428,o),
(505.894,720,o),
(353.894,720,cs),
(199.894,720,o),
(86.092,612.574,o),
(62.762,446.574,cs),
(40.556,288.574,o),
(121.895,155.303,o),
(274.041,92.303,c)
);
}
);
width = 600;
},
{
anchors = (
{
name = top;
pos = (399.784,710);
}
);
layerId = "772FC93F-B3B8-447D-A30A-419E2FCA5167";
shapes = (
{
closed = 1;
nodes = (
(345.891,186.927,l),
(234.637,234.927,o),
(168.978,327.152,o),
(186.546,452.152,cs),
(200.319,550.152,o),
(263.548,626,o),
(348.548,626,cs),
(429.548,626,o),
(461.59,559.847,o),
(441.849,447.847,cs),
(376.735,69.847,ls),
(355.027,-56.153,o),
(304.971,-110,o),
(215.971,-110,cs),
(156.578,-111.504,o),
(116.942,-84.504,q),
(80.747,-174.744,l),
(138.247,-203.694,o),
(210.765,-204.951,qs),
(356.758,-205,o),
(447.668,-116.847,o),
(477.701,54.153,cs),
(546.216,449.153,ls),
(575.967,618.153,o),
(503.62,720,o),
(359.62,720,cs),
(197.62,720,o),
(104.882,596.848,o),
(85.065,455.848,cs),
(61.736,289.848,o),
(156.87,160.103,o),
(298.016,97.103,c)
);
}
);
width = 600;
},
{
anchors = (
{
name = top;
pos = (398.784,710);
}
);
layerId = "ADDB71F6-EC09-4DA0-80DB-A822AEA2EE7D";
shapes = (
{
closed = 1;
nodes = (
(348.56,154.601,l),
(202.587,204.601,o),
(129.652,317.715,o),
(149.89,461.715,cs),
(168.16,591.715,o),
(252.094,675,o),
(360.094,675,cs),
(464.094,675,o),
(511.763,596.284,o),
(490.195,471.284,cs),
(415.92,35.284,ls),
(393.931,-92.716,o),
(324.285,-160,o),
(216.285,-160,cs),
(157.1,-160.558,o),
(110.701,-136.558,q),
(92.044,-178.496,l),
(150.62,-204.486,o),
(212.419,-204.99,qs),
(345.418,-205,o),
(436.135,-120.284,o),
(462.638,32.716,cs),
(536.914,468.716,ls),
(563.417,621.716,o),
(494.961,720,o),
(363.961,720,cs),
(229.961,720,o),
(125.894,618.285,o),
(104.251,464.285,cs),
(81.624,303.285,o),
(163.533,173.425,o),
(328.96,112.425,c)
);
}
);
width = 600;
},
{
anchors = (
{
name = top;
pos = (399.601,710);
}
);
layerId = "D03DF296-8133-4A96-B1BA-CFDB09DF42C8";
shapes = (
{
closed = 1;
nodes = (
(346.379,181.011,l),
(228.772,229.377,o),
(161.781,325.425,o),
(179.837,453.902,cs),
(194.434,557.758,o),
(261.452,634.967,o),
(350.661,634.967,cs),
(435.87,634.967,o),
(470.772,566.515,o),
(450.697,452.136,cs),
(383.906,63.522,ls),
(362.146,-62.844,o),
(308.506,-119.15,o),
(216.029,-119.15,cs),
(156.674,-120.481,o),
(115.8,-94.03,q),
(82.815,-175.43,l),
(140.511,-203.839,o),
(211.068,-204.958,qs),
(354.683,-205,o),
(445.558,-117.476,o),
(474.944,50.23,cs),
(544.513,452.734,ls),
(573.67,618.805,o),
(502.036,720,o),
(360.415,720,cs),
(203.539,720,o),
(108.727,600.771,o),
(88.576,457.392,cs),
(65.375,292.307,o),
(158.089,162.541,o),
(303.679,99.907,c)
);
}
);
width = 600;
}
);
unicode = 74;
},
{
glyphname = K;
layers = (
{
layerId = "1A7FA7F6-774C-4A69-BC02-C84AF7C361B9";
shapes = (
{
closed = 1;
nodes = (
(135.057,226,l),
(399.057,226,o),
(585.777,453.426,o),
(625.334,706.426,c),
(492.231,713.574,l),
(464.074,534.574,o),
(348.018,358,o),
(158.018,358,c)
);
},
{
closed = 1;
nodes = (
(24,0,l),
(156,0,l),
(267.784,710,l),
(135.784,710,l)
);
},
{
closed = 1;
nodes = (
(385,0,l),
(548,0,l),
(423.438,366,l),
(292.13,314,l)
);
}
);
width = 600;
},
{
layerId = "772FC93F-B3B8-447D-A30A-419E2FCA5167";
shapes = (
{
closed = 1;
nodes = (
(134.331,226,l),
(393.331,226,o),
(577.868,454.152,o),
(617.424,707.152,c),
(515.145,712.848,l),
(484.599,516.848,o),
(359.107,325,o),
(154.107,325,c)
);
},
{
closed = 1;
nodes = (
(34,0,l),
(138,0,l),
(249.784,710,l),
(145.784,710,l)
);
},
{
closed = 1;
nodes = (
(419,0,l),
(540,0,l),
(391.795,397,l),
(293.627,346,l)
);
}
);
width = 600;
},
{
layerId = "ADDB71F6-EC09-4DA0-80DB-A822AEA2EE7D";
shapes = (
{
closed = 1;
nodes = (
(118.802,246,l),
(383.802,246,o),
(559.165,413.716,o),
(605.624,708.716,c),
(557.937,711.284,l),
(514.412,444.284,o),
(359.669,291,o),
(131.669,291,c)
);
},
{
closed = 1;
nodes = (
(45,0,l),
(92,0,l),
(203.784,710,l),
(156.784,710,l)
);
},
{
closed = 1;
nodes = (
(471,0,l),
(527,0,l),
(404.892,355,l),
(359.676,325,l)
);
}
);
width = 600;
},
{
layerId = "D03DF296-8133-4A96-B1BA-CFDB09DF42C8";
shapes = (
{
closed = 1;
nodes = (
(131.489,229.66,l),
(391.587,229.66,o),
(574.445,446.752,o),
(615.265,707.438,c),
(522.976,712.562,l),
(490.055,503.568,o),
(359.21,318.778,o),
(150,318.778,c)
);
},
{
closed = 1;
nodes = (
(36.013,0,l),
(129.582,0,l),
(241.366,710,l),
(147.797,710,l)
);
},
{
closed = 1;
nodes = (
(428.516,0,l),
(537.621,0,l),
(394.192,389.314,l),
(305.714,342.157,l)
);
}
);
width = 600;
}
);
unicode = 75;
},
{
glyphname = L;
layers = (
{
layerId = "1A7FA7F6-774C-4A69-BC02-C84AF7C361B9";
shapes = (
{
closed = 1;
nodes = (
(448.192,715,ls),
(307.192,715,o),
(216.739,624.574,o),
(191.128,456.574,cs),
(168.879,312.574,ls),
(146.204,184.633,o),
(51.742,124.059,q),
(37,0,l),
(172,0,l),
(191.395,118.922,l),
(283.308,175.348,o),
(301.611,310.426,qs),
(321.675,438.426,ls),
(339.696,552.426,o),
(373.636,593,o),
(448.636,593,cs),
(517.341,593,l),
(534.487,715,l)
);
},
{
closed = 1;
nodes = (
(95,0,l),
(518,0,l),
(535.146,122,l),
(112.146,122,l)
);
}
);
width = 600;
},
{
layerId = "772FC93F-B3B8-447D-A30A-419E2FCA5167";
shapes = (
{
closed = 1;
nodes = (
(452.918,715,ls),
(312.918,715,o),
(230.474,629.848,o),
(203.442,458.848,cs),
(177.946,298.848,ls),
(153.234,159.455,o),
(52.456,96.607,q),
(41,0,l),
(152,0,l),
(167.078,93.187,l),
(262.656,161.338,o),
(282.746,304.152,qs),
(303.899,440.152,ls),
(324.029,569.152,o),
(365.704,620,o),
(451.704,620,cs),
(513.135,620,l),
(526.487,715,l)
);
},
{
closed = 1;
nodes = (
(90,0,l),
(509,0,l),
(522.351,95,l),
(103.351,95,l)
);
}
);
width = 600;
},
{
layerId = "ADDB71F6-EC09-4DA0-80DB-A822AEA2EE7D";
shapes = (
{
closed = 1;
nodes = (
(463.258,715,ls),
(333.258,715,o),
(261.698,631.284,o),
(236.492,473.284,cs),
(204.385,273.284,ls),
(177.682,111.98,o),
(65.389,45.695,q),
(60,0,l),
(119,0,l),
(126.238,44.277,l),
(225.786,104.992,o),
(251.061,270.716,qs),
(283.182,470.716,ls),
(304.874,603.716,o),
(357.391,670,o),
(458.391,670,cs),
(520.162,670,l),
(526.487,715,l)
);
},
{
closed = 1;
nodes = (
(89,0,l),
(507,0,l),
(513.324,45,l),
(95.324,45,l)
);
}
);
width = 600;
},
{
layerId = "D03DF296-8133-4A96-B1BA-CFDB09DF42C8";
shapes = (
{
closed = 1;
nodes = (
(454.81,715,ls),
(316.64,715,o),
(236.188,630.111,o),
(209.49,461.49,cs),
(182.784,294.169,ls),
(157.708,150.767,o),
(54.823,87.29,q),
(44.477,0,l),
(145.961,0,l),
(159.604,84.236,l),
(255.909,151.027,o),
(276.948,298.033,qs),
(300.108,445.745,ls),
(320.524,575.477,o),
(364.183,629.15,o),
(452.928,629.15,cs),
(514.421,629.15,l),
(526.487,715,l)
);
},
{
closed = 1;
nodes = (
(89.817,0,l),
(508.634,0,l),
(520.699,85.85,l),
(101.882,85.85,l)
);
}
);
width = 600;
}
);
unicode = 76;
},
{
glyphname = Lslash;
layers = (
{
layerId = "1A7FA7F6-774C-4A69-BC02-C84AF7C361B9";
shapes = (
{
closed = 1;
nodes = (
(22.216,215,l),
(453.043,413,l),
(471.314,543,l),
(40.487,345,l)
);
},
{
closed = 1;
nodes = (
(87,0,l),
(513,0,l),
(530.146,122,l),
(104.146,122,l)
);
},
{
closed = 1;
nodes = (
(71,0,l),
(202,0,l),
(313.784,710,l),
(182.784,710,l)
);
}
);
width = 600;
},
{
layerId = "772FC93F-B3B8-447D-A30A-419E2FCA5167";
shapes = (
{
closed = 1;
nodes = (
(23.903,227,l),
(456.416,437,l),
(469.487,530,l),
(37.114,321,l)
);
},
{
closed = 1;
nodes = (
(103,0,l),
(513,0,l),
(526.351,95,l),
(116.351,95,l)
);
},
{
closed = 1;
nodes = (
(87,0,l),
(191,0,l),
(302.784,710,l),
(198.784,710,l)
);
}
);
width = 600;
},
{
layerId = "ADDB71F6-EC09-4DA0-80DB-A822AEA2EE7D";
shapes = (
{
closed = 1;
nodes = (
(23.903,227,l),
(462.46,480,l),
(469.487,530,l),
(31.07,278,l)
);
},
{
closed = 1;
nodes = (
(151,0,l),
(501,0,l),
(507.324,45,l),
(157.324,45,l)
);
},
{
closed = 1;
nodes = (
(135,0,l),
(182,0,l),
(293.784,710,l),
(246.784,710,l)
);
}
);
width = 600;
},
{
layerId = "D03DF296-8133-4A96-B1BA-CFDB09DF42C8";
shapes = (
{
closed = 1;
nodes = (
(23.903,227,l),
(457.522,444.869,l),
(469.487,530,l),
(36.008,313.131,l)
);
},
{
closed = 1;
nodes = (
(111.784,0,l),
(510.804,0,l),
(522.869,85.85,l),
(123.85,85.85,l)
);
},
{
closed = 1;
nodes = (
(95.784,0,l),
(189.353,0,l),
(301.137,710,l),
(207.568,710,l)
);
}
);
width = 600;
}
);
unicode = 321;
},
{
glyphname = M;
layers = (
{
layerId = "1A7FA7F6-774C-4A69-BC02-C84AF7C361B9";
shapes = (
{
closed = 1;
nodes = (
(251.995,249,l),
(343.995,249,l),
(457.076,584,l),
(488.076,584,l),
(499.784,710,l),
(426.784,710,l),
(324.092,392,l),
(316.092,392,l),
(314.784,710,l),
(240.784,710,l),
(213.076,584,l),
(245.076,584,l)
);
},
{
closed = 1;
nodes = (
(2,0,l),
(125,0,l),
(248.784,710,l),
(125.784,710,l)
);
},
{
closed = 1;
nodes = (
(392,0,l),
(515,0,l),
(614.784,710,l),
(491.784,710,l)
);
}
);
width = 600;
},
{
layerId = "772FC93F-B3B8-447D-A30A-419E2FCA5167";
shapes = (
{
closed = 1;
nodes = (
(257.757,290,l),
(349.757,290,l),
(474.076,584,l),
(503.076,584,l),
(522.784,710,l),
(451.784,710,l),
(326.06,406,l),
(318.06,406,l),
(288.784,710,l),
(218.784,710,l),
(199.076,584,l),
(227.076,584,l)
);
},
{
closed = 1;
nodes = (
(10,0,l),
(110,0,l),
(234.784,710,l),
(134.784,710,l)
);
},
{
closed = 1;
nodes = (
(406,0,l),
(507,0,l),
(606.784,710,l),
(505.784,710,l)
);
}
);
width = 600;
},
{
layerId = "ADDB71F6-EC09-4DA0-80DB-A822AEA2EE7D";
shapes = (
{
closed = 1;
nodes = (
(280.378,330,l),
(340.378,330,l),
(535.6,666,l),
(556.6,666,l),
(563.784,710,l),
(513.784,710,l),
(318.562,374,l),
(316.562,374,l),
(227.784,710,l),
(186.784,710,l),
(179.6,666,l),
(191.6,666,l)
);
},
{
closed = 1;
nodes = (
(22,0,l),
(69,0,l),
(193.784,710,l),
(146.784,710,l)
);
},
{
closed = 1;
nodes = (
(447,0,l),
(494,0,l),
(593.784,710,l),
(546.784,710,l)
);
}
);
width = 600;
},
{
layerId = "D03DF296-8133-4A96-B1BA-CFDB09DF42C8";
shapes = (
{
closed = 1;
nodes = (
(261.897,297.32,l),
(348.041,297.32,l),
(485.335,599.007,l),
(512.871,599.007,l),
(530.287,710,l),
(463.13,710,l),
(324.688,400.144,l),
(317.786,400.144,l),
(277.621,710,l),
(212.928,710,l),
(195.512,599.007,l),
(220.584,599.007,l)
);
},
{
closed = 1;
nodes = (
(12.196,0,l),
(102.497,0,l),
(227.281,710,l),
(136.98,710,l)
);
},
{
closed = 1;
nodes = (
(413.503,0,l),
(504.621,0,l),
(604.405,710,l),
(513.287,710,l)
);
}
);
width = 600;
}
);
unicode = 77;
},
{
glyphname = N;
layers = (
{
anchors = (
{
name = top;
pos = (389.784,710);
}
);
layerId = "1A7FA7F6-774C-4A69-BC02-C84AF7C361B9";
shapes = (
{
closed = 1;
nodes = (
(496,0,l),
(578.473,522.426,ls),
(598.603,651.426,o),
(546.894,720,o),
(444.894,720,cs),
(339.894,720,o),
(271.263,658.56,o),
(240.29,523.56,c),
(276.2,592,l),
(220.2,592,l),
(194.103,256.426,l),
(226.773,460.426,o),
(307.479,599,o),
(390.479,599,cs),
(436.479,599,o),
(452.991,562.574,o),
(438.482,473.574,cs),
(364,0,l)
);
},
{
closed = 1;
nodes = (
(22,0,l),
(154,0,l),
(265.784,710,l),
(133.784,710,l)
);
}
);
width = 600;
},
{
anchors = (
{
name = top;
pos = (377.784,710);
}
);
layerId = "772FC93F-B3B8-447D-A30A-419E2FCA5167";
shapes = (
{
closed = 1;
nodes = (
(488,0,l),
(568.875,511.152,ls),
(589.989,647.152,o),
(541.62,720,o),
(438.62,720,cs),
(327.62,720,o),
(252.065,649.833,o),
(218.951,513.833,c),
(248.438,551,l),
(195.438,551,l),
(176.886,269.152,l),
(212.243,485.152,o),
(301.126,623,o),
(400.126,623,cs),
(457.126,623,o),
(475.581,580.848,o),
(459.527,480.848,cs),
(384,0,l)
);
},
{
closed = 1;
nodes = (
(31,0,l),
(135,0,l),
(246.784,710,l),
(142.784,710,l)
);
}
);
width = 600;
},
{
anchors = (
{
name = top;
pos = (369.784,710);
}
);
layerId = "ADDB71F6-EC09-4DA0-80DB-A822AEA2EE7D";
shapes = (
{
closed = 1;
nodes = (
(476,0,l),
(554.553,494.716,ls),
(578.072,640.716,o),
(522.961,720,o),
(412.961,720,cs),
(295.961,720,o),
(206.704,632.274,o),
(169.028,492.274,c),
(195.065,527,l),
(147.065,527,l),
(136.722,296.716,l),
(173.749,531.716,o),
(276.094,675,o),
(404.094,675,cs),
(494.094,675,o),
(527.155,620.284,o),
(507.728,496.284,cs),
(429,0,l)
);
},
{
closed = 1;
nodes = (
(43,0,l),
(90,0,l),
(201.784,710,l),
(154.784,710,l)
);
}
);
width = 600;
},
{
anchors = (
{
name = top;
pos = (376.32,710);
}
);
layerId = "D03DF296-8133-4A96-B1BA-CFDB09DF42C8";
shapes = (
{
closed = 1;
nodes = (
(485.804,0,l),
(566.254,508.144,ls),
(587.808,645.974,o),
(538.205,720,o),
(433.924,720,cs),
(321.826,720,o),
(243.764,646.62,o),
(209.815,509.888,c),
(238.67,546.608,l),
(186.585,546.608,l),
(169.536,274.197,l),
(205.198,493.674,o),
(296.545,632.516,o),
(400.852,632.516,cs),
(463.891,632.516,o),
(485.02,588.065,o),
(468.348,483.673,cs),
(392.235,0,l)
);
},
{
closed = 1;
nodes = (
(33.196,0,l),
(126.765,0,l),
(238.549,710,l),
(144.98,710,l)
);
}
);
width = 600;
}
);
unicode = 78;
},
{
glyphname = Nhookleft;
layers = (
{
layerId = "1A7FA7F6-774C-4A69-BC02-C84AF7C361B9";
shapes = (
{
closed = 1;
nodes = (
(-116.73,-240,l),
(-69.307,-239.084,ls),
(59.115,-236.084,o),
(122.647,-180.574,o),
(141.777,-51.574,cs),
(162.93,92,l),
(36.93,92,l),
(15.251,-40.426,ls),
(7.365,-89.426,o),
(-20.868,-117.929,o),
(-71.009,-118.929,c),
(-99.865,-120,l)
);
},
{
closed = 1;
nodes = (
(294,0,l),
(380,0,l),
(404.784,155,l),
(370.784,155,l),
(330.784,710,l),
(223.784,710,l),
(200,555,l),
(254,555,l)
);
},
{
closed = 1;
nodes = (
(22,0,l),
(149,0,l),
(260.784,710,l),
(133.784,710,l)
);
},
{
closed = 1;
nodes = (
(364,0,l),
(491,0,l),
(602.784,710,l),
(475.784,710,l)
);
}
);
width = 600;
},
{
layerId = "772FC93F-B3B8-447D-A30A-419E2FCA5167";
shapes = (
{
closed = 1;
nodes = (
(-115.449,-238,l),
(-72.371,-234.286,ls),
(38.175,-223.286,o),
(111.277,-161.848,o),
(127.877,-50.848,cs),
(148.93,92,l),
(45.93,92,l),
(23.687,-37.153,ls),
(13.816,-93.153,o),
(-19.058,-124.613,o),
(-71.042,-131.613,c),
(-104.395,-138,l)
);
},
{
closed = 1;
nodes = (
(348,0,l),
(393,0,l),
(419.892,170,l),
(395.892,170,l),
(276.784,710,l),
(210.784,710,l),
(182.892,540,l),
(229.892,540,l)
);
},
{
closed = 1;
nodes = (
(31,0,l),
(135,0,l),
(246.784,710,l),
(142.784,710,l)
);
},
{
closed = 1;
nodes = (
(379,0,l),
(483,0,l),
(594.784,710,l),
(490.784,710,l)
);
}
);
width = 600;
},
{
layerId = "ADDB71F6-EC09-4DA0-80DB-A822AEA2EE7D";
shapes = (
{
closed = 1;
nodes = (
(-113.887,-234,l),
(-93.279,-231.198,ls),
(18.11,-214.198,o),
(66.342,-161.285,o),
(85.894,-29.285,cs),
(103.93,92,l),
(57.93,92,l),
(38.772,-22.716,ls),
(21.156,-126.716,o),
(-14.79,-174.837,o),
(-94.196,-184.837,c),
(-111.422,-188,l)
);
},
{
closed = 1;
nodes = (
(390,0,l),
(441,0,l),
(447.184,44,l),
(427.184,44,l),
(234.784,710,l),
(176.784,710,l),
(169.6,666,l),
(198.6,666,l)
);
},
{
closed = 1;
nodes = (
(43,0,l),
(90,0,l),
(201.784,710,l),
(154.784,710,l)
);
},
{
closed = 1;
nodes = (
(424,0,l),
(471,0,l),
(582.784,710,l),
(535.784,710,l)
);
}
);
width = 600;
},
{
layerId = "D03DF296-8133-4A96-B1BA-CFDB09DF42C8";
shapes = (
{
closed = 1;
nodes = (
(-115.163,-237.268,l),
(-76.197,-233.721,ls),
(34.503,-221.623,o),
(103.054,-161.745,o),
(120.194,-46.902,cs),
(140.694,92,l),
(48.126,92,l),
(26.447,-34.511,ls),
(15.16,-99.296,o),
(-18.277,-133.804,o),
(-75.279,-141.353,c),
(-105.681,-147.15,l)
);
},
{
closed = 1;
nodes = (
(355.686,0,l),
(401.784,0,l),
(424.887,146.941,l),
(401.619,146.941,l),
(269.098,710,l),
(204.562,710,l),
(180.46,563.059,l),
(224.165,563.059,l)
);
},
{
closed = 1;
nodes = (
(33.196,0,l),
(126.765,0,l),
(238.549,710,l),
(144.98,710,l)
);
},
{
closed = 1;
nodes = (
(387.235,0,l),
(480.804,0,l),
(592.588,710,l),
(499.019,710,l)
);
}
);
width = 600;
}
);
unicode = 413;
},
{
glyphname = Eng;
layers = (
{
layerId = "1A7FA7F6-774C-4A69-BC02-C84AF7C361B9";
shapes = (
{
closed = 1;
nodes = (
(168.27,-240,l),
(273.698,-239.056,ls),
(401.979,-237.056,o),
(466.622,-180.574,o),
(484.752,-51.574,cs),
(505.93,92,l),
(381.93,92,l),
(359.251,-40.426,ls),
(351.365,-89.426,o),
(323.438,-115.786,o),
(273.016,-118.786,c),
(186.135,-120,l)
);
},
{
closed = 1;
nodes = (
(295,0,l),
(381,0,l),
(405.784,155,l),
(371.784,155,l),
(333.784,710,l),
(226.784,710,l),
(203,555,l),
(257,555,l)
);
},
{
closed = 1;
nodes = (
(23,0,l),
(150,0,l),
(263.784,710,l),
(136.784,710,l)
);
},
{
closed = 1;
nodes = (
(365,0,l),
(492,0,l),
(605.784,710,l),
(478.784,710,l)
);
}
);
width = 600;
},
{
layerId = "772FC93F-B3B8-447D-A30A-419E2FCA5167";
shapes = (
{
closed = 1;
nodes = (
(218.27,-240,l),
(285.633,-234.27,ls),
(392.038,-224.27,o),
(460.558,-159.848,o),
(476.877,-50.848,cs),
(497.93,92,l),
(395.93,92,l),
(374.309,-40.152,ls),
(365.72,-94.152,o),
(333.084,-123.605,o),
(282.1,-130.605,cs),
(223.324,-140,l)
);
},
{
closed = 1;
nodes = (
(350,0,l),
(395,0,l),
(421.892,170,l),
(397.892,170,l),
(278.784,710,l),
(212.784,710,l),
(184.892,540,l),
(231.892,540,l)
);
},
{
closed = 1;
nodes = (
(33,0,l),
(136,0,l),
(247.784,710,l),
(144.784,710,l)
);
},
{
closed = 1;
nodes = (
(381,0,l),
(484,0,l),
(596.784,710,l),
(492.784,710,l)
);
}
);
width = 600;
},
{
layerId = "ADDB71F6-EC09-4DA0-80DB-A822AEA2EE7D";
shapes = (
{
closed = 1;
nodes = (
(244.27,-240,l),
(291.713,-231.225,ls),
(401.384,-212.225,o),
(448.342,-161.285,o),
(467.894,-29.285,cs),
(485.93,92,l),
(441.93,92,l),
(422.772,-22.716,ls),
(405.156,-126.716,o),
(368.792,-170.767,o),
(290.824,-184.767,cs),
(245.735,-194,l)
);
},
{
closed = 1;
nodes = (
(392,0,l),
(443,0,l),
(449.184,44,l),
(429.184,44,l),
(236.784,710,l),
(178.784,710,l),
(171.6,666,l),
(200.6,666,l)
);
},
{
closed = 1;
nodes = (
(44,0,l),
(91,0,l),
(203.784,710,l),
(156.784,710,l)
);
},
{
closed = 1;
nodes = (
(426,0,l),
(472,0,l),
(584.784,710,l),
(537.784,710,l)
);
}
);
width = 600;
},
{
layerId = "D03DF296-8133-4A96-B1BA-CFDB09DF42C8";
shapes = (
{
closed = 1;
nodes = (
(223.028,-240,l),
(286.746,-233.713,ls),
(393.749,-222.066,o),
(458.323,-160.111,o),
(475.233,-46.902,cs),
(495.734,92,l),
(404.348,92,l),
(383.178,-36.961,ls),
(372.937,-100.112,o),
(339.619,-132.236,o),
(283.697,-140.517,cs),
(227.426,-149.882,l)
);
},
{
closed = 1;
nodes = (
(357.686,0,l),
(403.784,0,l),
(426.887,146.941,l),
(403.619,146.941,l),
(271.098,710,l),
(206.562,710,l),
(182.46,563.059,l),
(226.165,563.059,l)
);
},
{
closed = 1;
nodes = (
(35.013,0,l),
(127.765,0,l),
(239.732,710,l),
(146.98,710,l)
);
},
{
closed = 1;
nodes = (
(389.235,0,l),
(481.804,0,l),
(594.588,710,l),
(501.019,710,l)
);
}
);
width = 600;
}
);
unicode = 330;
},
{
glyphname = O;
layers = (
{
anchors = (
{
name = top;
pos = (372.784,710);
}
);
layerId = "1A7FA7F6-774C-4A69-BC02-C84AF7C361B9";
shapes = (
{
closed = 1;
nodes = (
(483.89,-10,o),
(559.373,173.426,o),
(586.076,363.426,cs),
(619.103,598.426,o),
(543.894,720,o),
(368.894,720,cs),
(142.894,720,o),
(68.005,526.574,o),
(41.443,337.574,cs),
(8.978,106.574,o),
(84.89,-10,o),
(259.89,-10,cs)
);
},
{
closed = 1;
nodes = (
(188.008,116,o),
(157.919,184.426,o),
(178.719,332.426,cs),
(191.509,423.426,o),
(230.776,594,o),
(355.776,594,cs),
(440.776,594,o),
(469.303,521.574,o),
(447.94,369.574,cs),
(434.87,276.574,o),
(397.008,116,o),
(273.008,116,cs)
);
}
);
width = 600;
},
{
anchors = (
{
name = top;
pos = (372.784,710);
}
);
layerId = "772FC93F-B3B8-447D-A30A-419E2FCA5167";
shapes = (
{
closed = 1;
nodes = (
(480.164,-10,o),
(551.319,180.152,o),
(577.319,365.152,cs),
(610.346,600.152,o),
(539.62,720,o),
(369.62,720,cs),
(146.62,720,o),
(74.919,518.848,o),
(49.2,335.848,cs),
(16.876,105.848,o),
(89.164,-10,o),
(259.164,-10,cs)
);
},
{
closed = 1;
nodes = (
(168.955,82,o),
(131.929,163.152,o),
(155.681,332.152,cs),
(170.719,439.152,o),
(214.829,628,o),
(359.829,628,cs),
(460.829,628,o),
(496.573,544.848,o),
(471.979,369.848,cs),
(456.66,260.848,o),
(412.955,82,o),
(268.955,82,cs)
);
}
);
width = 600;
},
{
anchors = (
{
name = top;
pos = (372.784,710);
}
);
layerId = "ADDB71F6-EC09-4DA0-80DB-A822AEA2EE7D";
shapes = (
{
closed = 1;
nodes = (
(473.823,-10,o),
(541.944,191.715,o),
(566.679,367.715,cs),
(599.566,601.715,o),
(532.961,720,o),
(370.961,720,cs),
(153.961,720,o),
(85.575,509.285,o),
(60.981,334.285,cs),
(28.656,104.285,o),
(95.823,-10,o),
(257.823,-10,cs)
);
},
{
closed = 1;
nodes = (
(131.69,35,o),
(80.792,133.715,o),
(108.76,332.715,cs),
(128.576,473.715,o),
(184.094,675,o),
(366.094,675,cs),
(497.094,675,o),
(547.71,574.285,o),
(518.9,369.285,cs),
(498.943,227.285,o),
(442.69,35,o),
(262.69,35,cs)
);
}
);
width = 600;
},
{
anchors = (
{
name = top;
pos = (372.784,710);
}
);
layerId = "D03DF296-8133-4A96-B1BA-CFDB09DF42C8";
shapes = (
{
closed = 1;
nodes = (
(479.003,-10,o),
(549.603,182.268,o),
(575.372,365.621,cs),
(608.373,600.438,o),
(538.402,720,o),
(369.866,720,cs),
(147.964,720,o),
(76.869,517.098,o),
(51.356,335.562,cs),
(19.032,105.562,o),
(90.382,-10,o),
(258.918,-10,cs)
);
},
{
closed = 1;
nodes = (
(162.135,73.399,o),
(122.571,157.765,o),
(147.094,332.255,cs),
(163.006,445.477,o),
(209.204,636.601,o),
(360.975,636.601,cs),
(467.466,636.601,o),
(505.932,550.235,o),
(480.566,369.745,cs),
(464.398,254.706,o),
(418.397,73.399,o),
(267.809,73.399,cs)
);
}
);
width = 600;
}
);
unicode = 79;
},
{
glyphname = Oslash;
layers = (
{
layerId = "1A7FA7F6-774C-4A69-BC02-C84AF7C361B9";
shapes = (
{
closed = 1;
nodes = (
(91.535,-46,l),
(634.703,745,l),
(522.703,745,l),
(-20.465,-46,l)
);
},
{
ref = O;
}
);
width = 600;
},
{
layerId = "772FC93F-B3B8-447D-A30A-419E2FCA5167";
shapes = (
{
closed = 1;
nodes = (
(67.535,-46,l),
(634.703,745,l),
(546.703,745,l),
(-20.465,-46,l)
);
},
{
ref = O;
}
);
width = 600;
},
{
layerId = "ADDB71F6-EC09-4DA0-80DB-A822AEA2EE7D";
shapes = (
{
closed = 1;
nodes = (
(59.535,-46,l),
(602.703,745,l),
(554.703,745,l),
(11.535,-46,l)
);
},
{
ref = O;
}
);
width = 600;
},
{
layerId = "D03DF296-8133-4A96-B1BA-CFDB09DF42C8";
shapes = (
{
closed = 1;
nodes = (
(66.071,-46,l),
(628.847,745,l),
(548.167,745,l),
(-14.609,-46,l)
);
},
{
alignment = -1;
ref = O;
}
);
width = 600;
}
);
unicode = 216;
},
{
glyphname = OE;
layers = (
{
layerId = "1A7FA7F6-774C-4A69-BC02-C84AF7C361B9";
shapes = (
{
closed = 1;
nodes = (
(266.89,-10,o),
(312.295,0,o),
(348.295,0,cs),
(367,0,l),
(478.784,710,l),
(452.489,710,ls),
(405.489,710,o),
(372.894,720,o),
(318.894,720,cs),
(178.894,720,o),
(73.611,573.574,o),
(40.443,337.574,cs),
(9.665,118.574,o),
(72.89,-10,o),
(209.89,-10,cs)
);
},
{
closed = 1;
nodes = (
(265,0,l),
(521,0,l),
(538.005,121,l),
(284.005,121,l)
);
},
{
closed = 1;
nodes = (
(174.586,113,o),
(157.903,191.426,o),
(177.719,332.426,cs),
(198.941,483.426,o),
(255.198,597,o),
(306.198,597,cs),
(317.198,597,o),
(327.642,596.983,o),
(333.08,592.983,c),
(252.272,116.982,l),
(244.991,114.982,o),
(236.586,113,o),
(228.586,113,cs)
);
},
{
closed = 1;
nodes = (
(321.46,295,l),
(532.46,295,l),
(549.465,416,l),
(340.465,416,l)
);
},
{
closed = 1;
nodes = (
(352.779,589,l),
(603.779,589,l),
(620.784,710,l),
(371.784,710,l)
);
}
);
width = 600;
},
{
layerId = "772FC93F-B3B8-447D-A30A-419E2FCA5167";
shapes = (
{
closed = 1;
nodes = (
(255.164,-10,o),
(286.569,0,o),
(309.569,0,cs),
(352,0,l),
(463.784,710,l),
(411.215,710,ls),
(381.215,710,o),
(361.62,720,o),
(327.62,720,cs),
(188.62,720,o),
(81.509,572.848,o),
(48.341,336.848,cs),
(17.563,117.848,o),
(80.164,-10,o),
(218.164,-10,cs)
);
},
{
closed = 1;
nodes = (
(277,0,l),
(513,0,l),
(525.649,90,l),
(290.649,90,l)
);
},
{
closed = 1;
nodes = (
(156.955,82,o),
(129.913,170.152,o),
(152.54,331.152,cs),
(176.854,504.152,o),
(246.829,628,o),
(318.829,628,cs),
(329.829,628,o),
(339.895,625.876,o),
(346.911,618.876,c),
(258.635,85.901,l),
(252.354,83.901,o),
(240.955,82,o),
(231.955,82,cs)
);
},
{
closed = 1;
nodes = (
(340.568,310,l),
(526.568,310,l),
(539.216,400,l),
(355.216,400,l)
);
},
{
closed = 1;
nodes = (
(369.135,620,l),
(600.135,620,l),
(612.784,710,l),
(383.784,710,l)
);
}
);
width = 600;
},
{
layerId = "ADDB71F6-EC09-4DA0-80DB-A822AEA2EE7D";
shapes = (
{
closed = 1;
nodes = (
(253.823,-10,o),
(285.229,0,o),
(308.229,0,cs),
(322,0,l),
(433.784,710,l),
(417.555,710,ls),
(386.555,710,o),
(364.961,720,o),
(328.961,720,cs),
(197.961,720,o),
(93.867,568.285,o),
(60.981,334.285,cs),
(30.343,116.285,o),
(87.823,-10,o),
(216.823,-10,cs)
);
},
{
closed = 1;
nodes = (
(282,0,l),
(500,0,l),
(506.324,45,l),
(288.324,45,l)
);
},
{
closed = 1;
nodes = (
(123.69,35,o),
(81.917,141.715,o),
(108.62,331.715,cs),
(137.43,536.715,o),
(225.094,675,o),
(324.094,675,cs),
(347.094,675,o),
(367.508,671.489,o),
(383.524,664.489,c),
(282.146,38.17,l),
(266.865,36.17,o),
(246.69,35,o),
(225.69,35,cs)
);
},
{
closed = 1;
nodes = (
(344.8,333,l),
(516.8,333,l),
(523.124,378,l),
(352.124,378,l)
);
},
{
closed = 1;
nodes = (
(382.46,665,l),
(593.46,665,l),
(599.784,710,l),
(388.784,710,l)
);
}
);
width = 600;
},
{
layerId = "D03DF296-8133-4A96-B1BA-CFDB09DF42C8";
shapes = (
{
closed = 1;
nodes = (
(254.918,-10,o),
(286.324,0,o),
(309.324,0,cs),
(346.51,0,l),
(458.294,710,l),
(412.375,710,ls),
(382.192,710,o),
(362.232,720,o),
(327.866,720,cs),
(190.33,720,o),
(83.77,572.013,o),
(50.654,336.379,cs),
(19.901,117.562,o),
(81.565,-10,o),
(217.918,-10,cs)
);
},
{
closed = 1;
nodes = (
(277.915,0,l),
(510.621,0,l),
(522.112,81.765,l),
(290.223,81.765,l)
);
},
{
closed = 1;
nodes = (
(150.868,73.399,o),
(121.13,164.948,o),
(144.503,331.255,cs),
(169.639,510.111,o),
(242.851,636.601,o),
(319.792,636.601,cs),
(332.988,636.601,o),
(344.948,634.223,o),
(353.611,627.223,c),
(262.938,77.166,l),
(255.01,75.166,o),
(242.005,73.399,o),
(230.809,73.399,cs)
);
},
{
closed = 1;
nodes = (
(341.342,314.209,l),
(524.78,314.209,l),
(536.271,395.974,l),
(354.65,395.974,l)
);
},
{
closed = 1;
nodes = (
(371.574,628.235,l),
(598.914,628.235,l),
(610.405,710,l),
(384.699,710,l)
);
}
);
width = 600;
}
);
unicode = 338;
},
{
glyphname = P;
layers = (
{
layerId = "1A7FA7F6-774C-4A69-BC02-C84AF7C361B9";
shapes = (
{
closed = 1;
nodes = (
(198.67,204,l),
(298.966,204,ls),
(472.966,204,o),
(593.379,294.426,o),
(618.395,472.426,cs),
(639.336,621.426,o),
(548.489,710,o),
(372.489,710,cs),
(280.784,710,l),
(261.779,589,l),
(360.074,589,ls),
(446.074,589,o),
(484.957,547.574,o),
(473.854,468.574,cs),
(461.486,380.574,o),
(399.381,325,o),
(311.381,325,cs),
(217.676,325,l)
);
},
{
closed = 1;
nodes = (
(46,0,l),
(178,0,l),
(289.784,710,l),
(157.784,710,l)
);
}
);
width = 600;
},
{
layerId = "772FC93F-B3B8-447D-A30A-419E2FCA5167";
shapes = (
{
closed = 1;
nodes = (
(180.919,220,l),
(300.488,220,ls),
(473.488,220,o),
(586.184,300.152,o),
(611.2,478.152,cs),
(632.421,629.152,o),
(548.215,710,o),
(373.215,710,cs),
(261.784,710,l),
(246.433,615,l),
(363.002,615,ls),
(471.002,615,o),
(518.228,570.848,o),
(505.719,481.848,cs),
(490.4,372.848,o),
(418.701,315,o),
(310.701,315,cs),
(196.27,315,l)
);
},
{
closed = 1;
nodes = (
(55,0,l),
(159,0,l),
(270.784,710,l),
(166.784,710,l)
);
}
);
width = 600;
},
{
layerId = "ADDB71F6-EC09-4DA0-80DB-A822AEA2EE7D";
shapes = (
{
closed = 1;
nodes = (
(140.433,245,l),
(313.661,245,ls),
(467.661,245,o),
(576.495,323.715,o),
(598.701,481.715,cs),
(619.079,626.715,o),
(541.555,710,o),
(385.555,710,cs),
(216.784,710,l),
(209.46,665,l),
(380.688,665,ls),
(506.688,665,o),
(567.364,600.285,o),
(550.921,483.285,cs),
(532.932,355.285,o),
(441.528,290,o),
(317.528,290,cs),
(146.757,290,l)
);
},
{
closed = 1;
nodes = (
(67,0,l),
(114,0,l),
(225.784,710,l),
(178.784,710,l)
);
}
);
width = 600;
},
{
layerId = "D03DF296-8133-4A96-B1BA-CFDB09DF42C8";
shapes = (
{
closed = 1;
nodes = (
(173.51,224.575,l),
(302.899,224.575,ls),
(472.422,224.575,o),
(584.411,304.464,o),
(608.912,478.804,cs),
(629.98,628.706,o),
(546.996,710,o),
(375.473,710,cs),
(253.549,710,l),
(239.666,624.15,l),
(366.239,624.15,ls),
(477.533,624.15,o),
(527.22,576.235,o),
(513.992,482.111,cs),
(498.184,369.634,o),
(422.879,310.425,o),
(311.951,310.425,cs),
(187.209,310.425,l)
);
},
{
closed = 1;
nodes = (
(57.196,0,l),
(150.765,0,l),
(262.549,710,l),
(168.98,710,l)
);
}
);
width = 600;
}
);
unicode = 80;
},
{
glyphname = Thorn;
layers = (
{
anchors = (
{
name = bottom;
pos = (243,0);
},
{
name = top;
pos = (342.784,710);
}
);
layerId = "1A7FA7F6-774C-4A69-BC02-C84AF7C361B9";
shapes = (
{
closed = 1;
nodes = (
(182.616,104,l),
(282.911,104,ls),
(454.911,104,o),
(575.903,191.426,o),
(600.779,368.426,cs),
(622,519.426,o),
(532.435,610,o),
(356.435,610,cs),
(263.73,610,l),
(244.724,489,l),
(344.02,489,ls),
(430.02,489,o),
(468.621,445.574,o),
(457.097,363.574,cs),
(444.87,276.574,o),
(381.327,225,o),
(295.327,225,cs),
(201.622,225,l)
);
},
{
closed = 1;
nodes = (
(46,0,l),
(178,0,l),
(289.784,710,l),
(157.784,710,l)
);
}
);
width = 600;
},
{
anchors = (
{
name = bottom;
pos = (243,0);
},
{
name = top;
pos = (342.784,710);
}
);
layerId = "772FC93F-B3B8-447D-A30A-419E2FCA5167";
shapes = (
{
closed = 1;
nodes = (
(164.459,110,l),
(284.029,110,ls),
(447.029,110,o),
(568.443,188.152,o),
(592.475,359.152,cs),
(613.838,511.152,o),
(524.755,600,o),
(355.755,600,cs),
(244.325,600,l),
(228.973,505,l),
(346.542,505,ls),
(450.542,505,o),
(500.206,456.848,o),
(486.995,362.848,cs),
(472.379,258.848,o),
(395.242,205,o),
(294.242,205,cs),
(178.811,205,l)
);
},
{
closed = 1;
nodes = (
(55,0,l),
(160,0,l),
(271.784,710,l),
(166.784,710,l)
);
}
);
width = 600;
},
{
anchors = (
{
name = bottom;
pos = (243,0);
},
{
name = top;
pos = (342.784,710);
}
);
layerId = "ADDB71F6-EC09-4DA0-80DB-A822AEA2EE7D";
shapes = (
{
closed = 1;
nodes = (
(120.146,122,l),
(293.375,122,ls),
(452.375,122,o),
(553.936,205.716,o),
(577.736,353.716,cs),
(601.677,502.716,o),
(523.55,589,o),
(365.55,589,cs),
(196.779,589,l),
(189.314,543,l),
(359.542,543,ls),
(489.542,543,o),
(550.917,476.284,o),
(532.052,356.284,cs),
(513.327,237.284,o),
(427.382,168,o),
(298.382,168,cs),
(127.611,168,l)
);
},
{
closed = 1;
nodes = (
(66,0,l),
(114,0,l),
(225.784,710,l),
(178.784,710,l)
);
}
);
width = 600;
},
{
anchors = (
{
name = bottom;
pos = (243,0);
},
{
name = top;
pos = (342.784,710);
}
);
layerId = "D03DF296-8133-4A96-B1BA-CFDB09DF42C8";
shapes = (
{
closed = 1;
nodes = (
(156.35,112.196,l),
(285.739,112.196,ls),
(448.007,112.196,o),
(565.788,191.366,o),
(589.778,358.157,cs),
(611.612,509.608,o),
(524.535,597.987,o),
(357.548,597.987,cs),
(235.623,597.987,l),
(221.715,511.954,l),
(348.921,511.954,ls),
(457.68,511.954,o),
(509.486,460.405,o),
(495.241,361.647,cs),
(479.873,254.902,o),
(401.124,198.229,o),
(295,198.229,cs),
(169.441,198.229,l)
);
},
{
closed = 1;
nodes = (
(57.013,0,l),
(151.582,0,l),
(263.366,710,l),
(168.98,710,l)
);
}
);
width = 600;
}
);
unicode = 222;
},
{
glyphname = Q;
layers = (
{
layerId = "1A7FA7F6-774C-4A69-BC02-C84AF7C361B9";
shapes = (
{
closed = 1;
nodes = (
(263.987,115.822,l),
(184.549,119.822,o),
(158.763,190.426,o),
(178.719,332.426,cs),
(191.509,423.426,o),
(230.776,594,o),
(355.776,594,cs),
(440.776,594,o),
(469.443,522.574,o),
(446.816,361.574,cs),
(414.773,133.574,o),
(308.064,1.199,o),
(122.21,-61.801,c),
(107.438,-189,l),
(270.438,-189,l),
(293.319,-49.449,l),
(445.99,-30.449,o),
(553.752,133.426,o),
(586.779,368.426,cs),
(619.384,600.426,o),
(543.894,720,o),
(368.894,720,cs),
(142.894,720,o),
(68.005,526.574,o),
(41.443,337.574,cs),
(12.773,133.574,o),
(68.722,17.559,o),
(204.63,-4.441,c)
);
},
{
closed = 1;
nodes = (
(529.146,-63,l),
(125.146,-63,l),
(107.438,-189,l),
(511.438,-189,l)
);
}
);
width = 600;
},
{
layerId = "772FC93F-B3B8-447D-A30A-419E2FCA5167";
shapes = (
{
closed = 1;
nodes = (
(263.941,81.881,l),
(168.503,85.881,o),
(132.492,167.152,o),
(155.681,332.152,cs),
(170.719,439.152,o),
(214.829,628,o),
(359.829,628,cs),
(460.829,628,o),
(495.027,533.848,o),
(471.557,366.848,cs),
(438.39,130.848,o),
(314.349,-15.994,o),
(99.527,-92.994,c),
(88.438,-189,l),
(223.438,-189,l),
(240.472,-85.627,l),
(400.391,-50.627,o),
(542.605,118.152,o),
(577.881,369.152,cs),
(609.081,591.152,o),
(539.62,720,o),
(369.62,720,cs),
(146.62,720,o),
(74.919,518.848,o),
(49.2,335.848,cs),
(19.265,122.848,o),
(80.439,6.268,o),
(226.471,-7.732,c)
);
},
{
closed = 1;
nodes = (
(517.789,-94,l),
(101.789,-94,l),
(88.438,-189,l),
(504.438,-189,l)
);
}
);
width = 600;
},
{
layerId = "ADDB71F6-EC09-4DA0-80DB-A822AEA2EE7D";
shapes = (
{
closed = 1;
nodes = (
(255.829,35.99,l),
(128.97,36.99,o),
(81.355,137.715,o),
(108.76,332.715,cs),
(128.576,473.715,o),
(184.094,675,o),
(366.094,675,cs),
(497.094,675,o),
(547.851,575.285,o),
(517.916,362.285,cs),
(478.564,82.285,o),
(323.756,-57.561,o),
(72.529,-144.561,c),
(67.438,-189,l),
(160.438,-189,l),
(168.451,-140.365,l),
(358.04,-86.365,o),
(526.203,79.715,o),
(566.538,366.715,cs),
(599.144,598.715,o),
(532.961,720,o),
(370.961,720,cs),
(153.961,720,o),
(85.575,509.285,o),
(60.981,334.285,cs),
(30.202,115.285,o),
(91.661,3.105,o),
(236.974,-8.895,c)
);
},
{
closed = 1;
nodes = (
(507.622,-145,l),
(73.622,-145,l),
(67.438,-189,l),
(501.438,-189,l)
);
}
);
width = 600;
},
{
layerId = "D03DF296-8133-4A96-B1BA-CFDB09DF42C8";
shapes = (
{
closed = 1;
nodes = (
(262.456,73.483,l),
(161.268,76.934,o),
(123.133,161.765,o),
(147.094,332.255,cs),
(163.006,445.477,o),
(209.204,636.601,o),
(360.975,636.601,cs),
(467.466,636.601,o),
(504.695,541.431,o),
(480.041,366.013,cs),
(445.742,121.961,o),
(316.07,-23.601,o),
(94.586,-102.431,c),
(84.595,-189,l),
(211.908,-189,l),
(227.292,-95.645,l),
(392.64,-57.168,o),
(539.603,111.118,o),
(575.805,368.706,cs),
(607.262,592.536,o),
(538.402,720,o),
(369.866,720,cs),
(147.964,720,o),
(76.869,517.098,o),
(51.356,335.562,cs),
(21.267,121.464,o),
(82.492,5.689,o),
(228.393,-7.945,c)
);
},
{
closed = 1;
nodes = (
(515.928,-103.333,l),
(96.634,-103.333,l),
(84.595,-189,l),
(503.889,-189,l)
);
}
);
width = 600;
}
);
unicode = 81;
},
{
glyphname = R;
layers = (
{
layerId = "1A7FA7F6-774C-4A69-BC02-C84AF7C361B9";
shapes = (
{
closed = 1;
nodes = (
(185.541,260,l),
(316.836,260,ls),
(469.836,260,o),
(569.265,343.426,o),
(590.909,497.426,cs),
(609.601,630.426,o),
(531.489,710,o),
(381.489,710,cs),
(246.784,710,l),
(240.779,589,l),
(368.074,589,ls),
(429.074,589,o),
(456.221,556.574,o),
(447.086,491.574,cs),
(438.373,429.574,o),
(395.391,382,o),
(329.391,382,cs),
(204.687,382,l)
);
},
{
closed = 1;
nodes = (
(31,0,l),
(163,0,l),
(274.784,710,l),
(142.784,710,l)
);
},
{
closed = 1;
nodes = (
(381,0,l),
(537,0,l),
(437.941,334,l),
(298.941,334,l)
);
}
);
width = 600;
},
{
layerId = "772FC93F-B3B8-447D-A30A-419E2FCA5167";
shapes = (
{
closed = 1;
nodes = (
(167.946,270,l),
(317.515,270,ls),
(464.515,270,o),
(561.07,349.152,o),
(582.011,498.152,cs),
(600.703,631.152,o),
(527.215,710,o),
(382.215,710,cs),
(227.784,710,l),
(224.433,615,l),
(373.002,615,ls),
(450.002,615,o),
(486.368,571.848,o),
(474.984,490.848,cs),
(463.882,411.848,o),
(405.728,365,o),
(326.728,365,cs),
(183.297,365,l)
);
},
{
closed = 1;
nodes = (
(39,0,l),
(143,0,l),
(254.784,710,l),
(150.784,710,l)
);
},
{
closed = 1;
nodes = (
(409,0,l),
(529,0,l),
(412.941,334,l),
(302.941,334,l)
);
}
);
width = 600;
},
{
layerId = "ADDB71F6-EC09-4DA0-80DB-A822AEA2EE7D";
shapes = (
{
closed = 1;
nodes = (
(125.46,295,l),
(340.688,295,ls),
(475.688,295,o),
(554.366,379.715,o),
(572.636,509.715,cs),
(590.485,636.715,o),
(528.555,710,o),
(403.555,710,cs),
(180.784,710,l),
(185.46,665,l),
(398.688,665,ls),
(492.688,665,o),
(537.208,606.285,o),
(522.591,502.285,cs),
(508.678,403.285,o),
(445.696,341,o),
(344.696,341,cs),
(131.924,341,l)
);
},
{
closed = 1;
nodes = (
(51,0,l),
(98,0,l),
(209.784,710,l),
(162.784,710,l)
);
},
{
closed = 1;
nodes = (
(462,0,l),
(517,0,l),
(392.941,334,l),
(337.941,334,l)
);
}
);
width = 600;
},
{
layerId = "D03DF296-8133-4A96-B1BA-CFDB09DF42C8";
shapes = (
{
closed = 1;
nodes = (
(160.171,274.575,l),
(321.756,274.575,ls),
(466.56,274.575,o),
(559.843,354.745,o),
(580.295,500.268,cs),
(598.833,632.17,o),
(527.46,710,o),
(386.12,710,cs),
(219.183,710,l),
(217.3,624.15,l),
(377.703,624.15,ls),
(457.814,624.15,o),
(495.672,578.15,o),
(483.697,492.941,cs),
(472.08,410.281,o),
(413.043,360.608,o),
(330.016,360.608,cs),
(173.896,360.608,l)
);
},
{
closed = 1;
nodes = (
(41.196,0,l),
(134.765,0,l),
(246.549,710,l),
(152.98,710,l)
);
},
{
closed = 1;
nodes = (
(418.699,0,l),
(526.804,0,l),
(409.281,334,l),
(309.346,334,l)
);
}
);
width = 600;
}
);
unicode = 82;
},
{
glyphname = S;
layers = (
{
anchors = (
{
name = top;
pos = (383.784,710);
}
);
layerId = "1A7FA7F6-774C-4A69-BC02-C84AF7C361B9";
shapes = (
{
closed = 1;
nodes = (
(364.89,-10,o),
(503.979,35.426,o),
(524.638,182.426,cs),
(555.557,402.426,o),
(231.536,394.427,o),
(253.525,522.427,cs),
(260.265,563.427,o),
(301.917,595,o),
(359.917,595,cs),
(409.917,595,o),
(454.41,577.633,o),
(492.523,528.633,c),
(595.179,628.261,l),
(551.892,690.261,o),
(463.894,720,o),
(376.894,720,cs),
(250.894,720,o),
(137.103,669.574,o),
(117.005,526.574,cs),
(84.119,292.574,o),
(401.648,310.574,o),
(384.643,189.574,cs),
(378.319,144.574,o),
(322.008,116,o),
(251.008,116,cs),
(193.008,116,o),
(131.041,128.604,o),
(68.976,156.604,c),
(22.322,30.328,l),
(78.949,6.328,o),
(158.89,-10,o),
(232.89,-10,cs)
);
}
);
width = 600;
},
{
anchors = (
{
name = top;
pos = (370.784,710);
}
);
layerId = "772FC93F-B3B8-447D-A30A-419E2FCA5167";
shapes = (
{
closed = 1;
nodes = (
(370.164,-10,o),
(494.097,29.152,o),
(515.74,183.152,cs),
(548.065,413.152,o),
(206.286,379.152,o),
(226.665,524.152,cs),
(236.503,594.152,o),
(287.829,628,o),
(353.829,628,cs),
(407.829,628,o),
(458.543,608.816,o),
(509.797,560.816,c),
(586.535,629.049,l),
(528.389,692.049,o),
(462.62,720,o),
(375.62,720,cs),
(239.62,720,o),
(143.455,657.848,o),
(124.482,522.848,cs),
(91.454,287.848,o),
(429.341,336.848,o),
(407.698,182.848,cs),
(396.173,100.848,o),
(315.955,82,o),
(246.955,82,cs),
(183.955,82,o),
(125.98,94.85,o),
(62.196,124.85,c),
(29.592,30.133,l),
(85.938,4.133,o),
(158.164,-10,o),
(234.164,-10,cs)
);
}
);
width = 600;
},
{
anchors = (
{
name = top;
pos = (375.784,710);
}
);
layerId = "ADDB71F6-EC09-4DA0-80DB-A822AEA2EE7D";
shapes = (
{
closed = 1;
nodes = (
(354.823,-10,o),
(481.052,21.715,o),
(501.29,165.715,cs),
(533.474,394.715,o),
(161.398,365.715,o),
(186.133,541.715,cs),
(200.328,642.715,o),
(280.094,675,o),
(366.094,675,cs),
(433.094,675,o),
(492.096,655.848,o),
(542.929,604.848,c),
(575.764,638.151,l),
(517.056,697.151,o),
(450.961,720,o),
(371.961,720,cs),
(260.961,720,o),
(157.483,672.285,o),
(139.494,544.285,cs),
(108.997,327.285,o),
(481.635,360.285,o),
(454.651,168.285,cs),
(439.332,59.285,o),
(336.69,35,o),
(246.69,35,cs),
(168.69,35,o),
(133.541,40.585,o),
(55.476,68.585,c),
(40.582,24.474,l),
(95.349,1.474,o),
(159.823,-10,o),
(232.823,-10,cs)
);
}
);
width = 600;
},
{
anchors = (
{
name = top;
pos = (371.699,710);
}
);
layerId = "D03DF296-8133-4A96-B1BA-CFDB09DF42C8";
shapes = (
{
closed = 1;
nodes = (
(367.356,-10,o),
(491.71,27.791,o),
(513.096,179.961,cs),
(545.394,409.778,o),
(198.071,376.693,o),
(219.247,527.366,cs),
(229.882,603.039,o),
(286.413,636.601,o),
(356.073,636.601,cs),
(412.452,636.601,o),
(464.683,617.423,o),
(515.86,568.874,c),
(584.564,630.715,l),
(526.315,692.983,o),
(460.486,720,o),
(374.951,720,cs),
(243.526,720,o),
(146.022,660.49,o),
(127.229,526.771,cs),
(94.665,295.065,o),
(438.911,341.137,o),
(416.29,180.183,cs),
(404.072,93.242,o),
(319.75,73.399,o),
(246.907,73.399,cs),
(181.162,73.399,o),
(127.364,84.919,o),
(60.966,114.553,c),
(31.603,29.097,l),
(87.66,3.646,o),
(158.467,-10,o),
(233.918,-10,cs)
);
}
);
width = 600;
}
);
unicode = 83;
},
{
glyphname = Germandbls;
layers = (
{
layerId = "1A7FA7F6-774C-4A69-BC02-C84AF7C361B9";
shapes = (
{
closed = 1;
nodes = (
(18,0,l),
(150,0,l),
(223.886,461.426,ls),
(237.534,551.426,o),
(287.922,595.038,o),
(381.782,594.038,cs),
(428.776,594,o),
(470.467,576.375,o),
(509.845,536.375,c),
(614.421,632.664,l),
(556.432,689.664,o),
(483.894,720,o),
(395.894,720,cs),
(207.894,720,o),
(120.937,647.574,o),
(91.78,468.574,cs)
);
},
{
closed = 1;
nodes = (
(441.89,-10,o),
(556.914,63.426,o),
(579.541,224.426,cs),
(595.422,337.426,o),
(533.413,417.422,o),
(414.224,437.422,c),
(459.497,402,l),
(618.243,635,l),
(462.887,604,l),
(284.206,343,l),
(371.003,318.94,ls),
(423.895,303.94,o),
(445.746,268.574,o),
(439.14,221.574,cs),
(429.583,153.574,o),
(376.148,117,o),
(311.148,117,cs),
(279.148,117,o),
(244.536,119.276,o),
(216.38,125.276,c),
(189.464,1.804,l),
(214.621,-4.196,o),
(249.89,-10,o),
(288.89,-10,cs)
);
}
);
width = 600;
},
{
layerId = "772FC93F-B3B8-447D-A30A-419E2FCA5167";
shapes = (
{
closed = 1;
nodes = (
(28,0,l),
(131,0,l),
(203.997,462.152,ls),
(221.738,574.152,o),
(277.551,626.026,o),
(386.411,625.026,cs),
(432.407,625,o),
(474.229,606.869,o),
(514.607,566.869,c),
(607.059,633.106,l),
(551.069,690.106,o),
(481.62,720,o),
(396.62,720,cs),
(215.62,720,o),
(128.866,646.848,o),
(100.709,467.848,cs)
);
},
{
closed = 1;
nodes = (
(440.164,-10,o),
(549.578,68.152,o),
(571.643,225.152,cs),
(587.524,338.152,o),
(529.146,417.52,o),
(414.957,437.52,c),
(433.887,419,l),
(609.243,635,l),
(496.243,635,l),
(288.984,377,l),
(375.051,352.783,ls),
(442.24,332.783,o),
(472.033,284.848,o),
(463.038,220.848,cs),
(451.233,136.848,o),
(390.517,86,o),
(306.517,86,cs),
(275.517,86,o),
(240.91,88.441,o),
(211.754,94.441,c),
(188.734,1.64,l),
(213.891,-4.36,o),
(249.164,-10,o),
(288.164,-10,cs)
);
}
);
width = 600;
},
{
layerId = "ADDB71F6-EC09-4DA0-80DB-A822AEA2EE7D";
shapes = (
{
closed = 1;
nodes = (
(40,0,l),
(87,0,l),
(160.188,463.716,ls),
(182.847,610.716,o),
(254.236,676.009,o),
(393.095,675.009,cs),
(458.094,675,o),
(506.951,654.854,o),
(555.065,605.854,c),
(595.253,634.084,l),
(545.545,693.084,o),
(486.961,720,o),
(397.961,720,cs),
(225.961,720,o),
(141.668,645.284,o),
(113.511,466.284,cs)
);
},
{
closed = 1;
nodes = (
(437.823,-10,o),
(534.674,61.715,o),
(555.614,210.715,cs),
(569.528,309.715,o),
(518.453,388.567,o),
(414.934,427.567,c),
(411.481,409,l),
(597.243,635,l),
(554.352,650,l),
(348.795,397,l),
(393.911,382.398,ls),
(478.835,353.398,o),
(519.078,292.285,o),
(507.835,212.285,cs),
(491.813,98.285,o),
(410.69,35,o),
(299.69,35,cs),
(268.69,35,o),
(234.241,38.748,o),
(205.084,44.748,c),
(188.38,1.269,l),
(215.537,-4.731,o),
(255.823,-10,o),
(294.823,-10,cs)
);
}
);
width = 600;
},
{
layerId = "D03DF296-8133-4A96-B1BA-CFDB09DF42C8";
shapes = (
{
closed = 1;
nodes = (
(30.196,0,l),
(122.948,0,l),
(195.98,462.438,ls),
(214.62,580.843,o),
(273.284,635.173,o),
(387.634,634.173,cs),
(437.108,634.15,o),
(480.217,615.651,o),
(522.011,574.004,c),
(604.898,633.285,l),
(550.059,690.651,o),
(482.598,720,o),
(396.866,720,cs),
(217.513,720,o),
(131.208,646.562,o),
(103.052,467.562,cs)
);
},
{
closed = 1;
nodes = (
(439.735,-10,o),
(546.85,66.974,o),
(568.71,222.51,cs),
(584.231,332.948,o),
(527.189,412.222,o),
(414.953,435.699,c),
(429.786,417.17,l),
(607.047,635,l),
(506.878,637.745,l),
(299.93,380.66,l),
(378.502,358.202,ls),
(448.937,336.555,o),
(480.642,286.209,o),
(471.236,219.281,cs),
(458.659,129.791,o),
(394.209,76.667,o),
(305.268,76.667,cs),
(274.268,76.667,o),
(239.69,79.347,o),
(210.533,85.347,c),
(188.669,1.573,l),
(214.192,-4.427,o),
(250.382,-10,o),
(289.382,-10,cs)
);
}
);
width = 600;
}
);
unicode = 7838;
},
{
glyphname = T;
layers = (
{
layerId = "1A7FA7F6-774C-4A69-BC02-C84AF7C361B9";
shapes = (
{
closed = 1;
nodes = (
(600.784,710,l),
(437.784,710,l),
(415.639,575.572,l),
(264.266,551.572,o),
(139.265,414.574,o),
(115.794,247.574,cs),
(93.589,89.574,o),
(183.89,-10,o),
(347.89,-10,cs),
(413.863,-11.117,o),
(471.097,6.883,q),
(456.432,125.066,l),
(403.045,110.172,o),
(367.04,109.106,qs),
(280.024,109,o),
(239.984,156.426,o),
(253.336,251.426,cs),
(272.871,390.426,o),
(392.659,509.614,o),
(586.48,586.614,c)
);
},
{
closed = 1;
nodes = (
(92.638,588,l),
(583.638,588,l),
(600.784,710,l),
(109.784,710,l)
);
}
);
width = 600;
},
{
layerId = "772FC93F-B3B8-447D-A30A-419E2FCA5167";
shapes = (
{
closed = 1;
nodes = (
(600.784,710,l),
(473.784,710,l),
(456.704,606.485,l),
(290.769,578.485,o),
(149.006,419.848,o),
(124.833,247.848,cs),
(102.908,91.848,o),
(191.164,-10,o),
(350.164,-10,cs),
(412.49,-10.866,o),
(471.45,7.134,q),
(457.877,101.884,l),
(404.068,85.946,o),
(363.386,85.062,qs),
(264.377,85,o),
(216.54,146.152,o),
(231.719,254.152,cs),
(253.221,407.152,o),
(379.011,537.988,o),
(589.692,613.988,c)
);
},
{
closed = 1;
nodes = (
(101.433,615,l),
(587.433,615,l),
(600.784,710,l),
(114.784,710,l)
);
}
);
width = 600;
},
{
layerId = "ADDB71F6-EC09-4DA0-80DB-A822AEA2EE7D";
shapes = (
{
closed = 1;
nodes = (
(600.784,710,l),
(517.784,710,l),
(509.64,660.388,l),
(321.629,603.388,o),
(171.878,440.285,o),
(146.3,258.285,cs),
(124.516,103.285,o),
(202.823,-10,o),
(352.823,-10,cs),
(406.94,-10.389,o),
(469.381,8.611,q),
(461.347,53.42,l),
(405.59,35.431,o),
(356.692,35.011,qs),
(237.69,35,o),
(174.387,123.715,o),
(193.36,258.715,cs),
(218.095,434.715,o),
(363.024,582.553,o),
(595.549,664.553,c)
);
},
{
closed = 1;
nodes = (
(118.46,665,l),
(594.46,665,l),
(600.784,710,l),
(124.784,710,l)
);
}
);
width = 600;
},
{
layerId = "D03DF296-8133-4A96-B1BA-CFDB09DF42C8";
shapes = (
{
closed = 1;
nodes = (
(600.784,710,l),
(481.836,710,l),
(466.392,616.35,l),
(296.417,583.042,o),
(153.192,423.588,o),
(128.761,249.758,cs),
(106.863,93.941,o),
(193.297,-10,o),
(350.65,-10,cs),
(411.474,-10.778,o),
(471.072,7.405,q),
(458.512,93.015,l),
(404.347,76.702,o),
(362.161,75.902,qs),
(259.493,75.85,o),
(208.826,142.046,o),
(224.699,254.987,cs),
(246.793,412.196,o),
(376.085,546.144,o),
(590.764,623.242,c)
);
},
{
closed = 1;
nodes = (
(104.549,624.15,l),
(588.719,624.15,l),
(600.784,710,l),
(116.614,710,l)
);
}
);
width = 600;
}
);
unicode = 84;
},
{
glyphname = U;
layers = (
{
anchors = (
{
name = top;
pos = (372.784,710);
}
);
layerId = "1A7FA7F6-774C-4A69-BC02-C84AF7C361B9";
shapes = (
{
closed = 1;
nodes = (
(415.89,-10,o),
(507.398,66.426,o),
(532.604,224.426,cs),
(608.784,710,l),
(476.784,710,l),
(401.5,231.574,ls),
(390.241,158.574,o),
(344.148,117,o),
(273.148,117,cs),
(199.148,117,o),
(176.327,151.426,o),
(187.586,224.426,cs),
(263.784,710,l),
(131.784,710,l),
(56.483,231.574,ls),
(31.278,73.574,o),
(99.89,-10,o),
(257.89,-10,cs)
);
}
);
width = 600;
},
{
anchors = (
{
name = top;
pos = (372.784,710);
}
);
layerId = "772FC93F-B3B8-447D-A30A-419E2FCA5167";
shapes = (
{
closed = 1;
nodes = (
(408.164,-10,o),
(499.486,67.152,o),
(524.692,225.152,cs),
(600.784,710,l),
(496.784,710,l),
(421.389,230.848,ls),
(406.038,135.848,o),
(353.377,85,o),
(269.377,85,cs),
(182.377,85,o),
(153.346,130.152,o),
(168.697,225.152,cs),
(244.784,710,l),
(140.784,710,l),
(65.395,230.848,ls),
(40.189,72.848,o),
(105.164,-10,o),
(257.164,-10,cs)
);
}
);
width = 600;
},
{
anchors = (
{
name = top;
pos = (372.784,710);
}
);
layerId = "ADDB71F6-EC09-4DA0-80DB-A822AEA2EE7D";
shapes = (
{
closed = 1;
nodes = (
(399.823,-10,o),
(486.681,68.716,o),
(511.886,226.716,cs),
(587.784,710,l),
(540.784,710,l),
(465.205,229.284,ls),
(445.215,101.284,o),
(375.69,35,o),
(262.69,35,cs),
(143.69,35,o),
(102.893,98.716,o),
(122.882,226.716,cs),
(199.784,710,l),
(152.784,710,l),
(76.2,229.284,ls),
(50.995,71.284,o),
(110.823,-10,o),
(255.823,-10,cs)
);
}
);
width = 600;
},
{
anchors = (
{
name = top;
pos = (372.784,710);
}
);
layerId = "D03DF296-8133-4A96-B1BA-CFDB09DF42C8";
shapes = (
{
closed = 1;
nodes = (
(406.637,-10,o),
(497.143,67.438,o),
(522.348,225.438,cs),
(598.405,710,l),
(504.836,710,l),
(429.408,230.562,ls),
(413.208,129.522,o),
(357.46,75.85,o),
(268.153,75.85,cs),
(175.297,75.85,o),
(144.113,124.399,o),
(160.313,225.438,cs),
(236.549,710,l),
(142.98,710,l),
(67.372,230.562,ls),
(42.167,72.562,o),
(106.199,-10,o),
(256.918,-10,cs)
);
}
);
width = 600;
}
);
unicode = 85;
},
{
glyphname = "Upsilon-latin";
layers = (
{
layerId = "1A7FA7F6-774C-4A69-BC02-C84AF7C361B9";
shapes = (
{
closed = 1;
nodes = (
(212.854,618,l),
(203.849,573.877,l),
(87.573,507.877,o),
(50.405,415.574,o),
(33.4,294.574,cs),
(6.416,102.574,o),
(89.89,-10,o),
(258.89,-10,cs),
(454.89,-10,o),
(550.33,130.426,o),
(575.627,310.426,cs),
(596.006,455.426,o),
(557.904,524.017,o),
(498.088,568.017,c),
(507.292,614,l),
(383.98,590.502,l),
(434.466,565.502,o),
(463.243,485.574,o),
(443.146,342.574,cs),
(430.778,254.574,o),
(387.008,116,o),
(272.008,116,cs),
(190.008,116,o),
(156.919,184.426,o),
(175.049,313.426,cs),
(187.838,404.426,o),
(232.012,547.637,o),
(334.633,587.637,c)
);
},
{
closed = 1;
nodes = (
(110.784,710,l),
(93.779,589,l),
(331.779,589,l),
(348.784,710,l)
);
},
{
closed = 1;
nodes = (
(397.784,710,l),
(380.779,589,l),
(606.779,589,l),
(623.784,710,l)
);
}
);
width = 600;
},
{
layerId = "772FC93F-B3B8-447D-A30A-419E2FCA5167";
shapes = (
{
closed = 1;
nodes = (
(233.789,646,l),
(225.132,608.887,l),
(97.511,568.887,o),
(59.146,420.848,o),
(43.687,310.848,cs),
(15.157,107.848,o),
(94.164,-10,o),
(258.164,-10,cs),
(461.164,-10,o),
(546.227,158.152,o),
(570.962,334.152,cs),
(592.746,489.152,o),
(563.223,581.15,o),
(486.737,606.15,c),
(495.227,642,l),
(403.264,617.979,l),
(470.61,591.979,o),
(490.53,501.848,o),
(468.184,342.848,cs),
(453.146,235.848,o),
(403.955,82,o),
(266.955,82,cs),
(169.955,82,o),
(127.789,162.152,o),
(148.027,306.152,cs),
(162.362,408.152,o),
(204.072,573.992,o),
(320.975,615.992,c)
);
},
{
closed = 1;
nodes = (
(118.784,710,l),
(105.714,617,l),
(318.714,617,l),
(331.784,710,l)
);
},
{
closed = 1;
nodes = (
(413.784,710,l),
(400.714,617,l),
(602.714,617,l),
(615.784,710,l)
);
}
);
width = 600;
},
{
layerId = "ADDB71F6-EC09-4DA0-80DB-A822AEA2EE7D";
shapes = (
{
closed = 1;
nodes = (
(240.13,684,l),
(234.819,660.692,l),
(113.841,589.692,o),
(73.456,437.285,o),
(56.451,316.285,cs),
(26.375,102.285,o),
(95.823,-10,o),
(256.823,-10,cs),
(465.823,-10,o),
(537.414,173.715,o),
(561.868,347.715,cs),
(587.025,526.715,o),
(553.597,616.276,o),
(496.64,659.276,c),
(500.708,681,l),
(409.67,665.467,l),
(504.189,626.467,o),
(538.121,520.285,o),
(513.808,347.285,cs),
(494.132,207.285,o),
(434.69,35,o),
(261.69,35,cs),
(131.69,35,o),
(78.23,129.715,o),
(104.23,314.715,cs),
(123.625,452.715,o),
(178.52,607.519,o),
(327.531,664.519,c)
);
},
{
closed = 1;
nodes = (
(132.784,710,l),
(126.46,665,l),
(326.46,665,l),
(332.784,710,l)
);
},
{
closed = 1;
nodes = (
(414.784,710,l),
(408.46,665,l),
(598.46,665,l),
(604.784,710,l)
);
}
);
width = 600;
},
{
layerId = "D03DF296-8133-4A96-B1BA-CFDB09DF42C8";
shapes = (
{
closed = 1;
nodes = (
(234.95,652.954,l),
(226.905,618.368,l),
(100.499,572.695,o),
(61.765,423.856,o),
(46.023,311.843,cs),
(17.21,106.83,o),
(94.467,-10,o),
(257.918,-10,cs),
(462.016,-10,o),
(544.614,161,o),
(569.298,336.634,cs),
(591.699,496.026,o),
(561.462,587.579,o),
(488.549,615.873,c),
(496.23,649.137,l),
(404.436,626.67,l),
(476.755,598.291,o),
(499.24,505.222,o),
(476.534,343.66,cs),
(460.647,230.621,o),
(409.58,73.399,o),
(265.992,73.399,cs),
(162.952,73.399,o),
(118.719,156.216,o),
(140.012,307.719,cs),
(155.273,416.307,o),
(199.396,580.128,o),
(322.175,624.873,c)
);
},
{
closed = 1;
nodes = (
(121.346,710,l),
(109.51,625.784,l),
(320.131,625.784,l),
(331.967,710,l)
);
},
{
closed = 1;
nodes = (
(413.967,710,l),
(402.131,625.784,l),
(601.935,625.784,l),
(613.771,710,l)
);
}
);
width = 600;
}
);
unicode = 433;
},
{
glyphname = V;
layers = (
{
layerId = "1A7FA7F6-774C-4A69-BC02-C84AF7C361B9";
shapes = (
{
closed = 1;
nodes = (
(156,0,l),
(361,0,l),
(656.784,710,l),
(520.784,710,l),
(281.724,119,l),
(272.724,119,l),
(221.784,710,l),
(84.784,710,l)
);
}
);
width = 600;
},
{
layerId = "772FC93F-B3B8-447D-A30A-419E2FCA5167";
shapes = (
{
closed = 1;
nodes = (
(181,0,l),
(336,0,l),
(648.784,710,l),
(540.784,710,l),
(275.946,85,l),
(266.946,85,l),
(199.784,710,l),
(93.784,710,l)
);
}
);
width = 600;
},
{
layerId = "ADDB71F6-EC09-4DA0-80DB-A822AEA2EE7D";
shapes = (
{
closed = 1;
nodes = (
(220,0,l),
(297,0,l),
(635.784,710,l),
(585.784,710,l),
(267.481,39,l),
(262.481,39,l),
(155.784,710,l),
(104.784,710,l)
);
}
);
width = 600;
},
{
layerId = "D03DF296-8133-4A96-B1BA-CFDB09DF42C8";
shapes = (
{
closed = 1;
nodes = (
(188.137,0,l),
(328.863,0,l),
(646.405,710,l),
(549.019,710,l),
(274.397,76.582,l),
(266.129,76.582,l),
(191.732,710,l),
(95.797,710,l)
);
}
);
width = 600;
}
);
unicode = 86;
},
{
glyphname = Vturned;
layers = (
{
layerId = "1A7FA7F6-774C-4A69-BC02-C84AF7C361B9";
shapes = (
{
closed = 1;
nodes = (
(-23,0,l),
(121,0,l),
(334.47,537,l),
(342.47,537,l),
(405,0,l),
(549,0,l),
(443.784,710,l),
(281.784,710,l)
);
}
);
width = 600;
},
{
layerId = "772FC93F-B3B8-447D-A30A-419E2FCA5167";
shapes = (
{
closed = 1;
nodes = (
(-14,0,l),
(95,0,l),
(346.697,624,l),
(354.697,624,l),
(431,0,l),
(541,0,l),
(435.784,710,l),
(289.784,710,l)
);
}
);
width = 600;
},
{
layerId = "ADDB71F6-EC09-4DA0-80DB-A822AEA2EE7D";
shapes = (
{
closed = 1;
nodes = (
(-2,0,l),
(48,0,l),
(354.741,667,l),
(358.741,667,l),
(478,0,l),
(528,0,l),
(397.784,710,l),
(327.784,710,l)
);
}
);
width = 600;
},
{
layerId = "D03DF296-8133-4A96-B1BA-CFDB09DF42C8";
shapes = (
{
closed = 1;
nodes = (
(-11.804,0,l),
(86.399,0,l),
(348.169,631.869,l),
(355.437,631.869,l),
(439.601,0,l),
(538.621,0,l),
(428.83,710,l),
(296.738,710,l)
);
}
);
width = 600;
}
);
unicode = 581;
},
{
glyphname = W;
layers = (
{
anchors = (
{
name = top;
pos = (374.784,710);
}
);
layerId = "1A7FA7F6-774C-4A69-BC02-C84AF7C361B9";
shapes = (
{
closed = 1;
nodes = (
(36,0,l),
(215,0,l),
(317.233,393,l),
(323.233,393,l),
(301,0,l),
(481,0,l),
(668.784,710,l),
(538.784,710,l),
(402.584,118,l),
(388.584,118,l),
(401.487,530,l),
(284.487,530,l),
(165.584,118,l),
(151.584,118,l),
(201.784,710,l),
(71.784,710,l)
);
}
);
width = 600;
},
{
anchors = (
{
name = top;
pos = (374.784,710);
}
);
layerId = "772FC93F-B3B8-447D-A30A-419E2FCA5167";
shapes = (
{
closed = 1;
nodes = (
(48,0,l),
(203,0,l),
(323.573,431,l),
(329.573,431,l),
(314,0,l),
(469,0,l),
(660.784,710,l),
(555.784,710,l),
(396.243,80,l),
(386.243,80,l),
(392.487,530,l),
(292.487,530,l),
(155.243,80,l),
(146.243,80,l),
(185.784,710,l),
(79.784,710,l)
);
}
);
width = 600;
},
{
anchors = (
{
name = top;
pos = (374.784,710);
}
);
layerId = "ADDB71F6-EC09-4DA0-80DB-A822AEA2EE7D";
shapes = (
{
closed = 1;
nodes = (
(85,0,l),
(173,0,l),
(333.568,495,l),
(339.568,495,l),
(344,0,l),
(431,0,l),
(648.784,710,l),
(600.784,710,l),
(399.622,40,l),
(389.622,40,l),
(384.487,530,l),
(299.487,530,l),
(139.622,40,l),
(129.622,40,l),
(140.784,710,l),
(92.784,710,l)
);
}
);
width = 600;
},
{
anchors = (
{
name = top;
pos = (374.784,710);
}
);
layerId = "D03DF296-8133-4A96-B1BA-CFDB09DF42C8";
shapes = (
{
closed = 1;
nodes = (
(54.771,0,l),
(197.51,0,l),
(325.402,442.712,l),
(331.402,442.712,l),
(319.49,0,l),
(462.046,0,l),
(658.588,710,l),
(564.019,710,l),
(396.862,72.68,l),
(386.862,72.68,l),
(391.023,530,l),
(293.768,530,l),
(152.384,72.68,l),
(143.201,72.68,l),
(177.549,710,l),
(82.163,710,l)
);
}
);
width = 600;
}
);
unicode = 87;
},
{
glyphname = X;
layers = (
{
layerId = "1A7FA7F6-774C-4A69-BC02-C84AF7C361B9";
shapes = (
{
closed = 1;
nodes = (
(378,0,l),
(543,0,l),
(363.687,382,l),
(250.784,710,l),
(86.784,710,l),
(269.427,309,l)
);
},
{
closed = 1;
nodes = (
(-26,0,l),
(139,0,l),
(345.427,309,l),
(654.784,710,l),
(489.784,710,l),
(273.687,382,l)
);
}
);
width = 600;
},
{
layerId = "772FC93F-B3B8-447D-A30A-419E2FCA5167";
shapes = (
{
closed = 1;
nodes = (
(410,0,l),
(526,0,l),
(353.422,373,l),
(218.784,710,l),
(102.784,710,l),
(278.692,318,l)
);
},
{
closed = 1;
nodes = (
(-9,0,l),
(105,0,l),
(338.692,318,l),
(637.784,710,l),
(523.784,710,l),
(280.422,373,l)
);
}
);
width = 600;
},
{
layerId = "ADDB71F6-EC09-4DA0-80DB-A822AEA2EE7D";
shapes = (
{
closed = 1;
nodes = (
(459,0,l),
(514,0,l),
(336.173,357,l),
(170.784,710,l),
(114.784,710,l),
(296.941,334,l)
);
},
{
closed = 1;
nodes = (
(3,0,l),
(58,0,l),
(324.941,334,l),
(625.784,710,l),
(570.784,710,l),
(294.173,357,l)
);
}
);
width = 600;
},
{
layerId = "D03DF296-8133-4A96-B1BA-CFDB09DF42C8";
shapes = (
{
closed = 1;
nodes = (
(418.967,0,l),
(523.804,0,l),
(350.265,370.072,l),
(210,710,l),
(104.98,710,l),
(282.032,320.928,l)
);
},
{
closed = 1;
nodes = (
(-6.804,0,l),
(96.399,0,l),
(336.175,320.928,l),
(635.588,710,l),
(532.385,710,l),
(282.938,370.072,l)
);
}
);
width = 600;
}
);
unicode = 88;
},
{
glyphname = Y;
layers = (
{
anchors = (
{
name = top;
pos = (370.784,710);
}
);
layerId = "1A7FA7F6-774C-4A69-BC02-C84AF7C361B9";
shapes = (
{
closed = 1;
nodes = (
(603.784,710,l),
(471.784,710,l),
(368.491,53.574,ls),
(355.405,-32.426,o),
(294.462,-80,o),
(202.462,-80,cs),
(164.462,-80,o),
(108.724,-73.644,o),
(56.8,-44.644,c),
(5.472,-167.579,l),
(61.818,-193.579,o),
(127.484,-205,o),
(186.484,-205,cs),
(367.484,-205,o),
(473.812,-115.574,o),
(502.25,65.426,cs)
);
},
{
closed = 1;
nodes = (
(129.784,710,l),
(57.165,250.574,ls),
(37.035,121.574,o),
(88.744,53,o),
(190.744,53,cs),
(295.744,53,o),
(364.375,114.44,o),
(395.348,249.44,c),
(359.438,181,l),
(415.438,181,l),
(441.535,516.574,l),
(408.865,312.574,o),
(328.159,174,o),
(245.159,174,cs),
(199.159,174,o),
(182.648,210.426,o),
(197.156,299.426,cs),
(261.784,710,l)
);
}
);
width = 600;
},
{
anchors = (
{
name = top;
pos = (370.784,710);
}
);
layerId = "772FC93F-B3B8-447D-A30A-419E2FCA5167";
shapes = (
{
closed = 1;
nodes = (
(594.784,710,l),
(490.784,710,l),
(384.543,39.848,ls),
(370.034,-49.152,o),
(309.971,-110,o),
(208.971,-110,cs),
(153.971,-110,o),
(101.446,-101.197,o),
(50.96,-76.197,c),
(14.027,-165.795,l),
(70.092,-193.795,o),
(129.758,-205,o),
(196.758,-205,cs),
(363.758,-205,o),
(464.048,-113.848,o),
(489.254,44.152,cs)
);
},
{
closed = 1;
nodes = (
(137.784,710,l),
(67.325,265.848,ls),
(46.211,129.848,o),
(94.58,57,o),
(197.58,57,cs),
(308.58,57,o),
(384.135,127.167,o),
(417.249,263.167,c),
(387.762,226,l),
(440.762,226,l),
(459.314,507.848,l),
(423.957,291.848,o),
(335.074,154,o),
(236.074,154,cs),
(179.074,154,o),
(160.619,196.152,o),
(176.673,296.152,cs),
(241.784,710,l)
);
}
);
width = 600;
},
{
anchors = (
{
name = top;
pos = (370.784,710);
}
);
layerId = "ADDB71F6-EC09-4DA0-80DB-A822AEA2EE7D";
shapes = (
{
closed = 1;
nodes = (
(582.784,710,l),
(535.784,710,l),
(429.924,42.284,ls),
(408.951,-92.716,o),
(333.285,-160,o),
(197.285,-160,cs),
(140.285,-160,o),
(88.587,-151.54,o),
(38.101,-126.54,c),
(19.438,-168.457,l),
(75.503,-196.457,o),
(138.418,-205,o),
(193.418,-205,cs),
(356.418,-205,o),
(450.837,-122.284,o),
(476.604,39.716,cs)
);
},
{
closed = 1;
nodes = (
(149.784,710,l),
(81.085,278.284,ls),
(57.566,132.284,o),
(112.677,53,o),
(222.677,53,cs),
(339.677,53,o),
(428.934,140.726,o),
(466.61,280.726,c),
(440.573,246,l),
(488.573,246,l),
(498.916,476.284,l),
(461.889,241.284,o),
(359.544,98,o),
(231.544,98,cs),
(141.544,98,o),
(108.483,152.716,o),
(127.91,276.716,cs),
(196.784,710,l)
);
}
);
width = 600;
},
{
anchors = (
{
name = top;
pos = (370.784,710);
}
);
layerId = "D03DF296-8133-4A96-B1BA-CFDB09DF42C8";
shapes = (
{
closed = 1;
nodes = (
(592.588,710,l),
(499.019,710,l),
(392.848,40.294,ls),
(377.156,-57.125,o),
(314.238,-119.15,o),
(206.833,-119.15,cs),
(151.467,-119.15,o),
(99.093,-110.41,o),
(48.607,-85.41,c),
(15.017,-166.283,l),
(71.082,-194.283,o),
(131.343,-205,o),
(196.147,-205,cs),
(362.415,-205,o),
(461.631,-115.392,o),
(486.939,43.34,cs)
);
},
{
closed = 1;
nodes = (
(139.98,710,l),
(69.843,268.124,ls),
(48.289,130.294,o),
(97.892,56.268,o),
(202.173,56.268,cs),
(314.271,56.268,o),
(392.334,129.648,o),
(426.282,266.38,c),
(397.427,229.66,l),
(449.512,229.66,l),
(466.561,502.071,l),
(430.899,282.594,o),
(339.552,143.752,o),
(235.245,143.752,cs),
(172.206,143.752,o),
(151.078,188.203,o),
(167.749,292.595,cs),
(233.549,710,l)
);
}
);
width = 600;
}
);
unicode = 89;
},
{
glyphname = Z;
layers = (
{
anchors = (
{
name = top;
pos = (345.784,710);
}
);
layerId = "1A7FA7F6-774C-4A69-BC02-C84AF7C361B9";
shapes = (
{
closed = 1;
nodes = (
(356.13,93.426,o),
(278.426,126.086,o),
(153.004,123.086,c),
(158.909,241.461,l),
(322.169,314.461,o),
(409.044,377.426,o),
(423.66,481.426,cs),
(433.919,554.426,o),
(390.467,596,o),
(315.467,596,cs),
(251.467,596,o),
(186.904,570.576,o),
(128.456,517.576,c),
(78.563,619.644,l),
(160.558,683.644,o),
(254.485,720,o),
(356.485,720,cs),
(511.485,720,o),
(585.448,643.574,o),
(566.194,506.574,cs),
(548.205,378.574,o),
(454.62,261.903,o),
(268.014,214.903,c),
(309.276,251,l),
(303.735,176,l),
(273.795,209.909,l),
(431.357,213.909,o),
(503.443,152.574,o),
(486.156,29.574,cs),
(466.059,-113.426,o),
(346.894,-205,o),
(176.894,-205,cs),
(118.894,-205,o),
(54.377,-196.441,o),
(-0.969,-170.441,c),
(61.546,-45.338,l),
(98.594,-66.338,o),
(150.052,-80,o),
(199.052,-80,cs),
(287.052,-80,o),
(336.314,-47.574,o),
(344.887,13.426,cs)
);
}
);
width = 600;
},
{
anchors = (
{
name = top;
pos = (345.784,710);
}
);
layerId = "772FC93F-B3B8-447D-A30A-419E2FCA5167";
shapes = (
{
closed = 1;
nodes = (
(384.059,107.152,o),
(298.819,145.062,o),
(160.397,142.062,c),
(164.771,230.808,l),
(340.453,306.808,o),
(436.394,394.152,o),
(451.151,499.152,cs),
(463.238,585.152,o),
(412.269,625,o),
(322.269,625,cs),
(254.269,625,o),
(188.681,601.903,o),
(122.232,548.903,c),
(81.172,627.239,l),
(164.464,686.239,o),
(255.759,720,o),
(352.759,720,cs),
(502.759,720,o),
(578.19,648.848,o),
(559.919,518.848,cs),
(541.368,386.848,o),
(428.951,265.942,o),
(264.221,210.942,c),
(290.73,240,l),
(285.719,183,l),
(268.655,206.96,l),
(409.936,208.96,o),
(495.638,146.848,o),
(478.633,25.848,cs),
(458.957,-114.152,o),
(340.62,-205,o),
(174.62,-205,cs),
(117.62,-205,o),
(58.112,-196.256,o),
(5.047,-168.256,c),
(54.915,-73.66,l),
(96.542,-97.66,o),
(144.11,-110,o),
(190.11,-110,cs),
(296.11,-110,o),
(359.886,-64.848,o),
(370.989,14.152,cs)
);
}
);
width = 600;
},
{
anchors = (
{
name = top;
pos = (345.784,710);
}
);
layerId = "ADDB71F6-EC09-4DA0-80DB-A822AEA2EE7D";
shapes = (
{
closed = 1;
nodes = (
(427.23,129.715,o),
(335.794,178.042,o),
(182.091,173.042,c),
(183.88,211.546,l),
(373.437,279.546,o),
(476.895,397.715,o),
(494.041,519.715,cs),
(507.533,615.715,o),
(449.636,675,o),
(339.636,675,cs),
(265.636,675,o),
(189.116,647.837,o),
(109.543,586.837,c),
(88.223,621.155,l),
(167.937,683.155,o),
(259.418,720,o),
(349.418,720,cs),
(484.418,720,o),
(558.408,643.285,o),
(541.402,522.285,cs),
(521.867,383.285,o),
(400.743,262.468,o),
(255.154,208.468,c),
(263.919,220,l),
(261.546,196,l),
(257.18,206,l),
(393.18,206,o),
(475.294,137.285,o),
(458.57,18.285,cs),
(439.737,-115.715,o),
(325.96,-205,o),
(174.96,-205,cs),
(116.96,-205,o),
(60.577,-194.633,o),
(11.793,-164.633,c),
(39.019,-121.383,l),
(87.943,-150.383,o),
(139.742,-160,o),
(181.742,-160,cs),
(310.742,-160,o),
(395.749,-94.285,o),
(411.209,15.715,cs)
);
}
);
width = 600;
},
{
anchors = (
{
name = top;
pos = (345.784,710);
}
);
layerId = "D03DF296-8133-4A96-B1BA-CFDB09DF42C8";
shapes = (
{
closed = 1;
nodes = (
(391.96,111.281,o),
(305.585,151.097,o),
(164.367,147.731,c),
(168.269,227.283,l),
(346.489,301.819,o),
(443.806,394.804,o),
(459,502.915,cs),
(471.344,590.745,o),
(419.107,634.15,o),
(325.447,634.15,cs),
(256.349,634.15,o),
(188.76,610.31,o),
(119.91,555.846,c),
(82.462,626.126,l),
(165.099,685.675,o),
(256.428,720,o),
(352.147,720,cs),
(499.402,720,o),
(574.569,647.83,o),
(556.531,519.477,cs),
(537.799,386.196,o),
(423.789,265.306,o),
(262.562,210.489,c),
(285.823,236.34,l),
(281.295,185.379,l),
(266.555,206.784,l),
(406.87,208.418,o),
(491.915,145.098,o),
(474.961,24.464,cs),
(455.44,-114.438,o),
(337.937,-205,o),
(174.682,-205,cs),
(117.499,-205,o),
(58.563,-195.959,o),
(6.282,-167.593,c),
(52.006,-82.393,l),
(94.968,-107.308,o),
(143.31,-119.15,o),
(188.578,-119.15,cs),
(298.787,-119.15,o),
(366.449,-70.235,o),
(378.349,14.438,cs)
);
}
);
width = 600;
}
);
unicode = 90;
},
{
glyphname = A.ss02;
layers = (
{
anchors = (
{
name = top;
pos = (371.784,710);
}
);
layerId = "1A7FA7F6-774C-4A69-BC02-C84AF7C361B9";
shapes = (
{
closed = 1;
nodes = (
(-28,0,l),
(115,0,l),
(338.47,537,l),
(347.47,537,l),
(402,0,l),
(545,0,l),
(451.784,710,l),
(288.784,710,l)
);
},
{
closed = 1;
nodes = (
(97.832,134,l),
(456.832,134,l),
(475.416,252,l),
(116.416,252,l)
);
}
);
width = 600;
},
{
anchors = (
{
name = top;
pos = (371.784,710);
}
);
layerId = "772FC93F-B3B8-447D-A30A-419E2FCA5167";
shapes = (
{
closed = 1;
nodes = (
(-20,0,l),
(86,0,l),
(352.697,624,l),
(361.697,624,l),
(431,0,l),
(535,0,l),
(442.784,710,l),
(298.784,710,l)
);
},
{
closed = 1;
nodes = (
(103.314,173,l),
(463.314,173,l),
(477.243,265,l),
(118.243,265,l)
);
}
);
width = 600;
},
{
anchors = (
{
name = top;
pos = (371.784,710);
}
);
layerId = "ADDB71F6-EC09-4DA0-80DB-A822AEA2EE7D";
shapes = (
{
closed = 1;
nodes = (
(-7,0,l),
(43,0,l),
(360.741,667,l),
(365.741,667,l),
(474,0,l),
(524,0,l),
(404.784,710,l),
(335.784,710,l)
);
},
{
closed = 1;
nodes = (
(107.827,198,l),
(466.827,198,l),
(474.151,243,l),
(114.151,243,l)
);
}
);
width = 600;
},
{
anchors = (
{
name = top;
pos = (371.784,710);
}
);
layerId = "D03DF296-8133-4A96-B1BA-CFDB09DF42C8";
shapes = (
{
closed = 1;
nodes = (
(-17.621,0,l),
(78.131,0,l),
(354.169,631.869,l),
(362.437,631.869,l),
(438.869,0,l),
(532.987,0,l),
(435.83,710,l),
(305.555,710,l)
);
},
{
closed = 1;
nodes = (
(104.14,177.575,l),
(463.957,177.575,l),
(476.677,260.974,l),
(117.494,260.974,l)
);
}
);
width = 600;
}
);
},
{
glyphname = E.ss02;
layers = (
{
anchors = (
{
name = top;
pos = (395.784,710);
}
);
layerId = "1A7FA7F6-774C-4A69-BC02-C84AF7C361B9";
shapes = (
{
closed = 1;
nodes = (
(61,0,l),
(193,0,l),
(304.784,710,l),
(172.784,710,l)
);
},
{
closed = 1;
nodes = (
(92,0,l),
(508,0,l),
(525.146,122,l),
(110.146,122,l)
);
},
{
closed = 1;
nodes = (
(137.46,295,l),
(505.46,295,l),
(522.606,417,l),
(156.606,417,l)
);
},
{
closed = 1;
nodes = (
(183.779,589,l),
(600.779,589,l),
(617.784,710,l),
(202.784,710,l)
);
}
);
width = 600;
},
{
anchors = (
{
name = top;
pos = (395.784,710);
}
);
layerId = "772FC93F-B3B8-447D-A30A-419E2FCA5167";
shapes = (
{
closed = 1;
nodes = (
(69,0,l),
(173,0,l),
(284.784,710,l),
(180.784,710,l)
);
},
{
closed = 1;
nodes = (
(100,0,l),
(499,0,l),
(512.351,95,l),
(114.351,95,l)
);
},
{
closed = 1;
nodes = (
(148.287,308,l),
(499.287,308,l),
(512.638,403,l),
(162.638,403,l)
);
},
{
closed = 1;
nodes = (
(196.433,615,l),
(596.433,615,l),
(609.784,710,l),
(212.784,710,l)
);
}
);
width = 600;
},
{
anchors = (
{
name = top;
pos = (395.784,710);
}
);
layerId = "ADDB71F6-EC09-4DA0-80DB-A822AEA2EE7D";
shapes = (
{
closed = 1;
nodes = (
(81,0,l),
(128,0,l),
(239.784,710,l),
(192.784,710,l)
);
},
{
closed = 1;
nodes = (
(111,0,l),
(486,0,l),
(492.324,45,l),
(119.324,45,l)
);
},
{
closed = 1;
nodes = (
(164.8,333,l),
(489.8,333,l),
(496.124,378,l),
(172.124,378,l)
);
},
{
closed = 1;
nodes = (
(217.46,665,l),
(592.46,665,l),
(598.784,710,l),
(223.784,710,l)
);
}
);
width = 600;
},
{
anchors = (
{
name = top;
pos = (395.784,710);
}
);
layerId = "D03DF296-8133-4A96-B1BA-CFDB09DF42C8";
shapes = (
{
closed = 1;
nodes = (
(71.196,0,l),
(164.765,0,l),
(276.549,710,l),
(182.98,710,l)
);
},
{
closed = 1;
nodes = (
(102.013,0,l),
(496.621,0,l),
(508.686,85.85,l),
(115.261,85.85,l)
);
},
{
closed = 1;
nodes = (
(151.309,312.575,l),
(497.55,312.575,l),
(509.616,398.425,l),
(164.374,398.425,l)
);
},
{
closed = 1;
nodes = (
(200.281,624.15,l),
(595.706,624.15,l),
(607.771,710,l),
(214.797,710,l)
);
}
);
width = 600;
}
);
},
{
glyphname = F.ss02;
layers = (
{
layerId = "1A7FA7F6-774C-4A69-BC02-C84AF7C361B9";
shapes = (
{
closed = 1;
nodes = (
(81,0,l),
(213,0,l),
(324.784,710,l),
(192.784,710,l)
);
},
{
closed = 1;
nodes = (
(154.103,264,l),
(512.103,264,l),
(529.249,386,l),
(173.249,386,l)
);
},
{
closed = 1;
nodes = (
(204.638,588,l),
(620.638,588,l),
(637.784,710,l),
(223.784,710,l)
);
}
);
width = 600;
},
{
layerId = "772FC93F-B3B8-447D-A30A-419E2FCA5167";
shapes = (
{
closed = 1;
nodes = (
(89,0,l),
(193,0,l),
(304.784,710,l),
(200.784,710,l)
);
},
{
closed = 1;
nodes = (
(164.07,278,l),
(514.07,278,l),
(527.422,373,l),
(179.422,373,l)
);
},
{
closed = 1;
nodes = (
(217.433,615,l),
(616.433,615,l),
(629.784,710,l),
(232.784,710,l)
);
}
);
width = 600;
},
{
layerId = "ADDB71F6-EC09-4DA0-80DB-A822AEA2EE7D";
shapes = (
{
closed = 1;
nodes = (
(102,0,l),
(149,0,l),
(260.784,710,l),
(213.784,710,l)
);
},
{
closed = 1;
nodes = (
(179.584,303,l),
(517.584,303,l),
(523.908,348,l),
(186.908,348,l)
);
},
{
closed = 1;
nodes = (
(236.46,665,l),
(611.46,665,l),
(617.784,710,l),
(243.784,710,l)
);
}
);
width = 600;
},
{
layerId = "D03DF296-8133-4A96-B1BA-CFDB09DF42C8";
shapes = (
{
closed = 1;
nodes = (
(91.379,0,l),
(184.948,0,l),
(296.732,710,l),
(203.163,710,l)
);
},
{
closed = 1;
nodes = (
(166.909,282.575,l),
(514.713,282.575,l),
(526.779,368.425,l),
(180.792,368.425,l)
);
},
{
closed = 1;
nodes = (
(220.915,624.15,l),
(615.523,624.15,l),
(627.588,710,l),
(234.797,710,l)
);
}
);
width = 600;
}
);
},
{
glyphname = G.ss02;
layers = (
{
layerId = "1A7FA7F6-774C-4A69-BC02-C84AF7C361B9";
shapes = (
{
closed = 1;
nodes = (
(409.89,-10,o),
(491.558,9.973,o),
(522.823,18.973,c),
(488.792,141.997,l),
(456.527,132.997,o),
(405.008,116,o),
(342.008,116,cs),
(212.008,116,o),
(159.903,191.426,o),
(181.827,347.426,cs),
(199.676,474.426,o),
(269.917,595,o),
(413.917,595,cs),
(466.917,595,o),
(510.664,573.825,o),
(536.043,533.825,c),
(628.826,624.065,l),
(596.118,683.065,o),
(524.894,720,o),
(420.894,720,cs),
(190.894,720,o),
(72.503,558.574,o),
(42.567,345.574,cs),
(9.681,111.574,o),
(102.89,-10,o),
(315.89,-10,cs)
);
},
{
closed = 1;
nodes = (
(388.811,20,l),
(519.811,20,l),
(574.719,368,l),
(443.719,368,l)
);
},
{
closed = 1;
nodes = (
(329.573,246,l),
(501.573,246,l),
(520.719,368,l),
(346.719,368,l)
);
}
);
width = 600;
},
{
layerId = "772FC93F-B3B8-447D-A30A-419E2FCA5167";
shapes = (
{
closed = 1;
nodes = (
(405.164,-10,o),
(484.869,10.128,o),
(514.134,19.128,c),
(483.542,106.794,l),
(451.277,97.794,o),
(399.955,82,o),
(336.955,82,cs),
(191.955,82,o),
(132.632,168.152,o),
(157.648,346.152,cs),
(177.746,489.152,o),
(253.829,628,o),
(416.829,628,cs),
(469.829,628,o),
(513.421,604.321,o),
(539.096,559.321,c),
(620.98,628.585,l),
(593.85,684.585,o),
(519.62,720,o),
(419.62,720,cs),
(191.62,720,o),
(80.698,552.848,o),
(51.465,344.848,cs),
(18.579,110.848,o),
(107.164,-10,o),
(315.164,-10,cs)
);
},
{
closed = 1;
nodes = (
(411.811,20,l),
(511.811,20,l),
(564.892,355,l),
(465.892,355,l)
);
},
{
closed = 1;
nodes = (
(331.541,260,l),
(505.541,260,l),
(520.892,355,l),
(344.892,355,l)
);
}
);
width = 600;
},
{
layerId = "ADDB71F6-EC09-4DA0-80DB-A822AEA2EE7D";
shapes = (
{
closed = 1;
nodes = (
(393.823,-10,o),
(452.646,3.543,o),
(496.895,19.543,c),
(473.377,60.511,l),
(441.55,47.511,o),
(388.69,35,o),
(325.69,35,cs),
(155.69,35,o),
(78.479,145.715,o),
(107.009,348.715,cs),
(131.322,521.715,o),
(226.094,675,o),
(419.094,675,cs),
(484.094,675,o),
(538.554,652.99,o),
(570.089,606.99,c),
(607.291,641.025,l),
(572.177,690.025,o),
(506.961,720,o),
(417.961,720,cs),
(196.961,720,o),
(85.792,539.285,o),
(58.386,344.285,cs),
(28.029,128.285,o),
(123.823,-10,o),
(321.823,-10,cs)
);
},
{
closed = 1;
nodes = (
(449.811,20,l),
(495.811,20,l),
(544.378,330,l),
(498.378,330,l)
);
},
{
closed = 1;
nodes = (
(336.195,286,l),
(513.195,286,l),
(520.378,330,l),
(342.378,330,l)
);
}
);
width = 600;
},
{
layerId = "D03DF296-8133-4A96-B1BA-CFDB09DF42C8";
shapes = (
{
closed = 1;
nodes = (
(403.088,-10,o),
(478.972,8.923,o),
(510.979,19.204,c),
(481.681,98.324,l),
(449.497,88.592,o),
(397.894,73.399,o),
(334.894,73.399,cs),
(185.318,73.399,o),
(122.722,164.046,o),
(148.381,346.621,cs),
(169.25,495.111,o),
(248.753,636.601,o),
(417.243,636.601,cs),
(472.439,636.601,o),
(518.02,613.228,o),
(544.768,568.045,c),
(618.475,630.861,l),
(589.884,685.58,o),
(517.303,720,o),
(419.317,720,cs),
(192.598,720,o),
(81.63,550.366,o),
(52.732,344.745,cs),
(20.308,114.039,o),
(110.213,-10,o),
(316.382,-10,cs)
);
},
{
closed = 1;
nodes = (
(418.765,20,l),
(508.883,20,l),
(561.138,350.425,l),
(471.837,350.425,l)
);
},
{
closed = 1;
nodes = (
(332.392,264.758,l),
(506.941,264.758,l),
(520.798,350.425,l),
(344.432,350.425,l)
);
}
);
width = 600;
}
);
},
{
glyphname = H.ss02;
layers = (
{
layerId = "1A7FA7F6-774C-4A69-BC02-C84AF7C361B9";
shapes = (
{
closed = 1;
nodes = (
(364,0,l),
(496,0,l),
(607.784,710,l),
(475.784,710,l)
);
},
{
closed = 1;
nodes = (
(18,0,l),
(150,0,l),
(261.784,710,l),
(129.784,710,l)
);
},
{
closed = 1;
nodes = (
(85.178,293,l),
(522.178,293,l),
(541.324,415,l),
(104.324,415,l)
);
}
);
width = 600;
},
{
layerId = "772FC93F-B3B8-447D-A30A-419E2FCA5167";
shapes = (
{
closed = 1;
nodes = (
(383,0,l),
(487,0,l),
(598.784,710,l),
(494.784,710,l)
);
},
{
closed = 1;
nodes = (
(27,0,l),
(131,0,l),
(242.784,710,l),
(138.784,710,l)
);
},
{
closed = 1;
nodes = (
(96.005,306,l),
(516.005,306,l),
(531.357,401,l),
(110.357,401,l)
);
}
);
width = 600;
},
{
layerId = "ADDB71F6-EC09-4DA0-80DB-A822AEA2EE7D";
shapes = (
{
closed = 1;
nodes = (
(428,0,l),
(475,0,l),
(586.784,710,l),
(539.784,710,l)
);
},
{
closed = 1;
nodes = (
(39,0,l),
(86,0,l),
(197.784,710,l),
(150.784,710,l)
);
},
{
closed = 1;
nodes = (
(113.519,331,l),
(508.519,331,l),
(515.843,376,l),
(119.843,376,l)
);
}
);
width = 600;
},
{
layerId = "D03DF296-8133-4A96-B1BA-CFDB09DF42C8";
shapes = (
{
closed = 1;
nodes = (
(391.235,0,l),
(484.804,0,l),
(596.588,710,l),
(503.019,710,l)
);
},
{
closed = 1;
nodes = (
(29.196,0,l),
(122.765,0,l),
(234.549,710,l),
(140.98,710,l)
);
},
{
closed = 1;
nodes = (
(99.211,310.575,l),
(514.635,310.575,l),
(528.518,396.425,l),
(112.093,396.425,l)
);
}
);
width = 600;
}
);
},
{
glyphname = I.ss02;
layers = (
{
anchors = (
{
name = top;
pos = (372.784,710);
}
);
layerId = "1A7FA7F6-774C-4A69-BC02-C84AF7C361B9";
shapes = (
{
closed = 1;
nodes = (
(192,0,l),
(324,0,l),
(435.784,710,l),
(303.784,710,l)
);
},
{
closed = 1;
nodes = (
(35,0,l),
(484,0,l),
(500.724,119,l),
(51.724,119,l)
);
},
{
closed = 1;
nodes = (
(128.2,592,l),
(577.2,592,l),
(593.784,710,l),
(144.784,710,l)
);
}
);
width = 600;
},
{
anchors = (
{
name = top;
pos = (372.784,710);
}
);
layerId = "772FC93F-B3B8-447D-A30A-419E2FCA5167";
shapes = (
{
closed = 1;
nodes = (
(204,0,l),
(308,0,l),
(419.784,710,l),
(315.784,710,l)
);
},
{
closed = 1;
nodes = (
(41,0,l),
(473,0,l),
(486.351,95,l),
(54.351,95,l)
);
},
{
closed = 1;
nodes = (
(138.433,615,l),
(570.433,615,l),
(583.784,710,l),
(151.784,710,l)
);
}
);
width = 600;
},
{
anchors = (
{
name = top;
pos = (372.784,710);
}
);
layerId = "ADDB71F6-EC09-4DA0-80DB-A822AEA2EE7D";
shapes = (
{
closed = 1;
nodes = (
(233,0,l),
(280,0,l),
(391.784,710,l),
(344.784,710,l)
);
},
{
closed = 1;
nodes = (
(53,0,l),
(461,0,l),
(467.324,45,l),
(59.324,45,l)
);
},
{
closed = 1;
nodes = (
(157.46,665,l),
(565.46,665,l),
(571.784,710,l),
(163.784,710,l)
);
}
);
width = 600;
},
{
anchors = (
{
name = top;
pos = (372.784,710);
}
);
layerId = "D03DF296-8133-4A96-B1BA-CFDB09DF42C8";
shapes = (
{
closed = 1;
nodes = (
(209.307,0,l),
(302.876,0,l),
(414.66,710,l),
(321.091,710,l)
);
},
{
closed = 1;
nodes = (
(43.196,0,l),
(470.804,0,l),
(482.869,85.85,l),
(55.261,85.85,l)
);
},
{
closed = 1;
nodes = (
(141.915,624.15,l),
(569.523,624.15,l),
(581.588,710,l),
(153.98,710,l)
);
}
);
width = 600;
}
);
},
{
glyphname = J.ss02;
layers = (
{
anchors = (
{
name = top;
pos = (426.784,710);
}
);
layerId = "1A7FA7F6-774C-4A69-BC02-C84AF7C361B9";
shapes = (
{
closed = 1;
nodes = (
(195.779,589,l),
(477.779,589,l),
(496.784,710,l),
(212.784,710,l)
);
},
{
closed = 1;
nodes = (
(558.784,710,l),
(426.784,710,l),
(356.255,265.574,ls),
(340.903,170.574,o),
(278.57,120,o),
(177.57,120,cs),
(137.57,120,o),
(94.834,127.937,o),
(36.505,146.937,c),
(0.347,23.287,l),
(54.255,1.287,o),
(104.89,-10,o),
(166.89,-10,cs),
(354.89,-10,o),
(458.935,77.426,o),
(487.795,261.426,cs)
);
}
);
width = 600;
},
{
anchors = (
{
name = top;
pos = (428.784,710);
}
);
layerId = "772FC93F-B3B8-447D-A30A-419E2FCA5167";
shapes = (
{
closed = 1;
nodes = (
(209.433,615,l),
(482.433,615,l),
(496.784,710,l),
(222.784,710,l)
);
},
{
closed = 1;
nodes = (
(548.784,710,l),
(444.784,710,l),
(375.897,262.848,ls),
(357.454,145.848,o),
(291.377,85,o),
(186.377,85,cs),
(144.377,85,o),
(84.365,98.011,o),
(33.176,118.011,c),
(4.335,28.028,l),
(62.962,4.028,o),
(123.164,-10,o),
(175.164,-10,cs),
(352.164,-10,o),
(452.011,78.152,o),
(479.871,262.152,cs)
);
}
);
width = 600;
},
{
anchors = (
{
name = top;
pos = (456.784,710);
}
);
layerId = "ADDB71F6-EC09-4DA0-80DB-A822AEA2EE7D";
shapes = (
{
closed = 1;
nodes = (
(222.46,665,l),
(507.46,665,l),
(513.784,710,l),
(228.784,710,l)
);
},
{
closed = 1;
nodes = (
(533.784,710,l),
(486.784,710,l),
(416.705,261.284,ls),
(393.764,112.284,o),
(321.831,36,o),
(182.831,36,cs),
(139.831,36,o),
(95.402,39.576,o),
(38.354,60.576,c),
(22.47,16.413,l),
(72.94,-1.587,o),
(118.823,-10,o),
(175.823,-10,cs),
(347.823,-10,o),
(435.223,79.716,o),
(464.083,263.716,cs)
);
}
);
width = 600;
},
{
anchors = (
{
name = top;
pos = (433.908,710);
}
);
layerId = "D03DF296-8133-4A96-B1BA-CFDB09DF42C8";
shapes = (
{
closed = 1;
nodes = (
(211.817,624.15,l),
(487.013,624.15,l),
(499.895,710,l),
(223.882,710,l)
);
},
{
closed = 1;
nodes = (
(546.039,710,l),
(452.47,710,l),
(383.365,262.562,ls),
(364.099,139.706,o),
(296.95,76.033,o),
(185.728,76.033,cs),
(143.545,76.033,o),
(86.385,87.317,o),
(34.124,107.5,c),
(7.654,25.903,l),
(64.788,3,o),
(122.369,-10,o),
(175.284,-10,cs),
(351.369,-10,o),
(448.939,78.438,o),
(476.982,262.438,cs)
);
}
);
width = 600;
}
);
},
{
glyphname = L.ss02;
layers = (
{
layerId = "1A7FA7F6-774C-4A69-BC02-C84AF7C361B9";
shapes = (
{
closed = 1;
nodes = (
(60,0,l),
(192,0,l),
(303.784,710,l),
(171.784,710,l)
);
},
{
closed = 1;
nodes = (
(121,0,l),
(518,0,l),
(535.146,122,l),
(140.146,122,l)
);
}
);
width = 600;
},
{
layerId = "772FC93F-B3B8-447D-A30A-419E2FCA5167";
shapes = (
{
closed = 1;
nodes = (
(69,0,l),
(173,0,l),
(284.784,710,l),
(180.784,710,l)
);
},
{
closed = 1;
nodes = (
(110,0,l),
(509,0,l),
(522.351,95,l),
(124.351,95,l)
);
}
);
width = 600;
},
{
layerId = "ADDB71F6-EC09-4DA0-80DB-A822AEA2EE7D";
shapes = (
{
closed = 1;
nodes = (
(81,0,l),
(128,0,l),
(239.784,710,l),
(192.784,710,l)
);
},
{
closed = 1;
nodes = (
(102,0,l),
(507,0,l),
(513.324,45,l),
(108.324,45,l)
);
}
);
width = 600;
},
{
layerId = "D03DF296-8133-4A96-B1BA-CFDB09DF42C8";
shapes = (
{
closed = 1;
nodes = (
(71.196,0,l),
(164.765,0,l),
(276.549,710,l),
(182.98,710,l)
);
},
{
closed = 1;
nodes = (
(108.536,0,l),
(508.634,0,l),
(520.699,85.85,l),
(121.418,85.85,l)
);
}
);
width = 600;
}
);
},
{
glyphname = N.ss02;
layers = (
{
anchors = (
{
name = top;
pos = (370.784,710);
}
);
layerId = "1A7FA7F6-774C-4A69-BC02-C84AF7C361B9";
shapes = (
{
closed = 1;
nodes = (
(294,0,l),
(380,0,l),
(404.784,155,l),
(370.784,155,l),
(330.784,710,l),
(223.784,710,l),
(200,555,l),
(254,555,l)
);
},
{
closed = 1;
nodes = (
(22,0,l),
(149,0,l),
(260.784,710,l),
(133.784,710,l)
);
},
{
closed = 1;
nodes = (
(364,0,l),
(491,0,l),
(602.784,710,l),
(475.784,710,l)
);
}
);
width = 600;
},
{
anchors = (
{
name = top;
pos = (370.784,710);
}
);
layerId = "772FC93F-B3B8-447D-A30A-419E2FCA5167";
shapes = (
{
closed = 1;
nodes = (
(348,0,l),
(393,0,l),
(419.892,170,l),
(395.892,170,l),
(276.784,710,l),
(210.784,710,l),
(182.892,540,l),
(229.892,540,l)
);
},
{
closed = 1;
nodes = (
(31,0,l),
(135,0,l),
(246.784,710,l),
(142.784,710,l)
);
},
{
closed = 1;
nodes = (
(379,0,l),
(483,0,l),
(594.784,710,l),
(490.784,710,l)
);
}
);
width = 600;
},
{
anchors = (
{
name = top;
pos = (370.784,710);
}
);
layerId = "ADDB71F6-EC09-4DA0-80DB-A822AEA2EE7D";
shapes = (
{
closed = 1;
nodes = (
(390,0,l),
(441,0,l),
(447.184,44,l),
(427.184,44,l),
(234.784,710,l),
(176.784,710,l),
(169.6,666,l),
(198.6,666,l)
);
},
{
closed = 1;
nodes = (
(43,0,l),
(90,0,l),
(201.784,710,l),
(154.784,710,l)
);
},
{
closed = 1;
nodes = (
(424,0,l),
(471,0,l),
(582.784,710,l),
(535.784,710,l)
);
}
);
width = 600;
},
{
anchors = (
{
name = top;
pos = (370.784,710);
}
);
layerId = "D03DF296-8133-4A96-B1BA-CFDB09DF42C8";
shapes = (
{
closed = 1;
nodes = (
(355.686,0,l),
(401.784,0,l),
(424.887,146.941,l),
(401.619,146.941,l),
(269.098,710,l),
(204.562,710,l),
(180.46,563.059,l),
(224.165,563.059,l)
);
},
{
closed = 1;
nodes = (
(33.196,0,l),
(126.765,0,l),
(238.549,710,l),
(144.98,710,l)
);
},
{
closed = 1;
nodes = (
(387.235,0,l),
(480.804,0,l),
(592.588,710,l),
(499.019,710,l)
);
}
);
width = 600;
}
);
},
{
glyphname = Q.ss02;
layers = (
{
layerId = "1A7FA7F6-774C-4A69-BC02-C84AF7C361B9";
shapes = (
{
closed = 1;
nodes = (
(444.892,-200,l),
(462.6,-74,l),
(414.305,-74,ls),
(340.305,-74,o),
(312.508,-46.574,o),
(322.221,15.426,c),
(190.246,23.574,l),
(166.586,-123.426,o),
(240.187,-200,o),
(401.187,-200,cs)
);
},
{
ref = O;
}
);
width = 600;
},
{
layerId = "772FC93F-B3B8-447D-A30A-419E2FCA5167";
shapes = (
{
closed = 1;
nodes = (
(434.892,-200,l),
(447.541,-110,l),
(401.971,-110,ls),
(322.971,-110,o),
(293.213,-69.848,o),
(306.3,16.152,c),
(208.159,22.848,l),
(184.499,-124.152,o),
(247.461,-200,o),
(392.461,-200,cs)
);
},
{
ref = O;
}
);
width = 600;
},
{
layerId = "ADDB71F6-EC09-4DA0-80DB-A822AEA2EE7D";
shapes = (
{
closed = 1;
nodes = (
(434.892,-200,l),
(441.076,-156,l),
(419.847,-156,ls),
(312.847,-156,o),
(261.053,-92.284,o),
(278.512,17.716,c),
(233.974,21.284,l),
(212.298,-118.716,o),
(279.121,-200,o),
(415.121,-200,cs)
);
},
{
ref = O;
}
);
width = 600;
},
{
layerId = "D03DF296-8133-4A96-B1BA-CFDB09DF42C8";
shapes = (
{
closed = 1;
nodes = (
(434.892,-200,l),
(446.357,-118.418,l),
(405.243,-118.418,ls),
(321.119,-118.418,o),
(287.328,-73.954,o),
(301.215,16.438,c),
(212.883,22.562,l),
(189.587,-123.157,o),
(253.255,-200,o),
(396.608,-200,cs)
);
},
{
alignment = -1;
ref = O;
}
);
width = 600;
}
);
},
{
glyphname = T.ss02;
layers = (
{
layerId = "1A7FA7F6-774C-4A69-BC02-C84AF7C361B9";
shapes = (
{
closed = 1;
nodes = (
(193,0,l),
(325,0,l),
(436.784,710,l),
(304.784,710,l)
);
},
{
closed = 1;
nodes = (
(83.779,589,l),
(620.779,589,l),
(637.784,710,l),
(100.784,710,l)
);
}
);
width = 600;
},
{
layerId = "772FC93F-B3B8-447D-A30A-419E2FCA5167";
shapes = (
{
closed = 1;
nodes = (
(206,0,l),
(310,0,l),
(421.784,710,l),
(317.784,710,l)
);
},
{
closed = 1;
nodes = (
(96.433,615,l),
(616.433,615,l),
(629.784,710,l),
(109.784,710,l)
);
}
);
width = 600;
},
{
layerId = "ADDB71F6-EC09-4DA0-80DB-A822AEA2EE7D";
shapes = (
{
closed = 1;
nodes = (
(233,0,l),
(280,0,l),
(391.784,710,l),
(344.784,710,l)
);
},
{
closed = 1;
nodes = (
(113.46,665,l),
(609.46,665,l),
(615.784,710,l),
(119.784,710,l)
);
}
);
width = 600;
},
{
layerId = "D03DF296-8133-4A96-B1BA-CFDB09DF42C8";
shapes = (
{
closed = 1;
nodes = (
(210.941,0,l),
(304.51,0,l),
(416.294,710,l),
(322.725,710,l)
);
},
{
closed = 1;
nodes = (
(99.549,624.15,l),
(615.157,624.15,l),
(627.222,710,l),
(111.614,710,l)
);
}
);
width = 600;
}
);
},
{
glyphname = Y.ss02;
layers = (
{
anchors = (
{
name = top;
pos = (370.784,710);
}
);
layerId = "1A7FA7F6-774C-4A69-BC02-C84AF7C361B9";
shapes = (
{
closed = 1;
nodes = (
(233.795,212,l),
(349.795,212,l),
(666.784,710,l),
(522.784,710,l),
(325.406,380,l),
(317.406,380,l),
(225.784,710,l),
(74.784,710,l)
);
},
{
closed = 1;
nodes = (
(192,0,l),
(324,0,l),
(379.189,350,l),
(247.189,350,l)
);
}
);
width = 600;
},
{
anchors = (
{
name = top;
pos = (370.784,710);
}
);
layerId = "772FC93F-B3B8-447D-A30A-419E2FCA5167";
shapes = (
{
closed = 1;
nodes = (
(253.308,237,l),
(338.308,237,l),
(657.784,710,l),
(550.784,710,l),
(321.892,355,l),
(312.892,355,l),
(195.784,710,l),
(82.784,710,l)
);
},
{
closed = 1;
nodes = (
(206,0,l),
(310,0,l),
(365.189,350,l),
(261.189,350,l)
);
}
);
width = 600;
},
{
anchors = (
{
name = top;
pos = (370.784,710);
}
);
layerId = "ADDB71F6-EC09-4DA0-80DB-A822AEA2EE7D";
shapes = (
{
closed = 1;
nodes = (
(284.605,232,l),
(309.605,232,l),
(648.784,710,l),
(592.784,710,l),
(310.443,302,l),
(306.443,302,l),
(151.784,710,l),
(97.784,710,l)
);
},
{
closed = 1;
nodes = (
(235,0,l),
(282,0,l),
(328.46,295,l),
(281.46,295,l)
);
}
);
width = 600;
},
{
anchors = (
{
name = top;
pos = (370.784,710);
}
);
layerId = "D03DF296-8133-4A96-B1BA-CFDB09DF42C8";
shapes = (
{
closed = 1;
nodes = (
(259.036,236.085,l),
(333.055,236.085,l),
(656.137,710,l),
(558.47,710,l),
(319.797,345.301,l),
(311.712,345.301,l),
(187.732,710,l),
(85.529,710,l)
);
},
{
closed = 1;
nodes = (
(211.307,0,l),
(304.876,0,l),
(358.468,339.935,l),
(264.899,339.935,l)
);
}
);
width = 600;
}
);
},
{
glyphname = Z.ss02;
layers = (
{
anchors = (
{
name = top;
pos = (370.784,710);
}
);
layerId = "1A7FA7F6-774C-4A69-BC02-C84AF7C361B9";
shapes = (
{
closed = 1;
nodes = (
(115.778,34,l),
(582.779,589,l),
(508.708,681,l),
(41.146,122,l)
);
},
{
closed = 1;
nodes = (
(24,0,l),
(501,0,l),
(518.146,122,l),
(41.146,122,l)
);
},
{
closed = 1;
nodes = (
(116.779,589,l),
(582.779,589,l),
(599.784,710,l),
(133.784,710,l)
);
}
);
width = 600;
},
{
anchors = (
{
name = top;
pos = (370.784,710);
}
);
layerId = "772FC93F-B3B8-447D-A30A-419E2FCA5167";
shapes = (
{
closed = 1;
nodes = (
(113.778,34,l),
(580.433,615,l),
(515.708,681,l),
(48.351,95,l)
);
},
{
closed = 1;
nodes = (
(35,0,l),
(494,0,l),
(507.351,95,l),
(48.351,95,l)
);
},
{
closed = 1;
nodes = (
(131.433,615,l),
(580.433,615,l),
(593.784,710,l),
(144.784,710,l)
);
}
);
width = 600;
},
{
anchors = (
{
name = top;
pos = (370.784,710);
}
);
layerId = "ADDB71F6-EC09-4DA0-80DB-A822AEA2EE7D";
shapes = (
{
closed = 1;
nodes = (
(84.67,19,l),
(576.46,665,l),
(544.114,691,l),
(52.324,45,l)
);
},
{
closed = 1;
nodes = (
(46,0,l),
(482,0,l),
(488.324,45,l),
(52.324,45,l)
);
},
{
closed = 1;
nodes = (
(150.46,665,l),
(576.46,665,l),
(582.784,710,l),
(156.784,710,l)
);
}
);
width = 600;
},
{
anchors = (
{
name = top;
pos = (370.784,710);
}
);
layerId = "D03DF296-8133-4A96-B1BA-CFDB09DF42C8";
shapes = (
{
closed = 1;
nodes = (
(108.451,31.255,l),
(579.706,624.15,l),
(520.907,682.83,l),
(49.078,85.85,l)
);
},
{
closed = 1;
nodes = (
(37.013,0,l),
(491.804,0,l),
(503.869,85.85,l),
(49.078,85.85,l)
);
},
{
closed = 1;
nodes = (
(134.915,624.15,l),
(579.706,624.15,l),
(591.771,710,l),
(146.98,710,l)
);
}
);
width = 600;
}
);
},
{
glyphname = J.ss03;
layers = (
{
anchors = (
{
name = top;
pos = (400.784,710);
}
);
layerId = "1A7FA7F6-774C-4A69-BC02-C84AF7C361B9";
shapes = (
{
closed = 1;
nodes = (
(343.892,291.878,l),
(228.514,331.878,o),
(191.309,386.426,o),
(203.817,475.426,cs),
(212.952,540.426,o),
(262.058,596,o),
(333.058,596,cs),
(396.058,596,o),
(426.85,554.573,o),
(408.391,444.573,cs),
(351.335,102,l),
(361.195,101,l),
(338.822,0.563,ls),
(327.654,-50.437,o),
(297.899,-84,o),
(262.899,-84,cs),
(233.899,-84,o),
(221.644,-66.574,o),
(225.157,-41.574,cs),
(229.233,-12.574,o),
(258.198,14.831,o),
(312.728,32.831,cs),
(584.865,120,l),
(568.308,237,l),
(261.292,138.141,ls),
(164.935,107.141,o),
(105.843,41.574,o),
(94.459,-39.426,cs),
(81.81,-129.426,o),
(140.484,-205,o),
(241.484,-205,cs),
(352.484,-205,o),
(440.737,-123.573,o),
(462.585,3.427,cs),
(539.006,440.427,ls),
(570.725,623.427,o),
(495.894,720,o),
(347.894,720,cs),
(178.894,720,o),
(87.546,601.574,o),
(69.978,476.574,cs),
(49.74,332.574,o),
(125.178,228.187,o),
(276.307,172.187,c)
);
}
);
width = 600;
},
{
anchors = (
{
name = top;
pos = (399.784,710);
}
);
layerId = "772FC93F-B3B8-447D-A30A-419E2FCA5167";
shapes = (
{
closed = 1;
nodes = (
(338.817,265.118,l),
(212.86,308.118,o),
(158.865,376.152,o),
(173.481,480.152,cs),
(185.146,563.152,o),
(244.688,627,o),
(325.688,627,cs),
(409.688,627,o),
(442.44,572.847,o),
(423.699,460.847,cs),
(365.476,103,l),
(374.335,102,l),
(354.348,-11.153,ls),
(343.775,-72.153,o),
(304.55,-113,o),
(262.55,-113,cs),
(228.55,-113,o),
(211.373,-89.848,o),
(216.151,-55.848,cs),
(222.054,-13.848,o),
(260.362,13.977,o),
(315.173,33.977,cs),
(578.989,128,l),
(565.778,219,l),
(273.765,115.016,ls),
(179.986,81.016,o),
(127.368,16.848,o),
(117.249,-55.152,cs),
(105.303,-140.152,o),
(163.758,-205,o),
(250.758,-205,cs),
(351.758,-205,o),
(429.099,-127.847,o),
(448.261,-12.847,cs),
(527.311,457.152,ls),
(554.5,622.152,o),
(484.62,720,o),
(336.62,720,cs),
(185.62,720,o),
(89.849,610.848,o),
(71.719,481.848,cs),
(51.2,335.848,o),
(133.164,232.93,o),
(290.154,175.93,c)
);
}
);
width = 600;
},
{
anchors = (
{
name = top;
pos = (398.784,710);
}
);
layerId = "ADDB71F6-EC09-4DA0-80DB-A822AEA2EE7D";
shapes = (
{
closed = 1;
nodes = (
(331.515,232.647,l),
(190.418,274.647,o),
(109.993,355.715,o),
(128.122,484.715,cs),
(143.16,591.715,o),
(220.094,675,o),
(330.094,675,cs),
(436.094,675,o),
(479.752,610.284,o),
(458.357,472.284,cs),
(400.616,104,l),
(400.476,103,l),
(381.074,-20.716,ls),
(368.269,-104.716,o),
(321.144,-161,o),
(260.144,-161,cs),
(210.144,-161,o),
(182.83,-129.285,o),
(189.857,-79.285,cs),
(196.744,-30.285,o),
(232.631,3.514,o),
(307.707,32.514,cs),
(566.551,132,l),
(557.595,175,l),
(293.192,73.488,ls),
(197.992,36.488,o),
(154.775,-8.715,o),
(145.078,-77.715,cs),
(134.537,-152.715,o),
(181.418,-205,o),
(254.418,-205,cs),
(343.418,-205,o),
(409.15,-134.284,o),
(426.75,-23.284,cs),
(504.178,470.716,ls),
(529.805,631.716,o),
(464.961,720,o),
(334.961,720,cs),
(199.961,720,o),
(100.894,618.285,o),
(82.202,485.285,cs),
(61.402,337.285,o),
(157.097,241.384,o),
(312.929,190.384,c)
);
}
);
width = 600;
},
{
anchors = (
{
name = top;
pos = (399.601,710);
}
);
layerId = "D03DF296-8133-4A96-B1BA-CFDB09DF42C8";
shapes = (
{
closed = 1;
nodes = (
(337.481,259.175,l),
(208.753,301.992,o),
(149.921,372.412,o),
(165.18,480.987,cs),
(177.462,568.379,o),
(240.187,635.784,o),
(326.494,635.784,cs),
(414.521,635.784,o),
(449.268,579.699,o),
(430.042,462.94,cs),
(371.907,103.183,l),
(379.119,102.183,l),
(359.239,-12.903,ls),
(348.258,-78.112,o),
(307.587,-121.784,o),
(262.11,-121.784,cs),
(225.181,-121.784,o),
(206.149,-97.065,o),
(211.339,-60.137,cs),
(217.422,-16.856,o),
(255.287,12.063,o),
(313.807,33.71,cs),
(576.713,128.732,l),
(564.281,210.948,l),
(277.32,107.417,ls),
(183.281,72.868,o),
(132.384,12.17,o),
(122.342,-59.281,cs),
(110.653,-142.451,o),
(166.99,-205,o),
(251.428,-205,cs),
(350.232,-205,o),
(425.448,-129.025,o),
(444.325,-14.757,cs),
(523.077,459.635,ls),
(549.981,623.903,o),
(481.022,720,o),
(336.317,720,cs),
(188.245,720,o),
(91.87,612.209,o),
(73.638,482.477,cs),
(53.067,336.111,o),
(137.544,234.477,o),
(294.322,178.575,c)
);
}
);
width = 600;
}
);
},
{
export = 0;
glyphname = A.half;
layers = (
{
layerId = "1A7FA7F6-774C-4A69-BC02-C84AF7C361B9";
shapes = (
{
closed = 1;
nodes = (
(-23,0,l),
(57,0,l),
(204.433,245,l),
(210.433,245,l),
(289,0,l),
(369,0,l),
(256.833,319,l),
(178.833,319,l)
);
},
{
closed = 1;
nodes = (
(53.449,53,l),
(305.449,53,l),
(314.724,119,l),
(62.724,119,l)
);
}
);
width = 420;
},
{
layerId = "772FC93F-B3B8-447D-A30A-419E2FCA5167";
shapes = (
{
closed = 1;
nodes = (
(-19,0,l),
(46,0,l),
(208.103,264,l),
(212.103,264,l),
(301,0,l),
(365,0,l),
(248.833,319,l),
(186.833,319,l)
);
},
{
closed = 1;
nodes = (
(53.87,56,l),
(305.87,56,l),
(313.6,111,l),
(61.6,111,l)
);
}
);
width = 420;
},
{
layerId = "ADDB71F6-EC09-4DA0-80DB-A822AEA2EE7D";
shapes = (
{
closed = 1;
nodes = (
(-15,0,l),
(35,0,l),
(210.633,282,l),
(215.633,282,l),
(311,0,l),
(362,0,l),
(250.833,319,l),
(184.833,319,l)
);
},
{
closed = 1;
nodes = (
(55.135,65,l),
(307.135,65,l),
(313.319,109,l),
(61.319,109,l)
);
}
);
width = 421;
},
{
layerId = "D03DF296-8133-4A96-B1BA-CFDB09DF42C8";
shapes = (
{
closed = 1;
nodes = (
(-18.268,0,l),
(43.987,0,l),
(208.566,267.294,l),
(212.749,267.294,l),
(302.83,0,l),
(364.451,0,l),
(249.199,319,l),
(186.467,319,l)
);
},
{
closed = 1;
nodes = (
(54.102,57.647,l),
(306.102,57.647,l),
(313.549,110.634,l),
(61.549,110.634,l)
);
}
);
width = 420.18301;
}
);
},
{
export = 0;
glyphname = B.half;
layers = (
{
layerId = "1A7FA7F6-774C-4A69-BC02-C84AF7C361B9";
shapes = (
{
closed = 1;
nodes = (
(89,0,l),
(233.295,0,ls),
(316.295,0,o),
(364.573,25.426,o),
(371.6,75.426,cs),
(378.346,123.426,o),
(329.348,154,o),
(242.348,154,cs),
(103.643,154,l),
(107.989,128,l),
(249.284,128,ls),
(283.284,128,o),
(298.086,121.574,o),
(295.416,102.574,cs),
(292.605,82.574,o),
(270.262,68,o),
(239.262,68,cs),
(98.557,68,l)
);
},
{
closed = 1;
nodes = (
(17,0,l),
(93,0,l),
(137.833,319,l),
(61.833,319,l)
);
},
{
closed = 1;
nodes = (
(81.957,142,l),
(240.957,142,l),
(245.735,176,l),
(86.735,176,l)
);
},
{
closed = 1;
nodes = (
(112.47,167,l),
(241.766,167,ls),
(315.766,167,o),
(358.622,189.426,o),
(365.087,235.426,cs),
(372.395,287.426,o),
(331.537,319,o),
(258.537,319,cs),
(126.833,319,l),
(125.416,252,l),
(251.711,252,ls),
(272.711,252,o),
(281.654,246.574,o),
(278.984,227.574,cs),
(276.173,207.574,o),
(259.97,194,o),
(241.97,194,cs),
(116.265,194,l)
);
}
);
width = 420;
},
{
layerId = "772FC93F-B3B8-447D-A30A-419E2FCA5167";
shapes = (
{
closed = 1;
nodes = (
(72,0,l),
(219.569,0,ls),
(313.569,0,o),
(360.394,24.152,o),
(367.983,78.152,cs),
(375.292,130.152,o),
(340.777,159,o),
(269.777,159,cs),
(86.346,159,l),
(92.114,136,l),
(237.683,136,ls),
(289.683,136,o),
(312.687,125.848,o),
(308.892,98.848,cs),
(304.957,70.848,o),
(273.02,54,o),
(220.02,54,cs),
(79.589,54,l)
);
},
{
closed = 1;
nodes = (
(21,0,l),
(82,0,l),
(126.833,319,l),
(65.833,319,l)
);
},
{
closed = 1;
nodes = (
(86.8,148,l),
(256.8,148,l),
(261.578,182,l),
(91.578,182,l)
);
},
{
closed = 1;
nodes = (
(95.892,170,l),
(267.461,170,ls),
(328.461,170,o),
(359.724,190.152,o),
(366.048,235.152,cs),
(373.778,290.152,o),
(333.263,319,o),
(249.263,319,cs),
(108.833,319,l),
(110.243,265,l),
(248.812,265,ls),
(289.812,265,o),
(306.098,256.848,o),
(302.584,231.848,cs),
(299.071,206.848,o),
(277.274,191,o),
(242.274,191,cs),
(98.843,191,l)
);
}
);
width = 420;
},
{
layerId = "ADDB71F6-EC09-4DA0-80DB-A822AEA2EE7D";
shapes = (
{
closed = 1;
nodes = (
(66,0,l),
(232.229,0,ls),
(311.229,0,o),
(359.176,29.715,o),
(366.765,83.715,cs),
(373.652,132.715,o),
(335.679,163,o),
(265.679,163,cs),
(81.908,163,l),
(86.816,141,l),
(253.045,141,ls),
(300.045,141,o),
(323.467,124.285,o),
(318.829,91.285,cs),
(314.754,62.285,o),
(280.955,44,o),
(227.955,44,cs),
(72.184,44,l)
);
},
{
closed = 1;
nodes = (
(24,0,l),
(71,0,l),
(115.833,319,l),
(68.833,319,l)
);
},
{
closed = 1;
nodes = (
(76.643,154,l),
(269.643,154,l),
(272.314,173,l),
(79.314,173,l)
);
},
{
closed = 1;
nodes = (
(89.189,165,l),
(253.418,165,ls),
(317.418,165,o),
(356.663,189.715,o),
(363.128,235.715,cs),
(370.576,288.715,o),
(332.604,319,o),
(260.604,319,cs),
(103.833,319,l),
(105.649,275,l),
(257.877,275,ls),
(297.877,275,o),
(317.721,261.285,o),
(313.786,233.285,cs),
(309.71,204.285,o),
(286.912,186,o),
(252.912,186,cs),
(92.141,186,l)
);
}
);
width = 420;
},
{
layerId = "D03DF296-8133-4A96-B1BA-CFDB09DF42C8";
shapes = (
{
closed = 1;
nodes = (
(70.902,0,l),
(221.886,0,ls),
(313.141,0,o),
(360.171,25.17,o),
(367.761,79.17,cs),
(374.992,130.621,o),
(339.844,159.732,o),
(269.027,159.732,cs),
(85.534,159.732,l),
(91.144,136.915,l),
(240.494,136.915,ls),
(291.579,136.915,o),
(314.66,125.562,o),
(310.711,97.464,cs),
(306.75,69.281,o),
(274.472,52.17,o),
(221.472,52.17,cs),
(78.234,52.17,l)
);
},
{
closed = 1;
nodes = (
(21.549,0,l),
(79.987,0,l),
(124.819,319,l),
(66.382,319,l)
);
},
{
closed = 1;
nodes = (
(84.941,149.098,l),
(259.15,149.098,l),
(263.543,180.353,l),
(89.334,180.353,l)
);
},
{
closed = 1;
nodes = (
(94.665,169.085,l),
(264.891,169.085,ls),
(326.44,169.085,o),
(359.164,190.072,o),
(365.514,235.255,cs),
(373.192,289.889,o),
(333.143,319,o),
(251.339,319,cs),
(107.917,319,l),
(109.402,266.83,l),
(250.471,266.83,ls),
(291.288,266.83,o),
(308.225,257.66,o),
(304.634,232.111,cs),
(301.018,206.379,o),
(279.038,190.085,o),
(244.221,190.085,cs),
(97.617,190.085,l)
);
}
);
width = 420;
}
);
},
{
export = 0;
glyphname = C.half;
layers = (
{
layerId = "1A7FA7F6-774C-4A69-BC02-C84AF7C361B9";
shapes = (
{
closed = 1;
nodes = (
(275.733,-4,o),
(319.052,-0.926,o),
(361.598,10.074,c),
(348.456,75.842,l),
(314.332,67.842,o),
(278.559,63,o),
(246.559,63,cs),
(138.559,63,o),
(89.99,92.426,o),
(99.406,159.426,cs),
(107.698,218.426,o),
(173.274,256,o),
(260.274,256,cs),
(303.274,256,o),
(340.915,249.894,o),
(362.807,234.894,c),
(404.31,291.993,l),
(378.981,310.993,o),
(330.24,324,o),
(262.24,324,cs),
(119.24,324,o),
(33.605,267.574,o),
(18.989,163.574,cs),
(3.529,53.574,o),
(76.733,-4,o),
(230.733,-4,cs)
);
}
);
width = 420;
},
{
layerId = "772FC93F-B3B8-447D-A30A-419E2FCA5167";
shapes = (
{
closed = 1;
nodes = (
(269.007,-4,o),
(309.364,-0.773,o),
(349.91,10.227,c),
(344.226,68.854,l),
(307.68,57.854,o),
(271.739,52,o),
(235.739,52,cs),
(121.739,52,o),
(70.108,86.152,o),
(80.508,160.152,cs),
(89.784,226.152,o),
(161.094,267,o),
(258.094,267,cs),
(304.094,267,o),
(346.029,261.236,o),
(371.202,248.236,c),
(399.051,293.535,l),
(371.58,311.535,o),
(324.966,324,o),
(259.966,324,cs),
(119.966,324,o),
(33.503,266.848,o),
(18.887,162.848,cs),
(3.427,52.848,o),
(75.007,-4,o),
(227.007,-4,cs)
);
}
);
width = 420;
},
{
layerId = "ADDB71F6-EC09-4DA0-80DB-A822AEA2EE7D";
shapes = (
{
closed = 1;
nodes = (
(269.667,-4,o),
(310.137,-0.341,o),
(351.683,10.659,c),
(344.448,54.329,l),
(309.183,45.329,o),
(271.533,41,o),
(238.533,41,cs),
(115.533,41,o),
(60.203,79.715,o),
(71.728,161.715,cs),
(82.128,235.715,o),
(156.44,279,o),
(259.44,279,cs),
(305.44,279,o),
(346.933,269.703,o),
(370.543,252.703,c),
(398.21,293.261,l),
(373.881,312.261,o),
(328.307,324,o),
(262.307,324,cs),
(123.307,324,o),
(37.283,265.285,o),
(22.667,161.285,cs),
(7.208,51.285,o),
(76.667,-4,o),
(226.667,-4,cs)
);
}
);
width = 420;
},
{
layerId = "D03DF296-8133-4A96-B1BA-CFDB09DF42C8";
shapes = (
{
closed = 1;
nodes = (
(269.128,-4,o),
(309.505,-0.694,o),
(350.234,10.306,c),
(344.266,66.196,l),
(307.955,55.562,o),
(271.701,49.987,o),
(236.25,49.987,cs),
(120.603,49.987,o),
(68.295,84.974,o),
(78.901,160.438,cs),
(88.382,227.902,o),
(160.242,269.196,o),
(258.34,269.196,cs),
(304.34,269.196,o),
(346.194,262.785,o),
(371.082,249.053,c),
(398.897,293.484,l),
(372.001,311.667,o),
(325.577,324,o),
(260.394,324,cs),
(120.577,324,o),
(34.195,266.562,o),
(19.579,162.562,cs),
(4.119,52.562,o),
(75.311,-4,o),
(226.945,-4,cs)
);
}
);
width = 420;
}
);
},
{
export = 0;
glyphname = D.half;
layers = (
{
layerId = "1A7FA7F6-774C-4A69-BC02-C84AF7C361B9";
shapes = (
{
closed = 1;
nodes = (
(89,0,l),
(192.295,0,ls),
(311.295,0,o),
(375.665,47.426,o),
(390.422,152.426,cs),
(405.741,261.426,o),
(349.537,319,o),
(230.537,319,cs),
(126.833,319,l),
(125.416,252,l),
(227.711,252,ls),
(293.711,252,o),
(320.421,223.574,o),
(311.427,159.574,cs),
(303.135,100.574,o),
(261.262,68,o),
(195.262,68,cs),
(98.557,68,l)
);
},
{
closed = 1;
nodes = (
(17,0,l),
(93,0,l),
(137.833,319,l),
(61.833,319,l)
);
}
);
width = 420;
},
{
layerId = "772FC93F-B3B8-447D-A30A-419E2FCA5167";
shapes = (
{
closed = 1;
nodes = (
(77,0,l),
(171.569,0,ls),
(302.569,0,o),
(370.767,48.152,o),
(385.524,153.152,cs),
(400.843,262.152,o),
(342.263,319,o),
(211.263,319,cs),
(113.833,319,l),
(114.822,262,l),
(208.391,262,ls),
(297.391,262,o),
(334.163,228.848,o),
(324.325,158.848,cs),
(315.049,92.848,o),
(263.442,57,o),
(174.442,57,cs),
(85.011,57,l)
);
},
{
closed = 1;
nodes = (
(21,0,l),
(82,0,l),
(126.833,319,l),
(65.833,319,l)
);
}
);
width = 420;
},
{
layerId = "ADDB71F6-EC09-4DA0-80DB-A822AEA2EE7D";
shapes = (
{
closed = 1;
nodes = (
(66,0,l),
(166.229,0,ls),
(291.229,0,o),
(369.69,54.715,o),
(383.744,154.715,cs),
(398.36,258.715,o),
(333.604,319,o),
(208.604,319,cs),
(103.833,319,l),
(105.649,275,l),
(204.877,275,ls),
(298.877,275,o),
(345.786,233.285,o),
(335.105,157.285,cs),
(325.127,86.285,o),
(263.955,44,o),
(169.955,44,cs),
(72.184,44,l)
);
},
{
closed = 1;
nodes = (
(24,0,l),
(71,0,l),
(115.833,319,l),
(68.833,319,l)
);
}
);
width = 420;
},
{
layerId = "D03DF296-8133-4A96-B1BA-CFDB09DF42C8";
shapes = (
{
closed = 1;
nodes = (
(74.987,0,l),
(170.592,0,ls),
(300.494,0,o),
(370.57,49.353,o),
(385.198,153.438,cs),
(400.389,261.523,o),
(340.679,319,o),
(210.777,319,cs),
(112.002,319,l),
(113.143,264.379,l),
(207.748,264.379,ls),
(297.663,264.379,o),
(336.29,229.66,o),
(326.298,158.562,cs),
(316.893,91.647,o),
(263.536,54.621,o),
(173.621,54.621,cs),
(82.663,54.621,l)
);
},
{
closed = 1;
nodes = (
(21.549,0,l),
(79.987,0,l),
(124.819,319,l),
(66.382,319,l)
);
}
);
width = 420;
}
);
},
{
export = 0;
glyphname = E.half;
layers = (
{
layerId = "1A7FA7F6-774C-4A69-BC02-C84AF7C361B9";
shapes = (
{
closed = 1;
nodes = (
(17,0,l),
(93,0,l),
(137.833,319,l),
(61.833,319,l)
);
},
{
closed = 1;
nodes = (
(17,0,l),
(349,0,l),
(358.557,68,l),
(26.557,68,l)
);
},
{
closed = 1;
nodes = (
(35.411,131,l),
(304.411,131,l),
(312.562,189,l),
(43.562,189,l)
);
},
{
closed = 1;
nodes = (
(52.416,252,l),
(384.416,252,l),
(393.833,319,l),
(61.833,319,l)
);
}
);
width = 420;
},
{
layerId = "772FC93F-B3B8-447D-A30A-419E2FCA5167";
shapes = (
{
closed = 1;
nodes = (
(21,0,l),
(82,0,l),
(126.833,319,l),
(65.833,319,l)
);
},
{
closed = 1;
nodes = (
(21,0,l),
(346,0,l),
(353.589,54,l),
(28.589,54,l)
);
},
{
closed = 1;
nodes = (
(39.832,134,l),
(300.832,134,l),
(308,185,l),
(47,185,l)
);
},
{
closed = 1;
nodes = (
(58.243,265,l),
(383.243,265,l),
(390.833,319,l),
(65.833,319,l)
);
}
);
width = 420;
},
{
layerId = "ADDB71F6-EC09-4DA0-80DB-A822AEA2EE7D";
shapes = (
{
closed = 1;
nodes = (
(24,0,l),
(71,0,l),
(115.833,319,l),
(68.833,319,l)
);
},
{
closed = 1;
nodes = (
(24,0,l),
(343,0,l),
(349.184,44,l),
(30.184,44,l)
);
},
{
closed = 1;
nodes = (
(43.395,138,l),
(299.395,138,l),
(305.578,182,l),
(49.578,182,l)
);
},
{
closed = 1;
nodes = (
(62.649,275,l),
(381.649,275,l),
(387.833,319,l),
(68.833,319,l)
);
}
);
width = 420;
},
{
layerId = "D03DF296-8133-4A96-B1BA-CFDB09DF42C8";
shapes = (
{
closed = 1;
nodes = (
(21.549,0,l),
(79.987,0,l),
(124.819,319,l),
(66.382,319,l)
);
},
{
closed = 1;
nodes = (
(21.549,0,l),
(345.451,0,l),
(352.783,52.17,l),
(28.881,52.17,l)
);
},
{
closed = 1;
nodes = (
(40.484,134.732,l),
(300.569,134.732,l),
(307.557,184.451,l),
(47.472,184.451,l)
);
},
{
closed = 1;
nodes = (
(59.05,266.83,l),
(382.952,266.83,l),
(390.284,319,l),
(66.382,319,l)
);
}
);
width = 420;
}
);
},
{
export = 0;
glyphname = F.half;
layers = (
{
layerId = "1A7FA7F6-774C-4A69-BC02-C84AF7C361B9";
shapes = (
{
closed = 1;
nodes = (
(17,0,l),
(93,0,l),
(137.833,319,l),
(61.833,319,l)
);
},
{
closed = 1;
nodes = (
(32.741,112,l),
(300.741,112,l),
(310.157,179,l),
(42.157,179,l)
);
},
{
closed = 1;
nodes = (
(52.416,252,l),
(384.416,252,l),
(393.833,319,l),
(61.833,319,l)
);
}
);
width = 420;
},
{
layerId = "772FC93F-B3B8-447D-A30A-419E2FCA5167";
shapes = (
{
closed = 1;
nodes = (
(21,0,l),
(82,0,l),
(126.833,319,l),
(65.833,319,l)
);
},
{
closed = 1;
nodes = (
(37.443,117,l),
(306.443,117,l),
(314.032,171,l),
(45.032,171,l)
);
},
{
closed = 1;
nodes = (
(58.243,265,l),
(383.243,265,l),
(390.833,319,l),
(65.833,319,l)
);
}
);
width = 420;
},
{
layerId = "ADDB71F6-EC09-4DA0-80DB-A822AEA2EE7D";
shapes = (
{
closed = 1;
nodes = (
(24,0,l),
(71,0,l),
(115.833,319,l),
(68.833,319,l)
);
},
{
closed = 1;
nodes = (
(41.146,122,l),
(306.146,122,l),
(312.33,166,l),
(47.33,166,l)
);
},
{
closed = 1;
nodes = (
(62.649,275,l),
(381.649,275,l),
(387.833,319,l),
(68.833,319,l)
);
}
);
width = 420;
},
{
layerId = "D03DF296-8133-4A96-B1BA-CFDB09DF42C8";
shapes = (
{
closed = 1;
nodes = (
(21.549,0,l),
(79.987,0,l),
(124.819,319,l),
(66.382,319,l)
);
},
{
closed = 1;
nodes = (
(38.121,117.915,l),
(306.389,117.915,l),
(313.721,170.085,l),
(45.453,170.085,l)
);
},
{
closed = 1;
nodes = (
(59.05,266.83,l),
(382.952,266.83,l),
(390.284,319,l),
(66.382,319,l)
);
}
);
width = 420;
}
);
},
{
export = 0;
glyphname = G.half;
layers = (
{
layerId = "1A7FA7F6-774C-4A69-BC02-C84AF7C361B9";
shapes = (
{
closed = 1;
nodes = (
(286.733,-4,o),
(340.824,4.264,o),
(360.386,8.264,c),
(334.959,72.612,l),
(311.396,68.612,o),
(276.137,60,o),
(233.137,60,cs),
(132.002,59.035,o),
(89.006,85.426,o),
(99.406,159.426,cs),
(107.698,218.426,o),
(169.274,256,o),
(260.274,256,cs),
(304.274,256,o),
(344.366,251.393,o),
(368.82,240.393,c),
(405.414,291.797,l),
(384.944,309.797,o),
(333.24,324,o),
(259.24,324,cs),
(119.24,324,o),
(33.605,267.574,o),
(18.989,163.574,cs),
(2.967,49.574,o),
(71.733,-4,o),
(221.733,-4,cs)
);
},
{
closed = 1;
nodes = (
(286.265,9,l),
(357.265,9,l),
(380.454,174,l),
(309.454,174,l)
);
},
{
closed = 1;
nodes = (
(203.303,116,l),
(370.303,116,l),
(378.454,174,l),
(211.454,174,l)
);
}
);
width = 420;
},
{
layerId = "772FC93F-B3B8-447D-A30A-419E2FCA5167";
shapes = (
{
closed = 1;
nodes = (
(280.007,-4,o),
(333.143,4.441,o),
(353.706,8.441,c),
(329.117,61.51,l),
(306.555,57.51,o),
(271.458,50,o),
(229.458,50,cs),
(123.458,50,o),
(70.248,87.152,o),
(80.508,160.152,cs),
(89.784,226.152,o),
(156.094,267,o),
(258.094,267,cs),
(305.094,267,o),
(345.877,260.274,o),
(370.05,247.274,c),
(400.119,293.379,l),
(376.649,311.379,o),
(322.966,324,o),
(256.966,324,cs),
(118.966,324,o),
(33.503,266.848,o),
(18.887,162.848,cs),
(3.99,56.848,o),
(78.007,-4,o),
(219.007,-4,cs)
);
},
{
closed = 1;
nodes = (
(289.265,9,l),
(351.265,9,l),
(373.189,165,l),
(311.189,165,l)
);
},
{
closed = 1;
nodes = (
(200.022,114,l),
(364.022,114,l),
(371.189,165,l),
(207.189,165,l)
);
}
);
width = 421;
},
{
layerId = "ADDB71F6-EC09-4DA0-80DB-A822AEA2EE7D";
shapes = (
{
closed = 1;
nodes = (
(278.667,-4,o),
(330.868,4.735,o),
(350.43,8.735,c),
(330.854,50.24,l),
(309.292,46.24,o),
(273.252,39,o),
(229.252,39,cs),
(115.252,39,o),
(60.203,79.715,o),
(71.728,161.715,cs),
(82.128,235.715,o),
(151.44,279,o),
(259.44,279,cs),
(305.44,279,o),
(344.821,268.637,o),
(370.573,252.637,c),
(397.044,292.313,l),
(369.714,311.313,o),
(324.307,324,o),
(259.307,324,cs),
(122.307,324,o),
(37.283,265.285,o),
(22.667,161.285,cs),
(7.348,52.285,o),
(76.667,-4,o),
(217.667,-4,cs)
);
},
{
closed = 1;
nodes = (
(303.265,9,l),
(349.265,9,l),
(370.627,161,l),
(324.627,161,l)
);
},
{
closed = 1;
nodes = (
(201.724,119,l),
(362.724,119,l),
(368.627,161,l),
(207.627,161,l)
);
}
);
width = 420;
},
{
layerId = "D03DF296-8133-4A96-B1BA-CFDB09DF42C8";
shapes = (
{
closed = 1;
nodes = (
(279.762,-4,o),
(332.727,4.495,o),
(353.106,8.495,c),
(329.435,59.447,l),
(307.056,55.447,o),
(271.786,47.987,o),
(229.42,47.987,cs),
(121.956,47.987,o),
(68.41,85.791,o),
(78.901,160.438,cs),
(88.382,227.902,o),
(155.242,269.196,o),
(258.34,269.196,cs),
(305.157,269.196,o),
(345.684,261.804,o),
(370.146,248.255,c),
(399.557,293.184,l),
(375.38,311.367,o),
(323.211,324,o),
(257.394,324,cs),
(119.577,324,o),
(34.195,266.562,o),
(19.579,162.562,cs),
(4.604,56.013,o),
(77.762,-4,o),
(218.762,-4,cs)
);
},
{
closed = 1;
nodes = (
(291.827,9,l),
(350.899,9,l),
(372.72,164.268,l),
(313.648,164.268,l)
);
},
{
closed = 1;
nodes = (
(200.333,114.915,l),
(363.784,114.915,l),
(370.72,164.268,l),
(207.269,164.268,l)
);
}
);
width = 420.81699;
}
);
},
{
export = 0;
glyphname = H.half;
layers = (
{
layerId = "1A7FA7F6-774C-4A69-BC02-C84AF7C361B9";
shapes = (
{
closed = 1;
nodes = (
(260,0,l),
(335,0,l),
(379.833,319,l),
(304.833,319,l)
);
},
{
closed = 1;
nodes = (
(10,0,l),
(86,0,l),
(130.833,319,l),
(54.833,319,l)
);
},
{
closed = 1;
nodes = (
(42.708,126,l),
(339.708,126,l),
(349.124,193,l),
(52.124,193,l)
);
}
);
width = 420;
},
{
layerId = "772FC93F-B3B8-447D-A30A-419E2FCA5167";
shapes = (
{
closed = 1;
nodes = (
(271,0,l),
(332,0,l),
(376.833,319,l),
(315.833,319,l)
);
},
{
closed = 1;
nodes = (
(14,0,l),
(75,0,l),
(119.833,319,l),
(58.833,319,l)
);
},
{
closed = 1;
nodes = (
(47.551,132,l),
(336.551,132,l),
(344.141,186,l),
(55.141,186,l)
);
}
);
width = 420;
},
{
layerId = "ADDB71F6-EC09-4DA0-80DB-A822AEA2EE7D";
shapes = (
{
closed = 1;
nodes = (
(282,0,l),
(329,0,l),
(373.833,319,l),
(326.833,319,l)
);
},
{
closed = 1;
nodes = (
(17,0,l),
(64,0,l),
(108.833,319,l),
(61.833,319,l)
);
},
{
closed = 1;
nodes = (
(51.254,137,l),
(335.254,137,l),
(341.438,181,l),
(57.438,181,l)
);
}
);
width = 420;
},
{
layerId = "D03DF296-8133-4A96-B1BA-CFDB09DF42C8";
shapes = (
{
closed = 1;
nodes = (
(273.013,0,l),
(331.451,0,l),
(376.284,319,l),
(317.846,319,l)
);
},
{
closed = 1;
nodes = (
(14.549,0,l),
(72.987,0,l),
(117.819,319,l),
(59.382,319,l)
);
},
{
closed = 1;
nodes = (
(48.229,132.915,l),
(336.314,132.915,l),
(343.646,185.085,l),
(55.561,185.085,l)
);
}
);
width = 420;
}
);
},
{
export = 0;
glyphname = I.half;
layers = (
{
layerId = "1A7FA7F6-774C-4A69-BC02-C84AF7C361B9";
shapes = (
{
closed = 1;
nodes = (
(135,0,l),
(211,0,l),
(255.833,319,l),
(179.833,319,l)
);
},
{
closed = 1;
nodes = (
(20,0,l),
(325,0,l),
(334.557,68,l),
(29.557,68,l)
);
},
{
closed = 1;
nodes = (
(55.557,253,l),
(360.557,253,l),
(369.833,319,l),
(64.833,319,l)
);
}
);
width = 420;
},
{
layerId = "772FC93F-B3B8-447D-A30A-419E2FCA5167";
shapes = (
{
closed = 1;
nodes = (
(142,0,l),
(203,0,l),
(247.833,319,l),
(186.833,319,l)
);
},
{
closed = 1;
nodes = (
(24,0,l),
(322,0,l),
(329.308,52,l),
(31.308,52,l)
);
},
{
closed = 1;
nodes = (
(61.524,267,l),
(359.524,267,l),
(366.833,319,l),
(68.833,319,l)
);
}
);
width = 420;
},
{
layerId = "ADDB71F6-EC09-4DA0-80DB-A822AEA2EE7D";
shapes = (
{
closed = 1;
nodes = (
(149,0,l),
(196,0,l),
(240.833,319,l),
(193.833,319,l)
);
},
{
closed = 1;
nodes = (
(28,0,l),
(319,0,l),
(325.184,44,l),
(34.184,44,l)
);
},
{
closed = 1;
nodes = (
(66.649,275,l),
(357.649,275,l),
(363.833,319,l),
(72.833,319,l)
);
}
);
width = 421;
},
{
layerId = "D03DF296-8133-4A96-B1BA-CFDB09DF42C8";
shapes = (
{
closed = 1;
nodes = (
(143.281,0,l),
(201.719,0,l),
(246.551,319,l),
(188.114,319,l)
);
},
{
closed = 1;
nodes = (
(24.732,0,l),
(321.451,0,l),
(328.553,50.536,l),
(31.834,50.536,l)
);
},
{
closed = 1;
nodes = (
(62.462,268.464,l),
(359.181,268.464,l),
(366.284,319,l),
(69.565,319,l)
);
}
);
width = 420.18301;
}
);
},
{
export = 0;
glyphname = K.half;
layers = (
{
layerId = "1A7FA7F6-774C-4A69-BC02-C84AF7C361B9";
shapes = (
{
closed = 1;
nodes = (
(79.101,84,l),
(261.101,84,o),
(380.136,214.426,o),
(394.33,315.426,c),
(317.335,322.574,l),
(308.762,261.574,o),
(230.208,153,o),
(89.208,153,c)
);
},
{
closed = 1;
nodes = (
(17,0,l),
(93,0,l),
(137.833,319,l),
(61.833,319,l)
);
},
{
closed = 1;
nodes = (
(282,0,l),
(375,0,l),
(274.265,194,l),
(200.768,162,l)
);
}
);
width = 420;
},
{
layerId = "772FC93F-B3B8-447D-A30A-419E2FCA5167";
shapes = (
{
closed = 1;
nodes = (
(65.78,94,l),
(254.78,94,o),
(372.178,179.152,o),
(391.432,316.152,c),
(331.233,321.848,l),
(316.336,215.848,o),
(222.512,150,o),
(75.512,150,c)
);
},
{
closed = 1;
nodes = (
(21,0,l),
(82,0,l),
(126.833,319,l),
(65.833,319,l)
);
},
{
closed = 1;
nodes = (
(300,0,l),
(371,0,l),
(286.173,172,l),
(227.065,157,l)
);
}
);
width = 420;
},
{
layerId = "ADDB71F6-EC09-4DA0-80DB-A822AEA2EE7D";
shapes = (
{
closed = 1;
nodes = (
(70.704,103,l),
(254.704,103,o),
(370.398,180.715,o),
(389.652,317.715,c),
(341.013,320.285,l),
(325.694,211.285,o),
(230.29,146,o),
(80.29,146,c)
);
},
{
closed = 1;
nodes = (
(24,0,l),
(71,0,l),
(115.833,319,l),
(68.833,319,l)
);
},
{
closed = 1;
nodes = (
(311,0,l),
(369,0,l),
(258.595,175,l),
(213.643,154,l)
);
}
);
width = 420;
},
{
layerId = "D03DF296-8133-4A96-B1BA-CFDB09DF42C8";
shapes = (
{
closed = 1;
nodes = (
(66.681,95.647,l),
(254.766,95.647,o),
(371.852,179.438,o),
(391.106,316.438,c),
(333.023,321.562,l),
(318.048,215.013,o),
(223.935,149.268,o),
(76.386,149.268,c)
);
},
{
closed = 1;
nodes = (
(21.549,0,l),
(79.987,0,l),
(124.819,319,l),
(66.382,319,l)
);
},
{
closed = 1;
nodes = (
(302.013,0,l),
(370.634,0,l),
(281.126,172.549,l),
(224.609,156.451,l)
);
}
);
width = 420;
}
);
},
{
export = 0;
glyphname = L.half;
layers = (
{
layerId = "1A7FA7F6-774C-4A69-BC02-C84AF7C361B9";
shapes = (
{
closed = 1;
nodes = (
(17,0,l),
(93,0,l),
(137.833,319,l),
(61.833,319,l)
);
},
{
closed = 1;
nodes = (
(17,0,l),
(349,0,l),
(358.557,68,l),
(26.557,68,l)
);
}
);
width = 420;
},
{
layerId = "772FC93F-B3B8-447D-A30A-419E2FCA5167";
shapes = (
{
closed = 1;
nodes = (
(21,0,l),
(82,0,l),
(126.833,319,l),
(65.833,319,l)
);
},
{
closed = 1;
nodes = (
(21,0,l),
(346,0,l),
(353.589,54,l),
(28.589,54,l)
);
}
);
width = 420;
},
{
layerId = "ADDB71F6-EC09-4DA0-80DB-A822AEA2EE7D";
shapes = (
{
closed = 1;
nodes = (
(24,0,l),
(71,0,l),
(115.833,319,l),
(68.833,319,l)
);
},
{
closed = 1;
nodes = (
(24,0,l),
(343,0,l),
(349.324,45,l),
(30.324,45,l)
);
}
);
width = 420;
},
{
layerId = "D03DF296-8133-4A96-B1BA-CFDB09DF42C8";
shapes = (
{
closed = 1;
nodes = (
(21.549,0,l),
(79.987,0,l),
(124.819,319,l),
(66.382,319,l)
);
},
{
closed = 1;
nodes = (
(21.549,0,l),
(345.451,0,l),
(352.809,52.353,l),
(28.907,52.353,l)
);
}
);
width = 420;
}
);
},
{
export = 0;
glyphname = M.half;
layers = (
{
layerId = "1A7FA7F6-774C-4A69-BC02-C84AF7C361B9";
shapes = (
{
closed = 1;
nodes = (
(172.384,81,l),
(218.384,81,l),
(293.135,250,l),
(313.135,250,l),
(322.833,319,l),
(270.833,319,l),
(196.238,144,l),
(192.238,144,l)
);
},
{
closed = 1;
nodes = (
(6,0,l),
(79,0,l),
(123.833,319,l),
(50.833,319,l)
);
},
{
closed = 1;
nodes = (
(150.384,81,l),
(191.384,81,l),
(193.238,144,l),
(190.238,144,l),
(164.833,319,l),
(111.833,319,l),
(102.135,250,l),
(124.135,250,l)
);
},
{
closed = 1;
nodes = (
(267,0,l),
(340,0,l),
(384.833,319,l),
(311.833,319,l)
);
}
);
width = 420;
},
{
layerId = "772FC93F-B3B8-447D-A30A-419E2FCA5167";
shapes = (
{
closed = 1;
nodes = (
(179.946,85,l),
(215.946,85,l),
(308.978,256,l),
(325.978,256,l),
(329.833,319,l),
(287.833,319,l),
(193.957,142,l),
(192.957,142,l)
);
},
{
closed = 1;
nodes = (
(10,0,l),
(67,0,l),
(111.833,319,l),
(54.833,319,l)
);
},
{
closed = 1;
nodes = (
(153.946,85,l),
(191.946,85,l),
(193.957,142,l),
(191.957,142,l),
(147.833,319,l),
(110.833,319,l),
(96.978,256,l),
(108.978,256,l)
);
},
{
closed = 1;
nodes = (
(278,0,l),
(336,0,l),
(380.833,319,l),
(322.833,319,l)
);
}
);
width = 420;
},
{
layerId = "ADDB71F6-EC09-4DA0-80DB-A822AEA2EE7D";
shapes = (
{
closed = 1;
nodes = (
(180.476,103,l),
(211.476,103,l),
(317.962,263,l),
(335.962,263,l),
(343.833,319,l),
(303.833,319,l),
(196.784,155,l),
(194.784,155,l)
);
},
{
closed = 1;
nodes = (
(13,0,l),
(59,0,l),
(103.833,319,l),
(57.833,319,l)
);
},
{
closed = 1;
nodes = (
(162.476,103,l),
(193.476,103,l),
(195.784,155,l),
(193.784,155,l),
(132.833,319,l),
(95.833,319,l),
(87.962,263,l),
(100.962,263,l)
);
},
{
closed = 1;
nodes = (
(288,0,l),
(334,0,l),
(378.833,319,l),
(332.833,319,l)
);
}
);
width = 421;
},
{
layerId = "D03DF296-8133-4A96-B1BA-CFDB09DF42C8";
shapes = (
{
closed = 1;
nodes = (
(180.043,88.294,l),
(215.128,88.294,l),
(310.623,257.281,l),
(327.806,257.281,l),
(332.395,319,l),
(290.761,319,l),
(194.474,144.379,l),
(193.291,144.379,l)
);
},
{
closed = 1;
nodes = (
(10.549,0,l),
(65.536,0,l),
(110.368,319,l),
(55.382,319,l)
);
},
{
closed = 1;
nodes = (
(155.507,88.294,l),
(192.226,88.294,l),
(194.291,144.379,l),
(192.291,144.379,l),
(145.087,319,l),
(108.087,319,l),
(95.328,257.281,l),
(107.511,257.281,l)
);
},
{
closed = 1;
nodes = (
(279.83,0,l),
(335.634,0,l),
(380.467,319,l),
(324.663,319,l)
);
}
);
width = 420.18301;
}
);
},
{
export = 0;
glyphname = N.half;
layers = (
{
layerId = "1A7FA7F6-774C-4A69-BC02-C84AF7C361B9";
shapes = (
{
closed = 1;
nodes = (
(236,0,l),
(270,0,l),
(283.492,96,l),
(255.492,96,l),
(154.833,319,l),
(104.833,319,l),
(91.341,223,l),
(135.341,223,l)
);
},
{
closed = 1;
nodes = (
(13,0,l),
(86,0,l),
(130.833,319,l),
(57.833,319,l)
);
},
{
closed = 1;
nodes = (
(260,0,l),
(333,0,l),
(377.833,319,l),
(304.833,319,l)
);
}
);
width = 420;
},
{
layerId = "772FC93F-B3B8-447D-A30A-419E2FCA5167";
shapes = (
{
closed = 1;
nodes = (
(234,0,l),
(281,0,l),
(289.714,62,l),
(269.714,62,l),
(157.833,319,l),
(103.833,319,l),
(95.119,257,l),
(121.119,257,l)
);
},
{
closed = 1;
nodes = (
(17,0,l),
(77,0,l),
(121.833,319,l),
(61.833,319,l)
);
},
{
closed = 1;
nodes = (
(269,0,l),
(329,0,l),
(373.833,319,l),
(313.833,319,l)
);
}
);
width = 420;
},
{
layerId = "ADDB71F6-EC09-4DA0-80DB-A822AEA2EE7D";
shapes = (
{
closed = 1;
nodes = (
(260,0,l),
(292,0,l),
(299.73,55,l),
(283.73,55,l),
(131.833,319,l),
(90.833,319,l),
(83.103,264,l),
(108.103,264,l)
);
},
{
closed = 1;
nodes = (
(20,0,l),
(66,0,l),
(110.833,319,l),
(64.833,319,l)
);
},
{
closed = 1;
nodes = (
(280,0,l),
(327,0,l),
(371.833,319,l),
(324.833,319,l)
);
}
);
width = 421;
},
{
layerId = "D03DF296-8133-4A96-B1BA-CFDB09DF42C8";
shapes = (
{
closed = 1;
nodes = (
(238.758,0,l),
(283.013,0,l),
(291.547,60.719,l),
(272.279,60.719,l),
(153.074,319,l),
(101.453,319,l),
(92.92,258.281,l),
(118.737,258.281,l)
);
},
{
closed = 1;
nodes = (
(17.549,0,l),
(74.987,0,l),
(119.819,319,l),
(62.382,319,l)
);
},
{
closed = 1;
nodes = (
(271.013,0,l),
(328.634,0,l),
(373.467,319,l),
(315.846,319,l)
);
}
);
width = 420.18301;
}
);
},
{
export = 0;
glyphname = O.half;
layers = (
{
layerId = "1A7FA7F6-774C-4A69-BC02-C84AF7C361B9";
shapes = (
{
closed = 1;
nodes = (
(298.733,-4,o),
(364.384,45.426,o),
(379.703,154.426,cs),
(395.163,264.426,o),
(338.24,324,o),
(215.24,324,cs),
(92.24,324,o),
(27.167,271.574,o),
(11.708,161.574,cs),
(-3.611,52.574,o),
(53.733,-4,o),
(175.733,-4,cs)
);
},
{
closed = 1;
nodes = (
(108.84,65,o),
(80.849,91.426,o),
(89.703,154.426,cs),
(98.838,219.426,o),
(142.274,256,o),
(212.274,256,cs),
(282.274,256,o),
(309.843,226.574,o),
(300.708,161.574,cs),
(291.854,98.574,o),
(248.84,65,o),
(178.84,65,cs)
);
}
);
width = 421;
},
{
layerId = "772FC93F-B3B8-447D-A30A-419E2FCA5167";
shapes = (
{
closed = 1;
nodes = (
(295.007,-4,o),
(360.486,46.152,o),
(375.805,155.152,cs),
(391.265,265.152,o),
(336.966,324,o),
(215.966,324,cs),
(95.966,324,o),
(30.065,270.848,o),
(14.606,160.848,cs),
(-0.713,51.848,o),
(55.007,-4,o),
(175.007,-4,cs)
);
},
{
closed = 1;
nodes = (
(98.177,48,o),
(65.546,82.152,o),
(75.805,155.152,cs),
(86.205,229.152,o),
(134.515,270,o),
(213.515,270,cs),
(292.515,270,o),
(325.006,234.848,o),
(314.606,160.848,cs),
(304.346,87.848,o),
(256.177,48,o),
(177.177,48,cs)
);
}
);
width = 421;
},
{
layerId = "ADDB71F6-EC09-4DA0-80DB-A822AEA2EE7D";
shapes = (
{
closed = 1;
nodes = (
(291.667,-4,o),
(357.706,47.715,o),
(373.025,156.715,cs),
(388.484,266.715,o),
(336.307,324,o),
(217.307,324,cs),
(98.307,324,o),
(32.845,269.285,o),
(17.386,159.285,cs),
(2.067,50.285,o),
(54.667,-4,o),
(173.667,-4,cs)
);
},
{
closed = 1;
nodes = (
(91.252,39,o),
(54.782,76.715,o),
(66.025,156.715,cs),
(77.549,238.715,o),
(127.721,281,o),
(213.721,281,cs),
(299.721,281,o),
(336.91,241.285,o),
(325.386,159.285,cs),
(314.143,79.285,o),
(263.252,39,o),
(177.252,39,cs)
);
}
);
width = 420;
},
{
layerId = "D03DF296-8133-4A96-B1BA-CFDB09DF42C8";
shapes = (
{
closed = 1;
nodes = (
(294.396,-4,o),
(359.977,46.438,o),
(375.296,155.438,cs),
(390.756,265.438,o),
(336.845,324,o),
(216.211,324,cs),
(96.394,324,o),
(30.574,270.562,o),
(15.115,160.562,cs),
(-0.204,51.562,o),
(54.945,-4,o),
(174.762,-4,cs)
);
},
{
closed = 1;
nodes = (
(96.91,46.353,o),
(63.576,81.157,o),
(74.015,155.438,cs),
(84.621,230.902,o),
(133.272,272.013,o),
(213.553,272.013,cs),
(293.834,272.013,o),
(327.184,236.026,o),
(316.579,160.562,cs),
(306.139,86.281,o),
(257.472,46.353,o),
(177.191,46.353,cs)
);
}
);
width = 420.81699;
}
);
},
{
export = 0;
glyphname = P.half;
layers = (
{
layerId = "1A7FA7F6-774C-4A69-BC02-C84AF7C361B9";
shapes = (
{
closed = 1;
nodes = (
(97.227,87,l),
(230.522,87,ls),
(324.522,87,o),
(373.206,122.426,o),
(384.168,200.426,cs),
(394.99,277.426,o),
(350.537,319,o),
(256.537,319,cs),
(130.833,319,l),
(121.416,252,l),
(253.711,252,ls),
(294.711,252,o),
(309.67,239.574,o),
(305.173,207.574,cs),
(300.535,174.574,o),
(274.489,155,o),
(233.489,155,cs),
(106.784,155,l)
);
},
{
closed = 1;
nodes = (
(17,0,l),
(93,0,l),
(137.833,319,l),
(61.833,319,l)
);
}
);
width = 420;
},
{
layerId = "772FC93F-B3B8-447D-A30A-419E2FCA5167";
shapes = (
{
closed = 1;
nodes = (
(86.07,93,l),
(221.639,93,ls),
(319.639,93,o),
(370.292,130.152,o),
(381.535,210.152,cs),
(391.654,282.152,o),
(346.263,319,o),
(248.263,319,cs),
(119.833,319,l),
(112.243,265,l),
(245.812,265,ls),
(300.812,265,o),
(322.973,248.848,o),
(317.633,210.848,cs),
(312.011,170.848,o),
(279.09,147,o),
(224.09,147,cs),
(93.66,147,l)
);
},
{
closed = 1;
nodes = (
(21,0,l),
(82,0,l),
(126.833,319,l),
(65.833,319,l)
);
}
);
width = 420;
},
{
layerId = "ADDB71F6-EC09-4DA0-80DB-A822AEA2EE7D";
shapes = (
{
closed = 1;
nodes = (
(76.054,100,l),
(220.283,100,ls),
(317.283,100,o),
(369.074,135.715,o),
(379.333,208.715,cs),
(389.593,281.715,o),
(345.604,319,o),
(248.604,319,cs),
(108.833,319,l),
(102.649,275,l),
(244.877,275,ls),
(308.877,275,o),
(336.878,255.285,o),
(330.694,211.285,cs),
(324.651,168.285,o),
(288.15,145,o),
(224.15,145,cs),
(82.378,145,l)
);
},
{
closed = 1;
nodes = (
(24,0,l),
(71,0,l),
(115.833,319,l),
(68.833,319,l)
);
}
);
width = 420;
},
{
layerId = "D03DF296-8133-4A96-B1BA-CFDB09DF42C8";
shapes = (
{
closed = 1;
nodes = (
(84.237,94.281,l),
(221.391,94.281,ls),
(319.208,94.281,o),
(370.069,131.17,o),
(381.132,209.889,cs),
(391.277,282.072,o),
(346.143,319,o),
(248.326,319,cs),
(117.819,319,l),
(110.487,266.83,l),
(245.641,266.83,ls),
(302.288,266.83,o),
(325.518,250.026,o),
(320.023,210.928,cs),
(314.324,170.379,o),
(280.748,146.634,o),
(224.101,146.634,cs),
(91.595,146.634,l)
);
},
{
closed = 1;
nodes = (
(21.549,0,l),
(79.987,0,l),
(124.819,319,l),
(66.382,319,l)
);
}
);
width = 420;
}
);
},
{
export = 0;
glyphname = Q.half;
layers = (
{
layerId = "1A7FA7F6-774C-4A69-BC02-C84AF7C361B9";
shapes = (
{
closed = 1;
nodes = (
(305.773,-87,l),
(215.53,18,l),
(129.53,18,l),
(199.773,-87,l)
);
},
{
ref = O.half;
}
);
width = 421;
},
{
layerId = "772FC93F-B3B8-447D-A30A-419E2FCA5167";
shapes = (
{
closed = 1;
nodes = (
(297.773,-87,l),
(207.53,18,l),
(137.53,18,l),
(207.773,-87,l)
);
},
{
ref = O.half;
}
);
width = 421;
},
{
layerId = "ADDB71F6-EC09-4DA0-80DB-A822AEA2EE7D";
shapes = (
{
closed = 1;
nodes = (
(286.773,-87,l),
(199.53,18,l),
(145.53,18,l),
(219.773,-87,l)
);
},
{
ref = O.half;
}
);
width = 420;
},
{
layerId = "D03DF296-8133-4A96-B1BA-CFDB09DF42C8";
shapes = (
{
closed = 1;
nodes = (
(295.76,-87,l),
(206.066,18,l),
(138.994,18,l),
(209.969,-87,l)
);
},
{
alignment = -1;
ref = O.half;
}
);
width = 420.81699;
}
);
},
{
export = 0;
glyphname = R.half;
layers = (
{
layerId = "1A7FA7F6-774C-4A69-BC02-C84AF7C361B9";
shapes = (
{
closed = 1;
nodes = (
(96.054,100,l),
(238.349,100,ls),
(318.349,100,o),
(365.454,138.426,o),
(375.433,209.426,cs),
(384.99,277.426,o),
(342.537,319,o),
(262.537,319,cs),
(119.833,319,l),
(118.416,252,l),
(259.711,252,ls),
(288.711,252,o),
(299.811,240.574,o),
(295.875,212.574,cs),
(292.221,186.574,o),
(270.316,168,o),
(241.316,168,cs),
(105.611,168,l)
);
},
{
closed = 1;
nodes = (
(10,0,l),
(86,0,l),
(130.833,319,l),
(54.833,319,l)
);
},
{
closed = 1;
nodes = (
(273,0,l),
(364,0,l),
(268.222,151,l),
(186.222,151,l)
);
}
);
width = 420;
},
{
layerId = "772FC93F-B3B8-447D-A30A-419E2FCA5167";
shapes = (
{
closed = 1;
nodes = (
(86.005,121,l),
(244.575,121,ls),
(315.575,121,o),
(364.508,160.152,o),
(373.362,223.152,cs),
(381.373,280.152,o),
(338.263,319,o),
(267.263,319,cs),
(106.833,319,l),
(108.243,265,l),
(264.812,265,ls),
(296.812,265,o),
(312.254,250.848,o),
(308.46,223.848,cs),
(304.665,196.848,o),
(279.026,175,o),
(247.026,175,cs),
(93.595,175,l)
);
},
{
closed = 1;
nodes = (
(14,0,l),
(75,0,l),
(119.833,319,l),
(58.833,319,l)
);
},
{
closed = 1;
nodes = (
(289,0,l),
(360,0,l),
(271.222,151,l),
(207.222,151,l)
);
}
);
width = 420;
},
{
layerId = "ADDB71F6-EC09-4DA0-80DB-A822AEA2EE7D";
shapes = (
{
closed = 1;
nodes = (
(76.427,124,l),
(239.656,124,ls),
(315.656,124,o),
(362.306,158.715,o),
(371.16,221.715,cs),
(379.874,283.715,o),
(340.604,319,o),
(264.604,319,cs),
(96.833,319,l),
(98.649,275,l),
(260.877,275,ls),
(304.877,275,o),
(327.018,256.285,o),
(321.959,220.285,cs),
(317.321,187.285,o),
(287.382,168,o),
(243.382,168,cs),
(82.611,168,l)
);
},
{
closed = 1;
nodes = (
(17,0,l),
(64,0,l),
(108.833,319,l),
(61.833,319,l)
);
},
{
closed = 1;
nodes = (
(301,0,l),
(357,0,l),
(257.222,151,l),
(205.222,151,l)
);
}
);
width = 420;
},
{
layerId = "D03DF296-8133-4A96-B1BA-CFDB09DF42C8";
shapes = (
{
closed = 1;
nodes = (
(84.253,121.549,l),
(243.674,121.549,ls),
(315.589,121.549,o),
(364.105,159.889,o),
(372.959,222.889,cs),
(381.098,280.804,o),
(338.692,319,o),
(266.777,319,cs),
(105.002,319,l),
(106.487,266.83,l),
(264.092,266.83,ls),
(298.288,266.83,o),
(314.956,251.843,o),
(310.93,223.196,cs),
(306.981,195.098,o),
(280.555,173.719,o),
(246.359,173.719,cs),
(91.585,173.719,l)
);
},
{
closed = 1;
nodes = (
(14.549,0,l),
(72.987,0,l),
(117.819,319,l),
(59.382,319,l)
);
},
{
closed = 1;
nodes = (
(291.196,0,l),
(359.451,0,l),
(268.66,151,l),
(206.856,151,l)
);
}
);
width = 420;
}
);
},
{
export = 0;
glyphname = S.half;
layers = (
{
layerId = "1A7FA7F6-774C-4A69-BC02-C84AF7C361B9";
shapes = (
{
closed = 1;
nodes = (
(277.733,-4,o),
(338.714,26.426,o),
(348.552,96.426,cs),
(356.563,153.426,o),
(320.828,185.857,o),
(246.25,188.857,cs),
(165.829,193,l),
(137.829,193,o),
(128.168,200.426,o),
(130.979,220.426,cs),
(134.071,242.426,o),
(167.274,256,o),
(221.274,256,cs),
(263.274,256,o),
(304.097,249.341,o),
(343.708,232.341,c),
(374.514,295.592,l),
(335.044,313.592,o),
(285.24,324,o),
(224.24,324,cs),
(116.24,324,o),
(61.119,292.574,o),
(51,220.574,cs),
(42.989,163.574,o),
(74.438,129.105,o),
(142.157,127.105,cs),
(234.739,124.132,ls),
(261.598,123.132,o),
(271.383,116.574,o),
(268.713,97.574,cs),
(265.902,77.574,o),
(228.559,63,o),
(167.559,63,cs),
(122.559,63,o),
(75.831,70.889,o),
(26.22,87.889,c),
(12.404,16.057,l),
(52.577,3.057,o),
(100.733,-4,o),
(158.733,-4,cs)
);
}
);
width = 421;
},
{
layerId = "772FC93F-B3B8-447D-A30A-419E2FCA5167";
shapes = (
{
closed = 1;
nodes = (
(275.007,-4,o),
(334.394,24.152,o),
(343.108,86.152,cs),
(348.589,125.152,o),
(327.449,163.532,o),
(274.714,172.532,cs),
(149.09,196.419,l),
(125.792,201.419,o),
(118.816,212.152,o),
(121.065,228.152,cs),
(124.578,253.152,o),
(162.094,267,o),
(228.094,267,cs),
(264.094,267,o),
(301.951,259.973,o),
(343.703,243.973,c),
(371.834,292.751,l),
(333.645,312.751,o),
(286.966,324,o),
(230.966,324,cs),
(121.966,324,o),
(65.579,295.848,o),
(56.584,231.848,cs),
(50.822,190.848,o),
(70.383,155.525,o),
(117.118,146.525,cs),
(245.027,124.484,ls),
(273.324,119.484,o),
(280.017,106.848,o),
(277.908,91.848,cs),
(274.535,67.848,o),
(235.739,52,o),
(166.739,52,cs),
(122.739,52,o),
(74.564,57.283,o),
(26.391,70.283,c),
(14.141,11.618,l),
(57.735,1.618,o),
(106.007,-4,o),
(158.007,-4,cs)
);
}
);
width = 420;
},
{
layerId = "ADDB71F6-EC09-4DA0-80DB-A822AEA2EE7D";
shapes = (
{
closed = 1;
nodes = (
(271.667,-4,o),
(331.474,24.715,o),
(339.906,84.715,cs),
(345.528,124.715,o),
(320.269,152.673,o),
(265.377,167.673,c),
(142.311,195.678,l),
(116.295,202.678,o),
(105.036,213.715,o),
(107.706,232.715,cs),
(111.922,262.715,o),
(151.44,279,o),
(224.44,279,cs),
(263.44,279,o),
(300.296,271.472,o),
(336.188,256.472,c),
(364.8,298.586,l),
(320.049,314.586,o),
(275.307,324,o),
(227.307,324,cs),
(123.307,324,o),
(67.5,295.285,o),
(58.786,233.285,cs),
(53.445,195.285,o),
(74.844,168.336,o),
(121.017,155.336,c),
(254.663,124.312,l),
(281.679,117.312,o),
(293.656,104.285,o),
(291.127,86.285,cs),
(286.91,56.285,o),
(245.533,41,o),
(166.533,41,cs),
(122.533,41,o),
(76.372,46.666,o),
(26.34,60.666,c),
(15.92,12.333,l),
(55.374,1.333,o),
(101.667,-4,o),
(156.667,-4,cs)
);
}
);
width = 420;
},
{
layerId = "D03DF296-8133-4A96-B1BA-CFDB09DF42C8";
shapes = (
{
closed = 1;
nodes = (
(274.396,-4,o),
(333.86,24.255,o),
(342.522,85.889,cs),
(348.029,125.072,o),
(326.135,161.545,o),
(273.005,171.643,c),
(147.849,196.283,l),
(124.054,201.649,o),
(116.294,212.438,o),
(118.62,228.987,cs),
(122.262,254.902,o),
(160.144,269.196,o),
(227.425,269.196,cs),
(263.974,269.196,o),
(301.648,262.078,o),
(342.327,246.261,c),
(370.547,293.819,l),
(331.157,313.087,o),
(284.832,324,o),
(230.296,324,cs),
(122.211,324,o),
(65.93,295.745,o),
(56.987,232.111,cs),
(51.302,191.66,o),
(71.199,157.869,o),
(117.831,148.137,c),
(246.79,124.452,l),
(274.853,119.086,o),
(282.513,106.379,o),
(280.327,90.83,cs),
(276.8,65.732,o),
(237.531,49.987,o),
(166.701,49.987,cs),
(122.701,49.987,o),
(74.895,55.34,o),
(26.382,68.523,c),
(14.466,11.749,l),
(57.303,1.566,o),
(105.213,-4,o),
(157.762,-4,cs)
);
}
);
width = 420;
}
);
},
{
export = 0;
glyphname = T.half;
layers = (
{
layerId = "1A7FA7F6-774C-4A69-BC02-C84AF7C361B9";
shapes = (
{
closed = 1;
nodes = (
(135,0,l),
(211,0,l),
(255.833,319,l),
(179.833,319,l)
);
},
{
closed = 1;
nodes = (
(25.416,252,l),
(391.416,252,l),
(400.833,319,l),
(34.833,319,l)
);
}
);
width = 420;
},
{
layerId = "772FC93F-B3B8-447D-A30A-419E2FCA5167";
shapes = (
{
closed = 1;
nodes = (
(142,0,l),
(203,0,l),
(247.833,319,l),
(186.833,319,l)
);
},
{
closed = 1;
nodes = (
(30.243,265,l),
(389.243,265,l),
(396.833,319,l),
(37.833,319,l)
);
}
);
width = 420;
},
{
layerId = "ADDB71F6-EC09-4DA0-80DB-A822AEA2EE7D";
shapes = (
{
closed = 1;
nodes = (
(149,0,l),
(196,0,l),
(240.833,319,l),
(193.833,319,l)
);
},
{
closed = 1;
nodes = (
(34.649,275,l),
(388.649,275,l),
(394.833,319,l),
(40.833,319,l)
);
}
);
width = 420;
},
{
layerId = "D03DF296-8133-4A96-B1BA-CFDB09DF42C8";
shapes = (
{
closed = 1;
nodes = (
(143.281,0,l),
(201.719,0,l),
(246.551,319,l),
(188.114,319,l)
);
},
{
closed = 1;
nodes = (
(31.05,266.83,l),
(389.135,266.83,l),
(396.467,319,l),
(38.382,319,l)
);
}
);
width = 420;
}
);
},
{
export = 0;
glyphname = U.half;
layers = (
{
layerId = "1A7FA7F6-774C-4A69-BC02-C84AF7C361B9";
shapes = (
{
closed = 1;
nodes = (
(283.733,-4,o),
(340.26,37.426,o),
(353.049,128.426,cs),
(379.833,319,l),
(304.833,319,l),
(279.054,135.574,ls),
(272.589,89.574,o),
(236.559,63,o),
(178.559,63,cs),
(120.559,63,o),
(97.584,82.426,o),
(104.049,128.426,cs),
(130.833,319,l),
(54.833,319,l),
(29.054,135.574,ls),
(16.265,44.574,o),
(66.733,-4,o),
(174.733,-4,cs)
);
}
);
width = 420;
},
{
layerId = "772FC93F-B3B8-447D-A30A-419E2FCA5167";
shapes = (
{
closed = 1;
nodes = (
(280.007,-4,o),
(337.081,36.152,o),
(349.589,125.152,cs),
(376.833,319,l),
(315.833,319,l),
(289.39,130.848,ls),
(282.081,78.848,o),
(242.458,50,o),
(177.458,50,cs),
(111.458,50,o),
(85.281,73.152,o),
(92.589,125.152,cs),
(119.833,319,l),
(58.833,319,l),
(32.39,130.848,ls),
(19.881,41.848,o),
(68.007,-4,o),
(174.007,-4,cs)
);
}
);
width = 420;
},
{
layerId = "ADDB71F6-EC09-4DA0-80DB-A822AEA2EE7D";
shapes = (
{
closed = 1;
nodes = (
(282.667,-4,o),
(333.738,33.715,o),
(346.809,126.715,cs),
(373.833,319,l),
(326.833,319,l),
(300.17,129.285,ls),
(291.316,66.285,o),
(254.252,39,o),
(177.252,39,cs),
(100.252,39,o),
(72.955,63.715,o),
(81.809,126.715,cs),
(108.833,319,l),
(61.833,319,l),
(35.17,129.285,ls),
(22.099,36.285,o),
(63.667,-4,o),
(172.667,-4,cs)
);
}
);
width = 420;
},
{
layerId = "D03DF296-8133-4A96-B1BA-CFDB09DF42C8";
shapes = (
{
closed = 1;
nodes = (
(280.494,-4,o),
(336.469,35.706,o),
(349.08,125.438,cs),
(376.284,319,l),
(317.846,319,l),
(291.362,130.562,ls),
(283.771,76.549,o),
(244.616,47.987,o),
(177.42,47.987,cs),
(109.407,47.987,o),
(83.025,71.425,o),
(90.616,125.438,cs),
(117.819,319,l),
(59.382,319,l),
(32.898,130.562,ls),
(20.287,40.83,o),
(67.213,-4,o),
(173.762,-4,cs)
);
}
);
width = 420;
}
);
},
{
export = 0;
glyphname = V.half;
layers = (
{
layerId = "1A7FA7F6-774C-4A69-BC02-C84AF7C361B9";
shapes = (
{
closed = 1;
nodes = (
(119,0,l),
(227,0,l),
(413.833,319,l),
(330.833,319,l),
(185.135,65,l),
(179.135,65,l),
(105.833,319,l),
(21.833,319,l)
);
}
);
width = 420;
},
{
layerId = "772FC93F-B3B8-447D-A30A-419E2FCA5167";
shapes = (
{
closed = 1;
nodes = (
(132,0,l),
(215,0,l),
(409.833,319,l),
(344.833,319,l),
(182.168,51,l),
(178.168,51,l),
(90.833,319,l),
(25.833,319,l)
);
}
);
width = 420;
},
{
layerId = "ADDB71F6-EC09-4DA0-80DB-A822AEA2EE7D";
shapes = (
{
closed = 1;
nodes = (
(140,0,l),
(206,0,l),
(406.833,319,l),
(357.833,319,l),
(181.622,40,l),
(176.622,40,l),
(78.833,319,l),
(29.833,319,l)
);
}
);
width = 421;
},
{
layerId = "D03DF296-8133-4A96-B1BA-CFDB09DF42C8";
shapes = (
{
closed = 1;
nodes = (
(133.464,0,l),
(213.353,0,l),
(409.284,319,l),
(347.212,319,l),
(182.068,48.987,l),
(177.885,48.987,l),
(88.636,319,l),
(26.565,319,l)
);
}
);
width = 420.18301;
}
);
},
{
export = 0;
glyphname = X.half;
layers = (
{
layerId = "1A7FA7F6-774C-4A69-BC02-C84AF7C361B9";
shapes = (
{
closed = 1;
nodes = (
(264,0,l),
(362,0,l),
(225.595,175,l),
(126.833,319,l),
(29.833,319,l),
(170.114,136,l)
);
},
{
closed = 1;
nodes = (
(-15,0,l),
(82,0,l),
(214.114,136,l),
(406.833,319,l),
(308.833,319,l),
(170.595,175,l)
);
}
);
width = 420;
},
{
layerId = "772FC93F-B3B8-447D-A30A-419E2FCA5167";
shapes = (
{
closed = 1;
nodes = (
(282,0,l),
(363,0,l),
(223.751,169,l),
(108.833,319,l),
(27.833,319,l),
(170.957,142,l)
);
},
{
closed = 1;
nodes = (
(-17,0,l),
(64,0,l),
(214.957,142,l),
(407.833,319,l),
(326.833,319,l),
(169.751,169,l)
);
}
);
width = 420;
},
{
layerId = "ADDB71F6-EC09-4DA0-80DB-A822AEA2EE7D";
shapes = (
{
closed = 1;
nodes = (
(295,0,l),
(355,0,l),
(216.611,168,l),
(96.833,319,l),
(35.833,319,l),
(178.097,143,l)
);
},
{
closed = 1;
nodes = (
(-9,0,l),
(52,0,l),
(209.097,143,l),
(399.833,319,l),
(339.833,319,l),
(175.611,168,l)
);
}
);
width = 420;
},
{
layerId = "D03DF296-8133-4A96-B1BA-CFDB09DF42C8";
shapes = (
{
closed = 1;
nodes = (
(284.379,0,l),
(361.536,0,l),
(222.445,168.817,l),
(106.636,319,l),
(29.297,319,l),
(172.264,142.183,l)
);
},
{
closed = 1;
nodes = (
(-15.536,0,l),
(61.804,0,l),
(213.884,142.183,l),
(406.368,319,l),
(329.212,319,l),
(170.824,168.817,l)
);
}
);
width = 420;
}
);
},
{
export = 0;
glyphname = Y.half;
layers = (
{
layerId = "1A7FA7F6-774C-4A69-BC02-C84AF7C361B9";
shapes = (
{
closed = 1;
nodes = (
(151.243,80,l),
(217.243,80,l),
(420.833,319,l),
(337.833,319,l),
(197.924,156,l),
(191.924,156,l),
(98.833,319,l),
(14.833,319,l)
);
},
{
closed = 1;
nodes = (
(135,0,l),
(211,0,l),
(229.27,130,l),
(153.27,130,l)
);
}
);
width = 420;
},
{
layerId = "772FC93F-B3B8-447D-A30A-419E2FCA5167";
shapes = (
{
closed = 1;
nodes = (
(163.384,81,l),
(205.384,81,l),
(416.833,319,l),
(348.833,319,l),
(195.238,144,l),
(192.238,144,l),
(86.833,319,l),
(18.833,319,l)
);
},
{
closed = 1;
nodes = (
(142,0,l),
(204,0,l),
(221.989,128,l),
(159.989,128,l)
);
}
);
width = 420;
},
{
layerId = "ADDB71F6-EC09-4DA0-80DB-A822AEA2EE7D";
shapes = (
{
closed = 1;
nodes = (
(167.805,84,l),
(201.805,84,l),
(414.833,319,l),
(361.833,319,l),
(194.692,133,l),
(189.692,133,l),
(73.833,319,l),
(21.833,319,l)
);
},
{
closed = 1;
nodes = (
(149,0,l),
(197,0,l),
(214.989,128,l),
(166.989,128,l)
);
}
);
width = 421;
},
{
layerId = "D03DF296-8133-4A96-B1BA-CFDB09DF42C8";
shapes = (
{
closed = 1;
nodes = (
(164.193,81.549,l),
(204.729,81.549,l),
(416.467,319,l),
(351.212,319,l),
(195.138,141.987,l),
(191.772,141.987,l),
(84.453,319,l),
(19.382,319,l)
);
},
{
closed = 1;
nodes = (
(143.281,0,l),
(202.719,0,l),
(220.708,128,l),
(161.27,128,l)
);
}
);
width = 420.18301;
}
);
},
{
glyphname = Ismall;
layers = (
{
layerId = "1A7FA7F6-774C-4A69-BC02-C84AF7C361B9";
shapes = (
{
closed = 1;
nodes = (
(186,0,l),
(321,0,l),
(414.487,530,l),
(279.487,530,l)
);
},
{
closed = 1;
nodes = (
(38,0,l),
(470,0,l),
(487.568,125,l),
(55.568,125,l)
);
},
{
closed = 1;
nodes = (
(113.06,406,l),
(545.06,406,l),
(562.487,530,l),
(130.487,530,l)
);
}
);
width = 600;
},
{
layerId = "772FC93F-B3B8-447D-A30A-419E2FCA5167";
shapes = (
{
closed = 1;
nodes = (
(201,0,l),
(307,0,l),
(399.487,530,l),
(293.487,530,l)
);
},
{
closed = 1;
nodes = (
(38,0,l),
(470,0,l),
(482.227,87,l),
(50.227,87,l)
);
},
{
closed = 1;
nodes = (
(118.26,443,l),
(550.26,443,l),
(562.487,530,l),
(130.487,530,l)
);
}
);
width = 600;
},
{
layerId = "ADDB71F6-EC09-4DA0-80DB-A822AEA2EE7D";
shapes = (
{
closed = 1;
nodes = (
(230,0,l),
(277,0,l),
(370.487,530,l),
(323.487,530,l)
);
},
{
closed = 1;
nodes = (
(50,0,l),
(458,0,l),
(464.324,45,l),
(56.324,45,l)
);
},
{
closed = 1;
nodes = (
(136.162,485,l),
(544.162,485,l),
(550.487,530,l),
(142.487,530,l)
);
}
);
width = 600;
},
{
layerId = "D03DF296-8133-4A96-B1BA-CFDB09DF42C8";
shapes = (
{
closed = 1;
nodes = (
(206.307,0,l),
(301.51,0,l),
(394.179,530,l),
(298.977,530,l)
);
},
{
closed = 1;
nodes = (
(40.196,0,l),
(467.804,0,l),
(478.951,79.314,l),
(51.343,79.314,l)
);
},
{
closed = 1;
nodes = (
(121.536,450.686,l),
(549.144,450.686,l),
(560.291,530,l),
(132.683,530,l)
);
}
);
width = 600;
}
);
unicode = 618;
},
{
glyphname = a;
layers = (
{
anchors = (
{
name = top;
pos = (369.951,530);
}
);
layerId = "1A7FA7F6-774C-4A69-BC02-C84AF7C361B9";
shapes = (
{
closed = 1;
nodes = (
(223.737,541,o),
(66,405.574,o),
(38.032,206.574,cs),
(19.621,75.574,o),
(77.89,-10,o),
(186.89,-10,cs),
(272.89,-10,o),
(335.784,35.53,o),
(368.73,120.53,c),
(327.757,105,l),
(472.757,105,l),
(392.573,339.571,l),
(364.07,186.571,o),
(290.429,119,o),
(226.429,119,cs),
(180.429,119,o),
(165.157,143.426,o),
(173.73,204.426,cs),
(190.454,323.426,o),
(292.339,413,o),
(379.339,413,cs),
(422.339,413,o),
(462.928,404.1,o),
(495.382,393.1,c),
(556.174,522.274,l),
(504.72,533.274,o),
(451.737,541,o),
(396.737,541,cs)
);
},
{
closed = 1;
nodes = (
(547.297,-5,l),
(567.459,110,l),
(539.164,110,ls),
(509.164,110,o),
(496.026,117.464,o),
(495.82,144.464,cs),
(496.547,155.44,o),
(498.53,167.426,o),
(500.498,181.426,cs),
(559.503,523,l),
(424.503,523,l),
(365.703,190,l),
(377.816,128.564,l),
(374.989,115.564,o),
(374.712,102.56,o),
(374.166,91.56,c),
(375.416,6.533,o),
(450.592,-5,o),
(518.592,-5,cs)
);
}
);
width = 600;
},
{
anchors = (
{
name = top;
pos = (367.951,530);
}
);
layerId = "772FC93F-B3B8-447D-A30A-419E2FCA5167";
shapes = (
{
closed = 1;
nodes = (
(217.463,541,o),
(71.757,403.848,o),
(44.633,210.848,cs),
(25.519,74.848,o),
(78.304,-9,o),
(189.304,-9,cs),
(287.304,-9,o),
(360.504,50.195,o),
(394.542,157.195,c),
(360.692,133,l),
(402.692,133,l),
(407.66,339.846,l),
(375.925,163.846,o),
(295.517,86,o),
(218.517,86,cs),
(160.517,86,o),
(137.87,127.152,o),
(149.394,209.152,cs),
(168.367,344.152,o),
(273.25,446,o),
(385.25,446,cs),
(434.25,446,o),
(478.705,435.864,o),
(499.721,428.864,c),
(544.908,522.376,l),
(497.454,533.376,o),
(452.463,541,o),
(400.463,541,cs)
);
},
{
closed = 1;
nodes = (
(544.297,-5,l),
(559.665,83,l),
(535.096,83,ls),
(496.096,83,o),
(480.294,97.18,o),
(480.213,132.18,cs),
(480.197,139.18,o),
(481.681,147.152,o),
(482.946,156.152,c),
(547.503,523,l),
(440.503,523,l),
(389.308,237,l),
(396.638,146.848,l),
(394.671,132.848,o),
(394.089,118.815,o),
(394.262,105.815,cs),
(393.816,31.823,o),
(432.866,-5,o),
(516.866,-5,cs)
);
}
);
width = 600;
},
{
anchors = (
{
name = top;
pos = (362.951,530);
}
);
layerId = "ADDB71F6-EC09-4DA0-80DB-A822AEA2EE7D";
shapes = (
{
closed = 1;
nodes = (
(245.804,541,o),
(83.24,407.285,o),
(56.678,218.285,cs),
(36.721,76.285,o),
(93.964,-9,o),
(208.964,-9,cs),
(321.964,-9,o),
(395.267,64.728,o),
(431.396,193.728,c),
(415.47,167,l),
(443.47,167,l),
(462.425,373.284,l),
(422.398,138.284,o),
(320.971,37,o),
(220.971,37,cs),
(128.971,37,o),
(87.874,98.715,o),
(104.036,213.715,cs),
(126.944,376.715,o),
(266.796,495,o),
(397.796,495,cs),
(442.796,495,o),
(473.476,486.593,o),
(496.649,473.593,c),
(534.264,522.725,l),
(494.529,531.725,o),
(459.804,541,o),
(406.804,541,cs)
);
},
{
closed = 1;
nodes = (
(537.297,-5,l),
(545.762,41,l),
(519.533,41,ls),
(482.533,41,o),
(463.193,59.733,o),
(462.096,101.733,cs),
(462.579,111.722,o),
(464.106,121.715,o),
(465.652,132.715,c),
(535.503,523,l),
(488.503,523,l),
(437.043,228,l),
(429.717,169.282,l),
(423.079,136.282,o),
(421.627,110.278,o),
(420.957,91.278,cs),
(421.864,33.269,o),
(448.526,-5,o),
(519.526,-5,cs)
);
}
);
width = 600;
},
{
anchors = (
{
name = top;
pos = (367.036,530);
}
);
layerId = "D03DF296-8133-4A96-B1BA-CFDB09DF42C8";
shapes = (
{
closed = 1;
nodes = (
(222.65,541,o),
(73.859,404.477,o),
(46.837,212.209,cs),
(27.569,75.111,o),
(81.17,-9,o),
(192.902,-9,cs),
(293.647,-9,o),
(366.866,52.855,o),
(401.286,163.881,c),
(370.717,139.222,l),
(410.155,139.222,l),
(417.682,345.965,l),
(384.43,159.168,o),
(300.176,77.033,o),
(218.966,77.033,cs),
(154.744,77.033,o),
(128.72,121.948,o),
(141.093,209.987,cs),
(160.787,350.111,o),
(272.069,454.967,o),
(387.546,454.967,cs),
(435.814,454.967,o),
(477.748,445.147,o),
(499.159,437.049,c),
(542.96,522.44,l),
(496.919,533.074,o),
(453.807,541,o),
(401.624,541,cs)
);
},
{
closed = 1;
nodes = (
(543.016,-5,l),
(557.121,75.314,l),
(532.248,75.314,ls),
(493.614,75.314,o),
(477.165,90.327,o),
(476.898,126.608,cs),
(476.973,134.155,o),
(478.465,142.497,o),
(479.781,151.863,c),
(545.307,523,l),
(449.287,523,l),
(398.044,235.353,l),
(402.692,150.954,l),
(399.87,133.477,o),
(399.129,117.253,o),
(399.147,103.155,cs),
(398.949,32.087,o),
(435.732,-5,o),
(517.353,-5,cs)
);
}
);
width = 600;
}
);
unicode = 97;
},
{
glyphname = ae;
layers = (
{
layerId = "1A7FA7F6-774C-4A69-BC02-C84AF7C361B9";
shapes = (
{
closed = 1;
nodes = (
(359.008,116,o),
(354.746,197.426,o),
(364.725,268.426,cs),
(376.671,353.426,o),
(417.198,412,o),
(464.198,412,cs),
(491.198,412,o),
(496.016,398.574,o),
(493.065,377.574,cs),
(486.319,329.574,o),
(424.457,297.074,o),
(328.176,295.074,c),
(341.141,183.911,l),
(501.703,187.911,o),
(599.898,255.426,o),
(616.2,371.426,cs),
(628.006,455.426,o),
(594.597,540,o),
(496.597,540,cs),
(384.597,540,o),
(306.357,436.574,o),
(283.027,270.574,cs),
(264.756,140.574,o),
(278.89,-10,o),
(445.89,-10,cs),
(476.89,-10,o),
(513.53,-4.165,o),
(543.935,5.835,c),
(521.646,126.902,l),
(497.803,120.902,o),
(471.008,116,o),
(448.008,116,cs)
);
},
{
closed = 1;
nodes = (
(184.89,-10,o),
(239.055,32.466,o),
(269.952,138.466,c),
(230.849,127,l),
(314.849,127,l),
(247.789,276,l),
(231.025,193.569,ls),
(220.295,138.569,o),
(179.321,104,o),
(140.321,104,cs),
(110.321,104,o),
(104.065,121.426,o),
(107.86,148.426,cs),
(118.4,223.426,o),
(224.496,231.599,o),
(270.983,206.599,c),
(304.769,297.704,l),
(185.655,346.704,o),
(0.962,298.574,o),
(-21.525,138.574,cs),
(-34.033,49.574,o),
(7.89,-10,o),
(100.89,-10,cs)
);
},
{
closed = 1;
nodes = (
(221.784,155,l),
(302.784,155,l),
(330.09,298.429,ls),
(354.782,431.429,o),
(299.179,529.901,o),
(155.741,533.901,cs),
(98.189,535,l),
(73.341,408,l),
(126.37,406.121,ls),
(185.089,404.121,o),
(267.296,387.569,o),
(252.615,311.569,cs)
);
}
);
width = 600;
},
{
layerId = "772FC93F-B3B8-447D-A30A-419E2FCA5167";
shapes = (
{
closed = 1;
nodes = (
(342.534,79,o),
(343.319,180.152,o),
(355.265,265.152,cs),
(371.146,378.152,o),
(419.094,452,o),
(474.094,452,cs),
(512.094,452,o),
(517.006,419.848,o),
(512.93,390.848,cs),
(503.514,323.848,o),
(435.936,281.084,o),
(333.514,278.084,c),
(344.09,202.943,l),
(495.512,205.943,o),
(588.248,272.152,o),
(604.27,386.152,cs),
(614.811,461.152,o),
(588.323,540,o),
(499.323,540,cs),
(390.323,540,o),
(312.395,436.848,o),
(289.065,270.848,cs),
(270.795,140.848,o),
(269.164,-10,o),
(450.164,-10,cs),
(479.164,-10,o),
(513.833,-4.023,o),
(541.238,5.977,c),
(521.197,89.901,l),
(499.214,82.901,o),
(473.534,79,o),
(452.534,79,cs)
);
},
{
closed = 1;
nodes = (
(196.164,-10,o),
(261.584,38.162,o),
(282.654,131.162,c),
(241.724,119,l),
(320.724,119,l),
(266.789,276,l),
(248.994,192.846,l),
(236.016,121.846,o),
(190.534,79,o),
(143.534,79,cs),
(101.534,79,o),
(87.075,100.152,o),
(92.556,139.152,cs),
(105.486,231.152,o),
(220.209,248.211,o),
(281.852,217.211,c),
(313.227,295.857,l),
(199.675,348.857,o),
(17.579,295.848,o),
(-4.065,141.848,cs),
(-16.713,51.848,o),
(29.164,-10,o),
(116.164,-10,cs)
);
},
{
closed = 1;
nodes = (
(241.784,155,l),
(298.784,155,l),
(331.881,289.164,ls),
(361.73,416.164,o),
(316.907,529.92,o),
(175.469,533.92,cs),
(119.189,535,l),
(101.681,446,l),
(153.119,445.069,ls),
(235.838,443.069,o),
(291.736,397.842,o),
(273.509,310.842,cs)
);
}
);
width = 600;
},
{
layerId = "ADDB71F6-EC09-4DA0-80DB-A822AEA2EE7D";
shapes = (
{
closed = 1;
nodes = (
(312.69,35,o),
(309.852,169.715,o),
(323.625,267.715,cs),
(343.02,405.715,o),
(407.796,495,o),
(488.796,495,cs),
(546.796,495,o),
(563.283,450.285,o),
(556.397,401.285,cs),
(544.732,318.285,o),
(456.581,269.028,o),
(317.159,266.028,c),
(319.284,220.969,l),
(484.846,224.969,o),
(588.576,288.715,o),
(603.333,393.715,cs),
(613.874,468.715,o),
(583.663,540,o),
(495.663,540,cs),
(390.663,540,o),
(314.316,436.285,o),
(291.127,271.285,cs),
(274.262,151.285,o),
(277.823,-10,o),
(436.823,-10,cs),
(470.823,-10,o),
(494.652,-3.477,o),
(521.058,6.523,c),
(509.818,49.486,l),
(486.553,40.486,o),
(461.69,35,o),
(439.69,35,cs)
);
},
{
closed = 1;
nodes = (
(200.823,-10,o),
(266.359,44.718,o),
(292.91,176.718,c),
(272.551,132,l),
(312.551,132,l),
(285.07,278,l),
(267.796,191.281,ls),
(246.883,92.281,o),
(183.69,35,o),
(116.69,35,cs),
(56.69,35,o),
(38.641,75.715,o),
(46.23,129.715,cs),
(64.22,257.715,o),
(213.588,273.418,o),
(302.091,241.418,c),
(313.56,282.546,l),
(200.884,327.546,o),
(21.797,290.285,o),
(-0.128,134.285,cs),
(-11.652,52.285,o),
(21.823,-10,o),
(109.823,-10,cs)
);
},
{
closed = 1;
nodes = (
(259.784,155,l),
(292.784,155,l),
(318.926,290.717,ls),
(343.634,416.717,o),
(303.961,535,o),
(159.961,535,cs),
(140.189,535,l),
(131.865,490,l),
(142.094,490,ls),
(251.094,490,o),
(311.436,416.283,o),
(290.398,309.283,cs)
);
}
);
width = 600;
},
{
layerId = "D03DF296-8133-4A96-B1BA-CFDB09DF42C8";
shapes = (
{
closed = 1;
nodes = (
(337.072,70.948,o),
(337.194,178.242,o),
(349.474,265.621,cs),
(365.998,383.196,o),
(417.026,459.869,o),
(476.784,459.869,cs),
(518.444,459.869,o),
(525.475,425.418,o),
(520.885,392.758,cs),
(511.057,322.83,o),
(439.714,278.877,o),
(330.521,275.877,c),
(339.551,206.242,l),
(493.56,209.425,o),
(588.308,275.183,o),
(604.099,387.536,cs),
(614.639,462.536,o),
(587.47,540,o),
(498.653,540,cs),
(390.385,540,o),
(312.747,436.745,o),
(289.442,270.928,cs),
(271.429,142.758,o),
(270.748,-10,o),
(447.722,-10,cs),
(477.637,-10,o),
(510.322,-3.923,o),
(537.545,6.077,c),
(519.115,82.505,l),
(496.897,75.139,o),
(471.366,70.948,o),
(450.183,70.948,cs)
);
},
{
closed = 1;
nodes = (
(197.016,-10,o),
(262.457,39.362,o),
(284.531,139.499,c),
(247.366,121.379,l),
(319.229,121.379,l),
(270.135,276.366,l),
(252.435,192.56,ls),
(238.005,116.435,o),
(189.281,70.948,o),
(138.621,70.948,cs),
(93.327,70.948,o),
(78.212,95.68,o),
(84.078,137.425,cs),
(97.934,236.013,o),
(218.997,252.824,o),
(285.556,221.641,c),
(313.288,293.421,l),
(199.897,344.957,o),
(18.351,294.83,o),
(-3.344,140.464,cs),
(-15.787,51.928,o),
(27.82,-10,o),
(115.003,-10,cs)
);
},
{
closed = 1;
nodes = (
(245.078,155,l),
(297.686,155,l),
(329.51,289.448,ls),
(358.418,416.265,o),
(314.538,530.85,o),
(172.631,534.117,cs),
(123.032,535,l),
(107.205,454.052,l),
(151.101,453.291,ls),
(238.63,451.657,o),
(295.341,401.216,o),
(276.6,310.556,cs)
);
}
);
width = 600;
}
);
unicode = 230;
},
{
glyphname = b;
layers = (
{
anchors = (
{
name = bottom;
pos = (230.676,-230);
}
);
layerId = "1A7FA7F6-774C-4A69-BC02-C84AF7C361B9";
shapes = (
{
closed = 1;
nodes = (
(227.867,115,o),
(195.711,146.428,o),
(209.251,221.428,cs),
(302.406,750,l),
(166.406,750,l),
(73.994,228.572,ls),
(46.631,76.572,o),
(114.89,-10,o),
(255.89,-10,cs),
(408.89,-10,o),
(522.865,84.426,o),
(544.087,235.426,cs),
(557.579,331.426,o),
(511.799,390.924,o),
(421.015,420.924,c),
(435.249,386,l),
(455.819,425.395,l),
(545.643,386.472,o),
(610.413,385.077,q),
(621.381,510,l),
(493.049,509.346,o),
(356.998,535.346,q),
(336.277,391.775,l),
(388.591,379.775,o),
(424.74,332.574,o),
(413.778,254.574,cs),
(401.832,169.574,o),
(344.867,115,o),
(280.867,115,cs)
);
}
);
width = 600;
},
{
anchors = (
{
name = bottom;
pos = (230.676,-230);
}
);
layerId = "772FC93F-B3B8-447D-A30A-419E2FCA5167";
shapes = (
{
closed = 1;
nodes = (
(196.236,84,o),
(168.376,130.153,o),
(184.305,222.153,cs),
(278.406,750,l),
(171.406,750,l),
(79.343,230.846,ls),
(51.84,77.846,o),
(117.164,-10,o),
(255.164,-10,cs),
(404.164,-10,o),
(516.529,89.152,o),
(538.173,243.152,cs),
(553.351,351.152,o),
(501.59,420.193,o),
(400.947,451.193,c),
(422.887,419,l),
(437.928,452.009,l),
(530.442,416.044,o),
(613.898,415.034,q),
(622.107,510,l),
(495.507,509.542,o),
(351.449,533.542,q),
(336.319,425.691,l),
(405.79,407.691,o),
(445.465,344.848,o),
(433.8,261.848,cs),
(418.481,152.848,o),
(356.236,84,o),
(271.236,84,cs)
);
}
);
width = 600;
},
{
anchors = (
{
name = bottom;
pos = (230.676,-230);
}
);
layerId = "ADDB71F6-EC09-4DA0-80DB-A822AEA2EE7D";
shapes = (
{
closed = 1;
nodes = (
(149.69,35,o),
(116.202,100.716,o),
(139.472,230.716,cs),
(232.406,750,l),
(186.406,750,l),
(93.738,233.284,ls),
(66.095,79.284,o),
(117.823,-10,o),
(252.823,-10,cs),
(403.823,-10,o),
(504.874,98.715,o),
(526.798,254.715,cs),
(544.225,378.715,o),
(486.834,462.698,o),
(370.909,491.698,c),
(402.914,469,l),
(409.819,488.318,l),
(497.816,465.321,o),
(619.581,465.003,q),
(623.447,510,l),
(498.205,509.831,o),
(343.385,530.831,q),
(336.677,480.434,l),
(447.774,438.434,o),
(497.181,371.285,o),
(481.44,259.285,cs),
(462.889,127.285,o),
(382.69,35,o),
(257.69,35,cs)
);
}
);
width = 600;
},
{
anchors = (
{
name = bottom;
pos = (230.676,-230);
}
);
layerId = "D03DF296-8133-4A96-B1BA-CFDB09DF42C8";
shapes = (
{
closed = 1;
nodes = (
(187.718,75.033,o),
(158.827,124.766,o),
(176.101,223.72,cs),
(269.987,750,l),
(174.151,750,l),
(81.977,231.292,ls),
(54.449,78.109,o),
(117.284,-10,o),
(254.735,-10,cs),
(404.101,-10,o),
(514.396,90.902,o),
(536.091,245.268,cs),
(551.681,356.196,o),
(498.89,427.972,o),
(395.45,458.606,c),
(419.231,428.15,l),
(432.784,458.654,l),
(524.472,425.062,o),
(614.938,424.179,q),
(622.352,510,l),
(496,509.595,o),
(349.973,533.046,q),
(336.385,435.709,l),
(413.473,413.317,o),
(454.93,349.686,o),
(442.519,261.379,cs),
(426.608,148.17,o),
(361.078,75.033,o),
(268.757,75.033,cs)
);
}
);
width = 600;
}
);
unicode = 98;
},
{
glyphname = c;
layers = (
{
anchors = (
{
name = bottom;
pos = (294,0);
}
);
layerId = "1A7FA7F6-774C-4A69-BC02-C84AF7C361B9";
shapes = (
{
closed = 1;
nodes = (
(392.89,-10,o),
(453.347,-5.255,o),
(512.298,15.745,c),
(498.838,142.107,l),
(453.871,128.107,o),
(407.429,119,o),
(362.429,119,cs),
(257.429,119,o),
(206.546,160.426,o),
(220.038,256.426,cs),
(233.109,349.426,o),
(302.198,412,o),
(380.198,412,cs),
(431.198,412,o),
(462.218,389.169,o),
(479.754,343.169,c),
(584.16,414.636,l),
(567.122,492.636,o),
(500.597,540,o),
(394.597,540,cs),
(223.597,540,o),
(105.811,425.574,o),
(81.075,249.574,cs),
(56.481,74.574,o),
(151.89,-10,o),
(337.89,-10,cs)
);
}
);
width = 600;
},
{
anchors = (
{
name = bottom;
pos = (287,0);
}
);
layerId = "772FC93F-B3B8-447D-A30A-419E2FCA5167";
shapes = (
{
closed = 1;
nodes = (
(381.164,-10,o),
(440.575,-5.973,o),
(498.386,14.027,c),
(486.016,109.919,l),
(439.908,94.919,o),
(393.377,85,o),
(347.377,85,cs),
(235.377,85,o),
(183.556,139.152,o),
(199.859,255.152,cs),
(216.302,372.152,o),
(292.11,445,o),
(383.11,445,cs),
(435.11,445,o),
(467.113,419.548,o),
(484.367,371.548,c),
(571.135,427.342,l),
(553.972,497.342,o),
(492.323,540,o),
(394.323,540,cs),
(231.323,540,o),
(116.411,429.848,o),
(91.536,252.848,cs),
(67.222,79.848,o),
(153.164,-10,o),
(324.164,-10,cs)
);
}
);
width = 600;
},
{
anchors = (
{
name = bottom;
pos = (289,0);
}
);
layerId = "ADDB71F6-EC09-4DA0-80DB-A822AEA2EE7D";
shapes = (
{
closed = 1;
nodes = (
(377.823,-10,o),
(434.664,-3.454,o),
(490.475,16.546,c),
(484.778,63.473,l),
(434.108,44.473,o),
(381.831,36,o),
(330.831,36,cs),
(191.831,36,o),
(132.279,108.715,o),
(152.517,252.715,cs),
(174.02,405.715,o),
(266.656,494,o),
(387.656,494,cs),
(450.656,494,o),
(495.29,475.169,o),
(516.734,407.169,c),
(559.753,428.834,l),
(538.169,495.834,o),
(486.663,540,o),
(395.663,540,cs),
(240.663,540,o),
(128.754,432.285,o),
(103.316,251.285,cs),
(79.143,79.285,o),
(156.823,-10,o),
(323.823,-10,cs)
);
}
);
width = 600;
},
{
anchors = (
{
name = bottom;
pos = (287.366,0);
}
);
layerId = "D03DF296-8133-4A96-B1BA-CFDB09DF42C8";
shapes = (
{
closed = 1;
nodes = (
(380.552,-10,o),
(439.493,-5.512,o),
(496.938,14.488,c),
(485.79,101.419,l),
(438.847,85.687,o),
(391.264,76.033,o),
(344.349,76.033,cs),
(227.408,76.033,o),
(174.172,133.582,o),
(191.195,254.706,cs),
(208.564,378.294,o),
(287.452,453.967,o),
(383.942,453.967,cs),
(437.955,453.967,o),
(472.269,429.727,o),
(490.29,378.067,c),
(569.052,427.615,l),
(551.08,497.066,o),
(491.287,540,o),
(394.568,540,cs),
(233.032,540,o),
(118.67,430.294,o),
(93.691,252.562,cs),
(69.404,79.745,o),
(153.833,-10,o),
(324.101,-10,cs)
);
}
);
width = 600;
}
);
unicode = 99;
},
